<svg xmlns="http://www.w3.org/2000/svg" xmlns:xlink="http://www.w3.org/1999/xlink" version="1.1" id="Calque_1" x="0px" y="0px" viewBox="0 0 470 25" style="enable-background:new 0 0 470 25;" xml:space="preserve">
<style type="text/css">
	.st0{fill:#357DED;}
</style>
<path class="st0" d="M257.4,11.2c-54.4,0.6-108.8,2.2-162.9,4.7c-7.4,0.3-15.1,0.6-23,0.8c-23.4,0.8-47.9,1.5-69.4,5.1l0,0  c-0.8,0.1-1.3,0.4-1.5,0.8c-0.2,0.4-0.1,0.8,0,0.9c0.1,0.1,0.2,0.4,0.5,0.6c0.3,0.2,0.8,0.3,1.4,0.4 M257.4,11.2L43.7,6  C49.8,5.6,56,5.2,62.1,4.9c1.8-0.1,3.6-0.2,5.4-0.3c22.7-1.2,45.5-2,68.3-2.5c55.3-1.3,110.6-1.8,165.8,0c2.3,0.1,5,0.1,8.1,0.2  c10,0.2,22.8,0.4,30.5,1.7c1.5,0.2,1.4,0.9,1.4,1c-0.1,0.2-0.3,0.6-1.2,0.7 M257.4,11.2c-8-0.2-14.4-0.4-28.1-0.6  c-40.1-0.5-80.1-0.5-120.2-0.4c-4.9,0-9.9,0.1-14.9,0.1c-18.8,0.2-38.2,0.4-56.4-1.6l0.1-0.5l-0.1,0.5c-0.8-0.1-1.3-0.3-1.7-0.6  c-0.3-0.3-0.4-0.6-0.4-0.9c0-0.2,0.1-0.5,0.3-0.7c0.2-0.2,0.5-0.4,0.9-0.5L257.4,11.2z M2.5,24.5C2.5,24.5,2.5,24.5,2.5,24.5l0-0.5  L2.5,24.5C2.5,24.5,2.5,24.5,2.5,24.5z M2.5,24.5c0.1,0,0.4,0,0.6,0c0.1,0,0.3,0,0.5,0c0.1,0,0.2,0,0.3,0h0  c3.6-0.3,7.2-0.5,10.9-0.8c4.8-0.4,9.6-0.7,14.4-1.1h0c29.2-2,58.4-3.5,87.7-4.8l0-0.5l0,0.5C155.8,16,195,15,234,14.3  c8.7-0.2,17.4-0.2,26.2-0.2c12.8,0,25.7,0,38.4-0.5c7.9,0,15.7,0,23.6,0c32.9,0.1,65.7,0.7,98.5,1.7c3.9,0.1,7.4,0.2,10.9,0.3  c5.9,0.2,11.5,0.4,18,0.5c3.9,0.1,10.2,0.1,14.5,0.2c0.5,0,1.7,0,2.4,0l0.5,0c0.1,0,0.2,0,0.2,0h0c0.1,0,0.2,0,0.3,0  c0,0,0.1,0,0.1,0l0,0h0h0l0,0c0.8-0.1,1.3-0.3,1.6-0.7c0.3-0.4,0.2-0.8,0.1-0.9c0,0,0,0,0,0l-0.5,0.2 M469,14.8c0,0-0.2-0.7-1.5-0.7   M469,14.8c0,0.1,0.2,0.9-1.3,1L469,14.8z M467.5,14.1l0-0.5h0h0L467.5,14.1z M467.5,14.1c-0.2,0-1,0-1.8,0c-0.6,0-1.2,0-1.5,0   M464.2,14.1l0-0.5l0,0c-4.3,0-10.5-0.1-14.4-0.2c-6.5-0.1-12.1-0.3-18-0.5c-3.4-0.1-7-0.2-10.9-0.3c-32.9-0.9-65.8-1.6-98.7-1.7  c-3.9,0-7.9,0-11.9,0c-0.3-0.2-0.7-0.4-1.3-0.5l0,0c-0.2,0-0.6,0-1.1-0.1c-0.5,0-1.2,0-1.9-0.1c-0.3,0-0.6,0-0.9,0  c-1.1,0-2.2-0.1-2.9-0.1c-11.6-0.5-12.3-0.5-23-0.9c-1,0-2.2-0.1-3.4-0.1c-2.2-0.1-4.3-0.1-6.2-0.2c-16-0.5-20.6-0.7-40.4-1  c-27.2-0.4-54.4-0.5-81.5-0.5c28.2-0.8,56.5-0.9,84.7-1c10.8-0.1,21.7-0.1,32.5-0.2c4.5,0,9-0.1,13.5-0.1C291.5,6,304.5,5.9,317.5,6  c3.2,0,6.5,0.1,9.7,0.1c2.8,0,5.6,0.1,8.3,0.1c0.4,0,1.1,0,1.9,0c0.2,0,0.5,0,0.7,0c0.5,0,1,0,1.3,0c0.4,0,0.7,0,0.8,0c0,0,0,0,0,0  l-0.1-0.5 M464.2,14.1c-4.3,0-10.5-0.1-14.4-0.2c-6.5-0.1-12.1-0.3-18-0.5c-3.4-0.1-7-0.2-10.9-0.3c-32.9-0.9-65.8-1.6-98.7-1.7  c-4,0-8,0-12.1,0L464.2,14.1z M340.3,5.7c-0.3,0-1.6,0-2.8,0c-0.7,0-1.5,0-1.9,0c-2.8,0-5.6-0.1-8.3-0.1c-3.2,0-6.5-0.1-9.7-0.1  L340.3,5.7z M120.9,7.5c-0.1-0.1-0.1-0.2-0.1-0.4c0,0,0,0,0,0l0.5-0.1L120.9,7.5z M120.9,7.5c-4,0-7.9,0-11.9,0  c-4.9,0-9.9,0.1-15,0.1C81.8,7.8,69.2,7.9,56.9,7.4 M120.9,7.5l-64-0.1 M56.9,7.4c1.8-0.1,3.6-0.2,5.4-0.3C64.2,7,66,6.9,67.9,6.8  c22.7-1.2,45.3-2,68.1-2.5c44.4-1,88.8-1.6,133.2-0.8c-1.4,0-2.8,0-4.2,0l0,0.5L56.9,7.4z"/>
</svg>
