<?xml version="1.0" encoding="UTF-8"?> <svg xmlns="http://www.w3.org/2000/svg" width="1450" height="1196" viewBox="0 0 1450 1196" fill="none"><g clip-path="url(#clip0_1805_3218)"><path d="M917.315 313.605H45.8125V895.211H917.315V313.605Z" fill="#fff"></path><path d="M1417.39 266.469L743.377 1.93849C730.694 -1.68522 718.011 -1.68522 707.14 1.93849L33.129 266.469C13.1986 277.341 0.515625 297.271 0.515625 319.013V884.312C0.515625 906.055 13.1986 925.985 33.129 936.856L707.14 1192.33C718.011 1195.95 730.694 1195.95 743.377 1192.33L1417.39 936.856C1437.32 925.985 1450 906.055 1450 884.312V319.013C1450 297.271 1437.32 277.341 1417.39 266.469ZM246.928 855.323C246.928 858.946 243.304 862.57 239.681 862.57H125.534C121.91 862.57 118.286 858.946 118.286 855.323V440.408H100.168C94.7321 440.408 89.2966 434.972 89.2966 429.537V346.191C89.2966 340.756 94.7321 335.32 100.168 335.32H239.681C243.304 335.32 246.928 338.944 246.928 342.567V857.135V855.323ZM589.369 882.501C431.737 882.501 303.096 755.671 303.096 598.039C303.096 440.408 431.737 313.578 589.369 313.578C747 313.578 875.642 440.408 875.642 598.039C875.642 755.671 747 882.501 589.369 882.501Z" fill="#898989"></path><path d="M1178.22 598.06L1361.22 348.024C1364.84 342.589 1361.22 333.529 1353.97 333.529H1239.82C1234.39 333.529 1228.95 337.153 1225.33 340.777L1107.56 502.032L989.787 340.777C986.164 335.341 980.728 333.529 975.293 333.529H861.146C853.898 333.529 850.274 342.589 853.898 348.024L1036.9 598.06L853.898 848.096C850.274 853.532 853.898 862.591 861.146 862.591H975.293C980.728 862.591 986.164 858.968 989.787 855.344L1107.56 694.089L1225.33 855.344C1228.95 860.779 1234.39 862.591 1239.82 862.591H1353.97C1361.22 862.591 1364.84 853.532 1361.22 848.096L1178.22 598.06Z" fill="#FFF"></path><path d="M589.368 793.734C618.358 793.734 643.724 784.675 665.466 770.18C687.209 755.685 703.515 733.943 716.198 704.953C728.881 675.963 734.317 639.726 734.317 598.053C734.317 556.381 728.881 518.332 716.198 491.154C703.515 462.164 687.209 442.234 665.466 427.739C643.724 413.244 618.358 407.809 589.368 407.809C560.379 407.809 535.013 416.868 513.27 431.363C491.528 445.858 475.221 467.6 462.538 496.59C449.855 525.579 444.42 561.816 444.42 605.301C444.42 648.785 449.855 683.211 462.538 712.2C475.221 741.19 491.528 761.121 513.27 775.615C535.013 790.11 560.379 795.546 589.368 795.546V793.734Z" fill="#898989"></path></g><defs><clipPath id="clip0_1805_3218"><rect width="1449.48" height="1195.83" fill="white" transform="translate(0.515625 0.142578)"></rect></clipPath></defs></svg> 