<?xml version="1.0" encoding="UTF-8"?> <svg xmlns="http://www.w3.org/2000/svg" width="5247" height="1703" viewBox="0 0 5247 1703" fill="none"><path d="M2160.87 981.959C2107.36 981.959 2086.87 947.261 2086.87 908.383C2086.87 869.086 2107.36 834.387 2160.87 834.387C2202.68 834.387 2223.16 855.708 2230.68 884.136H2287.54C2275.83 817.247 2219.4 790.91 2160.87 790.91C2095.65 790.91 2027.09 822.264 2027.09 908.383C2027.09 994.501 2095.65 1025.85 2160.87 1025.85C2219.4 1025.85 2275.83 999.518 2287.54 932.63H2230.68C2223.16 960.639 2202.68 981.959 2160.87 981.959ZM2447.59 790.91C2382.79 790.91 2314.65 824.354 2314.65 908.383C2314.65 992.411 2382.79 1025.85 2447.59 1025.85C2512.81 1025.85 2580.53 992.411 2580.53 908.383C2580.53 824.354 2512.81 790.91 2447.59 790.91ZM2447.59 981.959C2394.08 981.959 2374.43 947.261 2374.43 908.383C2374.43 869.086 2394.08 834.387 2447.59 834.387C2501.1 834.387 2521.17 869.086 2521.17 908.383C2521.17 947.261 2501.1 981.959 2447.59 981.959ZM2867.02 924.687C2873.71 830.625 2806.4 790.91 2741.6 790.91C2677.64 790.91 2612.01 826.026 2612.01 908.383C2612.01 990.739 2678.48 1025.85 2742.02 1025.85C2797.2 1025.85 2847.79 1003.7 2862.42 948.097H2806.4C2797.62 966.91 2775.88 981.959 2742.02 981.959C2695.62 981.959 2674.3 955.204 2669.28 924.687H2867.02ZM2741.6 834.387C2783.41 834.387 2802.22 856.126 2808.91 882.881H2671.37C2679.73 856.126 2701.89 834.387 2741.6 834.387ZM3002.42 1025.85C3050.07 1025.85 3077.25 1001.61 3086.86 988.23V1019.58H3150.41V796.763H3086.86V928.449C3086.86 954.368 3069.3 978.197 3030.01 978.197C2990.71 978.197 2975.24 955.204 2975.24 928.449V796.763H2911.7V944.335C2911.7 994.501 2945.14 1025.85 3002.42 1025.85ZM3332.42 885.39C3292.71 878.283 3255.5 876.193 3255.5 856.962C3255.5 839.822 3274.31 832.715 3309.01 832.715C3347.47 832.715 3363.78 846.929 3363.78 861.143H3427.74C3427.74 820.174 3388.44 790.91 3309.85 790.91C3234.6 790.91 3194.88 815.157 3194.88 859.889C3194.88 904.202 3226.66 916.744 3285.6 926.359C3344.96 936.392 3372.56 938.9 3372.56 958.967C3372.56 976.107 3353.74 982.796 3317.79 982.796C3281.42 982.796 3255.08 973.18 3255.08 951.024H3186.1C3186.1 1001.19 3235.02 1025.85 3313.61 1025.85C3394.29 1025.85 3437.77 1003.28 3437.77 952.278C3437.77 900.858 3395.13 896.259 3332.42 885.39ZM3624.15 791.328C3576.5 791.328 3550.16 821.846 3540.96 837.732V796.763H3477.42V1019.58H3540.96V913.817C3540.96 879.119 3560.19 846.093 3612.87 846.093C3632.1 846.093 3647.15 849.855 3655.09 853.2H3657.18V794.673C3649.65 792.582 3638.78 791.328 3624.15 791.328ZM3813.11 790.91C3748.31 790.91 3680.17 824.354 3680.17 908.383C3680.17 992.411 3748.31 1025.85 3813.11 1025.85C3878.33 1025.85 3946.05 992.411 3946.05 908.383C3946.05 824.354 3878.33 790.91 3813.11 790.91ZM3813.11 981.959C3759.6 981.959 3739.95 947.261 3739.95 908.383C3739.95 869.086 3759.6 834.387 3813.11 834.387C3866.62 834.387 3886.69 869.086 3886.69 908.383C3886.69 947.261 3866.62 981.959 3813.11 981.959ZM4133.04 790.91C4095.84 790.91 4069.92 803.87 4053.61 824.772V726.948H3990.07V1019.58H4053.61V991.993C4069.92 1012.9 4095.84 1025.85 4133.04 1025.85C4198.26 1025.85 4250.93 984.05 4250.93 908.383C4250.93 832.715 4198.26 790.91 4133.04 790.91ZM4119.25 981.959C4073.26 981.959 4045.67 955.204 4045.67 908.383C4045.67 861.561 4073.26 834.387 4119.25 834.387C4165.23 834.387 4191.57 861.561 4191.57 908.383C4191.57 955.204 4165.23 981.959 4119.25 981.959ZM4415.17 790.91C4350.38 790.91 4282.23 824.354 4282.23 908.383C4282.23 992.411 4350.38 1025.85 4415.17 1025.85C4480.39 1025.85 4548.12 992.411 4548.12 908.383C4548.12 824.354 4480.39 790.91 4415.17 790.91ZM4415.17 981.959C4361.66 981.959 4342.02 947.261 4342.02 908.383C4342.02 869.086 4361.66 834.387 4415.17 834.387C4468.69 834.387 4488.75 869.086 4488.75 908.383C4488.75 947.261 4468.69 981.959 4415.17 981.959ZM4737.39 840.24V796.763H4672.17V739.072H4608.63V796.763H4567.24V840.24H4608.63V932.63C4608.63 988.23 4624.1 1022.93 4704.36 1022.93C4718.99 1022.93 4729.03 1020.84 4737.39 1019.58V971.926C4685.55 977.361 4672.17 970.254 4672.17 933.884V840.24H4737.39ZM4812.14 955.204C4792.91 955.204 4777.02 971.09 4777.02 990.739C4777.02 1009.97 4792.91 1025.85 4812.14 1025.85C4831.37 1025.85 4847.26 1009.97 4847.26 990.739C4847.26 971.09 4831.37 955.204 4812.14 955.204ZM5006.13 790.91C4945.1 790.91 4899.95 811.813 4892.84 861.143H4952.2C4955.55 845.675 4967.67 834.387 5006.13 834.387C5052.12 834.387 5062.57 851.528 5062.57 874.938V885.39C4907.06 875.775 4882.81 913.399 4882.81 960.221C4882.81 1004.12 4918.76 1025.85 4971.02 1025.85C5020.76 1025.85 5052.96 1004.53 5062.57 989.902V1019.58H5126.11V874.938C5126.11 809.304 5070.1 790.91 5006.13 790.91ZM5062.57 954.368C5050.86 974.016 5024.11 987.394 4989.83 987.394C4962.24 987.394 4946.77 979.033 4946.77 958.131C4946.77 926.359 4978.12 918.416 5062.57 923.014V954.368ZM5182.5 1019.58H5245.62V796.763H5182.5V1019.58ZM5213.85 770.844C5233.08 770.844 5246.88 759.974 5246.88 741.162C5246.88 721.932 5233.08 711.062 5213.85 711.062C5194.62 711.062 5181.24 721.932 5181.24 741.162C5181.24 759.974 5194.62 770.844 5213.85 770.844Z" fill="#898989"></path><path d="M1387.59 1118.87C1406.17 1128.37 1413.63 1151.19 1403.02 1169.15C1337.24 1280.44 1237.92 1368.53 1118.84 1420.44C988.18 1477.4 841.81 1487.29 704.672 1448.43C567.537 1409.57 448.118 1324.36 366.763 1207.33C285.408 1090.29 247.152 948.658 258.511 806.582C269.871 664.497 330.144 530.749 429.062 428.125C527.979 325.501 659.418 260.349 800.989 243.772C942.56 227.194 1085.49 260.217 1205.44 337.212C1314.77 407.388 1398.84 510.135 1446.09 630.46C1453.71 649.882 1442.72 671.229 1422.87 677.656C1403.03 684.075 1381.84 673.128 1374.06 653.775C1332.3 550.06 1259.24 461.524 1164.63 400.793C1059.39 333.239 933.982 304.267 809.777 318.811C685.563 333.356 570.246 390.517 483.458 480.557C396.672 570.596 343.79 687.942 333.823 812.6C323.856 937.257 357.421 1061.51 428.8 1164.2C500.178 1266.89 604.949 1341.64 725.27 1375.74C845.59 1409.84 974.01 1401.15 1088.64 1351.18C1191.71 1306.26 1277.9 1230.45 1335.61 1134.69C1346.37 1116.82 1369.02 1109.37 1387.59 1118.87Z" fill="#898989"></path><path d="M1576.08 1218.37C1601.98 1231.61 1612.39 1263.45 1597.54 1288.48C1506.8 1441.49 1369.37 1562.28 1204.25 1633.1C1022.87 1710.88 819.326 1723.54 628.285 1668.94C437.252 1614.33 270.546 1495.82 156.575 1333.6C42.6036 1171.39 -11.5802 975.503 3.25456 779.324C18.0901 583.145 101.026 398.815 237.934 257.736C374.84 116.657 557.246 27.5607 754.075 5.62697C950.898 -16.3068 1149.96 30.2798 1317.35 137.448C1469.74 235.013 1587.29 377.293 1653.89 543.574C1664.74 570.651 1649.34 600.555 1621.54 609.369C1594.2 618.026 1565.16 603.011 1554.32 576.465C1495.56 432.66 1393.23 309.643 1261.01 224.992C1114.15 130.966 939.498 90.0924 766.808 109.337C594.118 128.58 434.08 206.751 313.963 330.529C193.845 454.308 121.08 616.032 108.063 788.156C95.0472 960.271 142.587 1132.13 242.582 1274.46C342.576 1416.78 488.839 1520.76 656.451 1568.67C824.055 1616.58 1002.64 1605.47 1161.78 1537.22C1304.65 1475.95 1423.9 1372.04 1503.53 1240.41C1518.59 1215.52 1550.17 1205.14 1576.08 1218.37Z" fill="#646464"></path><path d="M1207.97 1020.58C1219.4 1026.41 1223.99 1040.45 1217.45 1051.5C1177.01 1119.93 1115.93 1174.1 1042.7 1206.03C962.348 1241.05 872.345 1247.13 788.012 1223.24C703.687 1199.34 630.25 1146.94 580.223 1074.97C530.191 1003 506.665 915.908 513.651 828.535C520.636 741.162 557.701 658.92 618.527 595.811C679.353 532.7 760.185 492.636 847.244 482.443C934.295 472.249 1022.2 492.555 1095.96 539.903C1163.19 583.061 1214.89 646.239 1243.94 720.234C1248.63 732.174 1241.87 745.308 1229.67 749.253C1217.45 753.207 1204.43 746.475 1199.64 734.569C1173.96 670.791 1129.05 616.348 1070.86 579.002C1006.15 537.46 929.026 519.643 852.644 528.587C776.263 537.532 705.351 572.683 651.98 628.053C598.608 683.419 566.092 755.585 559.963 832.237C553.834 908.897 574.475 985.304 618.37 1048.46C662.265 1111.6 726.689 1157.57 800.684 1178.54C874.67 1199.5 953.638 1194.16 1024.13 1163.44C1087.51 1135.81 1140.51 1089.19 1176 1030.31C1182.63 1019.31 1196.54 1014.73 1207.97 1020.58Z" fill="#898989"></path></svg> 