<?xml version="1.0" encoding="UTF-8"?> <svg xmlns="http://www.w3.org/2000/svg" width="226" height="64" viewBox="0 0 226 64" fill="none"><path d="M0.722656 49.2183V14.2305H15.1864C20.0658 14.2835 24.7708 14.5443 28.0383 18.9951C28.9531 20.2503 30.2165 22.5575 30.2165 26.4294C30.2165 31.3001 28.1254 34.2305 26.6877 35.5962C24.1174 38.2084 20.6757 38.4736 17.2776 38.6327H10.9606V49.2183H0.722656ZM14.8815 30.5178C16.5805 30.4736 18.4974 30.3807 19.7172 29.1211C20.0658 28.7498 20.6321 28.0028 20.6321 26.7874C20.5886 25.5808 20.0658 24.8294 19.7608 24.4581C18.2796 22.8271 15.8835 23.0128 13.923 23.0128H11.0913V30.5178H14.8815Z" fill="#898989"></path><path d="M46.8139 49.2589L46.4218 46.9296C45.1148 47.9683 42.7187 50.0014 38.4057 50.0014C37.6651 50.0014 34.4412 49.8998 32.2194 48.0213C31.2609 47.1771 29.6055 45.144 29.6055 41.7804C29.6055 40.9849 29.8233 39.6324 31.0867 37.9484C32.8729 35.5219 35.0076 34.8633 37.7522 34.2136L42.3702 33.6302C42.8929 33.4799 43.4593 33.334 44.0692 33.2368C44.1999 33.1838 44.9405 33.0821 45.3326 32.786C45.7247 32.4898 46.0297 31.3495 46.0297 30.8014C46.0297 29.8114 44.7663 29.0025 42.8058 29.0025C41.0632 29.0025 40.2355 29.6434 39.7998 30.2887C39.582 30.6335 39.4948 30.9296 39.4513 31.7252L30.6946 31.6722C31.0867 29.6434 31.4788 28.0081 32.9164 26.3241C34.7026 24.2909 37.5344 23.0048 43.0672 23.0048C44.1128 23.0048 48.3822 22.5583 51.5189 24.6887C52.7823 25.5329 53.6101 26.5274 54.1764 27.8622C55.1349 29.944 54.8735 32.4633 54.8735 34.6467V41.6302C54.8299 45.9882 55.1349 46.7793 55.919 49.2589H46.8139ZM45.899 38.0235C44.6356 38.4699 43.3286 38.8677 42.0216 39.3141L41.0632 39.6103C40.584 39.7075 39.1027 40.0346 39.1027 41.9175C39.1027 42.7617 39.582 44.2954 41.4989 44.2954C41.7602 44.2954 42.9365 44.1804 43.5464 43.9816C45.2891 43.4865 45.4198 42.3373 45.899 41.8379V38.0235Z" fill="#898989"></path><path d="M73.1727 49.2847V36.8914C73.1727 38.3676 73.5648 32.0516 72.2579 31.4284C71.8222 31.2118 70.9945 30.7831 69.9925 30.8052C68.8598 30.8273 67.5964 31.3842 67.1607 32.4052C66.6815 33.6516 66.5072 34.7963 66.5508 37.3908V49.2936H57.1406V23.6405H66.028L66.1587 26.6195C67.3785 25.1035 68.8162 23.1455 74.0441 23.1455C77.8778 23.1455 80.7967 24.5024 81.973 28.4405C82.2344 29.435 82.3651 30.3986 82.4522 32.4405V49.2847H73.1727Z" fill="#898989"></path><path d="M125.451 31.0529C125.277 30.0761 124.58 28.4584 122.184 28.4584C121.138 28.4584 120.354 28.7457 119.962 28.9932C119.744 29.0861 119.396 29.7269 119.396 30.4607C119.396 30.6551 119.57 31.2385 120.136 31.5833C120.485 31.7822 121.313 32.0253 122.271 32.1358L125.974 33.1126C128.588 33.7844 130.853 34.2573 132.683 36.1137C133.598 36.9932 134.077 38.1336 134.208 38.5977C134.644 39.9236 134.426 40.9623 134.426 41.4043C134.426 44.4275 132.988 46.2485 132.16 47.0308C130.374 48.6927 127.542 49.9479 122.358 49.9479C118.045 49.9479 115.344 48.7988 113.732 47.8485C110.291 45.8242 110.116 42.0982 109.898 40.9269L118.873 40.896C118.96 41.7756 119.091 42.4341 119.788 43.0662C120.354 43.6054 120.964 43.9767 122.576 43.9767C124.493 43.9767 125.582 43.0397 125.626 42.1866C125.669 42.085 125.669 41.3999 125.408 41.0595C124.972 40.3258 123.796 40.0164 122.097 39.5745C122.097 39.5745 116.869 38.4341 116.477 38.2441C115.301 37.696 110.552 36.6131 110.552 31.2385C110.552 28.2153 112.077 26.6021 112.948 25.7711C114.56 24.3524 117.217 23.0352 121.966 23.0352C123.012 23.0352 127.455 22.9866 130.766 25.285C131.681 25.917 132.422 26.6993 132.988 27.6275C133.772 28.9446 133.903 30.5181 133.99 31.0529H125.451Z" fill="#898989"></path><path d="M157.82 46.35C156.295 47.919 153.159 49.9787 147.974 49.9787C146.319 49.9787 141.745 49.8815 138.39 45.8594C136.996 44.1445 135.297 41.2981 135.297 36.1931C135.297 35.3091 135.297 33.2981 136.125 31.0925C137.998 25.5014 143.095 22.9511 148.454 22.9997C149.891 22.9997 154.379 23.1456 157.602 26.4826C159.214 28.1489 161.262 31.1898 161.218 36.5864C161.218 37.908 161.131 42.9157 157.82 46.35ZM150.85 30.8627C150.022 30.076 148.759 29.9168 148.323 29.9168C147.234 29.9168 146.45 30.5577 146.188 30.7522C145.056 31.6848 144.228 33.1036 144.228 36.2903C144.228 38.792 144.794 42.9776 148.279 42.9776C149.281 42.9776 150.24 42.7124 150.85 41.9787C151.678 41.0461 152.549 39.3621 152.505 36.4185C152.505 36.2726 152.549 32.6262 150.85 30.8627Z" fill="#898989"></path><path d="M189.754 23.5568H198.99V49.3292H189.754V23.5568ZM189.754 14.001H198.99V20.706H189.754V14.001Z" fill="#898989"></path><path d="M216.764 33.4131C216.067 30.3191 214.586 30.1645 212.931 30.1645C211.58 30.1645 211.144 30.6285 210.709 31.0131C209.532 32.0296 209.14 33.2893 209.14 36.4319C209.14 36.6705 209.01 40.8694 211.275 42.465C211.929 42.9026 212.234 42.9291 213.018 42.9291C213.279 42.9291 214.063 42.9556 214.76 42.6197C215.675 42.1866 216.634 41.391 216.808 39.212L225.739 39.1368C225.652 39.7203 225.303 41.7755 224.432 43.4683C222.21 47.9633 217.679 49.8374 213.105 49.8374C211.232 49.8374 209.925 49.5501 209.14 49.4042C205.524 48.4849 202.344 45.9214 200.95 42.2484C200.558 41.139 200.035 39.4462 200.035 36.6396C200.035 35.4816 200.079 32.4849 201.691 29.4882C201.908 29.0064 202.649 27.7954 203.695 26.686C207.093 23.3004 212.146 23.2031 213.366 23.2031C218.071 23.2031 220.99 24.9932 222.428 26.3457C222.864 26.7832 223.735 27.9501 224.432 29.5457C224.998 30.8495 225.303 32.012 225.521 33.4131H216.764Z" fill="#898989"></path><path d="M109.026 41.7665V34.7964C109.026 32.6174 109.026 29.687 108.112 27.6096C107.502 26.2704 107.066 25.5279 105.803 24.6881C102.666 22.5577 98.0479 22.9599 97.0023 22.9599C91.4695 22.9599 88.6378 24.4406 86.8516 26.4737C85.4139 28.1577 85.1089 29.8063 84.7168 31.8395H93.4735C93.5171 31.0439 93.6478 30.7478 93.822 30.3986C94.3013 29.7577 94.9983 28.9489 96.7409 28.9489C98.7014 28.9489 99.9648 29.961 99.9648 30.9511C99.9648 31.4947 99.9212 32.3831 99.5291 32.6792C99.1371 32.9798 98.135 33.3334 97.9608 33.382C97.5251 33.4571 96.9588 33.5897 96.2617 33.7754L91.6873 34.3632C88.9427 35.0085 86.808 35.5743 85.0218 38.0008C83.7148 39.6848 83.7148 41.2229 83.7148 42.0141C83.7148 45.382 85.1525 47.3268 86.1109 48.171C88.3328 50.0494 91.5131 49.9787 92.2973 49.9787C96.6102 49.9787 98.8757 48.056 100.226 47.0174L100.618 49.4483H110.072C109.549 47.7643 108.983 46.8848 109.026 41.7665ZM97.4816 44.1312C96.8716 44.3301 95.8261 44.2859 95.5647 44.2726C93.9963 44.1665 93.1686 42.7168 93.1686 41.8726C93.1686 39.9897 94.6498 39.6848 95.129 39.5875L96.131 39.3047C97.3944 38.8583 98.7014 38.4826 99.9648 38.0362L100.008 41.3113C99.6163 42.0494 99.1806 43.6362 97.4816 44.1312Z" fill="#898989"></path><path d="M178.601 49.2359V36.763C178.601 38.2392 179.037 32.0028 177.73 31.3751C177.294 31.1674 176.467 30.7342 175.508 30.7564C174.375 30.7785 173.068 31.3354 172.676 32.3564C172.154 33.6028 171.892 34.4514 171.936 37.0414L171.849 49.2845L162.656 49.2448V23.5917H171.5L171.631 26.5707C172.851 25.0547 174.288 23.0967 179.56 23.0967C183.35 23.0967 186.269 24.732 187.445 28.6702C187.706 29.6646 187.75 30.3144 187.881 32.3564V49.2448L178.601 49.2359Z" fill="#898989"></path></svg> 