<?xml version="1.0" encoding="UTF-8"?> <svg xmlns="http://www.w3.org/2000/svg" width="1769" height="1777" viewBox="0 0 1769 1777" fill="none"><g clip-path="url(#clip0_1805_3190)"><path d="M602.849 418.797C602.849 416.048 602.849 416.048 600.099 413.299H597.35C589.102 416.048 580.855 416.048 575.356 418.797C561.61 424.296 545.115 424.296 531.369 429.794C525.87 429.794 525.87 435.293 525.87 438.042C520.372 454.537 520.372 471.033 520.372 487.528C509.375 479.28 501.127 468.283 490.13 460.036C479.133 451.788 465.387 443.54 454.39 438.042C451.641 438.042 448.892 438.042 446.143 440.791C435.146 446.29 424.149 451.788 415.901 457.286C407.654 462.785 396.657 468.283 391.158 473.782C391.158 479.28 396.657 476.531 399.406 479.28C415.901 484.779 432.397 473.782 448.892 471.033C451.641 471.033 454.39 471.033 457.14 471.033C470.886 476.531 484.632 479.28 498.378 484.779C503.876 487.528 509.375 490.277 514.873 493.026C517.623 495.776 514.873 498.525 514.873 501.274C514.873 506.773 514.873 509.522 517.623 512.271C520.372 517.769 525.87 517.769 531.369 517.769C536.867 515.02 542.366 512.271 545.115 506.772C547.864 504.023 545.115 498.525 545.115 493.026C547.864 479.28 542.366 462.785 553.363 451.788C561.61 446.29 569.858 443.54 578.106 440.791C583.604 435.293 591.852 432.543 597.35 427.045C597.35 429.794 602.849 424.296 602.849 418.797Z" fill="#898989"></path><path d="M470.886 858.695C470.886 855.945 468.137 858.695 465.388 858.695C457.14 858.695 451.641 861.444 446.143 864.193C432.397 866.942 415.901 866.942 402.155 875.19C396.657 880.688 393.908 888.936 388.409 894.434C385.66 894.434 385.66 891.685 382.911 888.936C377.412 880.688 371.914 872.441 360.917 866.942C344.422 864.193 325.177 866.942 311.431 864.193C308.682 864.193 308.682 866.942 308.682 866.942C311.431 869.691 314.18 875.19 314.18 877.939C316.929 883.438 319.679 883.438 322.428 886.187C327.926 886.187 333.425 886.187 338.923 888.936C344.422 888.936 349.92 888.936 355.418 891.685C360.917 897.184 366.415 902.682 369.165 905.431C371.914 908.181 377.412 910.93 374.663 916.428C374.663 921.927 377.412 924.676 377.412 927.425C380.162 930.174 382.911 927.425 385.66 927.425C388.409 927.425 391.158 927.425 391.158 927.425C393.908 919.178 393.908 910.93 393.908 902.682C402.155 888.936 421.4 891.685 435.146 886.187C454.391 883.438 462.638 869.691 470.886 858.695Z" fill="#898989"></path><path d="M410.405 1009.9C404.906 1001.65 399.408 990.658 388.411 985.159C382.913 985.159 377.414 990.658 371.916 993.407C363.668 1004.4 352.671 1012.65 349.922 1023.65C344.423 1029.15 344.423 1034.65 344.423 1042.89C344.423 1040.14 341.674 1040.14 338.925 1037.39C330.677 1031.9 325.179 1023.65 316.931 1020.9C308.683 1015.4 303.185 1026.4 294.937 1031.9C286.69 1037.39 278.442 1045.64 270.194 1051.14C272.944 1053.89 275.693 1053.89 278.442 1056.64L292.188 1053.89C300.436 1051.14 308.683 1045.64 316.931 1045.64C325.179 1048.39 336.176 1053.89 338.925 1064.89C338.925 1070.39 338.925 1073.13 338.925 1078.63L341.674 1081.38C347.173 1081.38 352.671 1075.88 358.17 1073.13C360.919 1067.64 358.17 1059.39 355.42 1053.89C360.919 1048.39 363.668 1040.14 369.166 1034.65C374.665 1029.15 380.163 1020.9 388.411 1018.15C396.659 1018.15 404.906 1023.65 410.405 1029.15C410.405 1029.15 410.405 1031.9 413.154 1031.9C418.653 1020.9 413.154 1015.4 410.405 1009.9Z" fill="#898989"></path><path d="M424.152 347.305L391.161 242.835L487.384 300.568L495.632 295.07L448.895 152.11C443.397 135.615 443.397 130.116 451.644 119.12L448.895 113.621L407.657 146.612L410.406 152.11C421.403 143.863 426.901 143.863 432.4 149.361C435.149 154.859 437.898 160.358 440.647 168.606L468.14 251.082L388.412 204.346C380.164 198.847 374.666 196.098 371.917 190.599C366.418 185.101 371.917 179.603 380.164 171.355L377.415 165.856L316.932 212.593L319.681 218.092C330.678 209.844 336.177 209.844 347.174 215.342L377.415 231.838L399.409 303.318L322.431 256.581C314.183 251.082 308.685 248.333 305.935 242.835C303.186 237.336 303.186 231.838 311.434 223.59L308.685 218.092L256.449 259.33L259.198 264.829C267.446 259.33 272.945 259.33 292.189 273.076L418.654 352.804L424.152 347.305Z" fill="#898989"></path><path d="M1375.38 1636.71L1347.89 1529.49L1438.62 1589.97L1446.86 1584.47L1405.63 1438.76C1400.13 1422.27 1402.88 1416.77 1408.37 1405.77L1405.63 1400.28L1361.64 1430.52L1364.39 1436.02C1375.38 1427.77 1383.63 1427.77 1386.38 1433.27C1389.13 1438.76 1391.88 1444.26 1394.63 1452.51L1419.37 1537.74L1342.39 1488.25C1334.15 1482.75 1328.65 1480 1325.9 1474.5C1320.4 1469.01 1325.9 1463.51 1336.89 1455.26L1334.15 1449.76L1270.91 1493.75L1273.66 1499.25C1284.66 1493.75 1290.16 1493.75 1301.15 1499.25L1328.65 1518.49L1345.14 1589.97L1270.91 1537.74C1262.67 1532.24 1257.17 1526.74 1254.42 1523.99C1251.67 1518.49 1251.67 1512.99 1262.67 1504.75L1259.92 1499.25L1204.93 1537.74L1207.68 1543.24C1215.93 1540.49 1221.43 1540.49 1240.67 1554.23L1361.64 1639.46L1375.38 1636.71Z" fill="#898989"></path><path d="M1595.32 1328.82L1441.37 1345.31L1413.87 1383.8L1419.37 1386.55C1427.62 1378.3 1435.87 1375.55 1446.86 1378.3L1540.34 1444.28C1554.08 1452.53 1556.83 1460.78 1548.59 1477.27L1554.08 1480.02L1587.07 1430.54L1581.58 1427.79C1570.58 1441.53 1562.33 1441.53 1548.59 1433.29L1468.86 1378.3L1644.81 1359.06L1650.31 1350.81L1534.84 1268.33C1521.09 1260.09 1518.34 1251.84 1526.59 1235.34L1521.09 1232.59L1485.35 1282.08L1490.85 1284.83C1501.85 1271.08 1510.1 1271.08 1523.84 1279.33L1595.32 1328.82Z" fill="#898989"></path><path d="M1309.4 218.083L1334.14 234.578C1353.39 245.575 1358.89 256.572 1350.64 275.816L1356.14 278.566L1389.13 229.08L1383.63 226.33C1372.63 240.077 1364.39 240.077 1342.39 226.33L1317.65 209.835L1347.89 165.847C1350.64 160.349 1353.39 160.349 1361.64 163.098L1383.63 176.844C1411.12 196.089 1413.87 204.337 1408.37 223.581L1413.87 226.33L1433.12 193.34L1314.9 116.361L1312.15 121.86C1325.9 130.107 1328.65 135.606 1317.65 149.352L1254.42 245.575C1246.17 259.321 1240.67 259.321 1224.17 251.073L1221.43 256.572L1287.41 300.559L1290.16 295.061C1273.66 284.064 1270.91 278.566 1279.16 264.82L1309.4 218.083Z" fill="#898989"></path><path d="M1644.81 778.918L1735.53 655.202L1724.54 611.215L1719.04 613.964C1719.04 624.961 1716.29 633.209 1708.04 638.707L1598.07 663.45C1581.58 666.199 1573.33 663.45 1567.83 646.955L1562.33 649.704L1576.08 707.438H1581.58C1578.83 688.193 1584.33 682.695 1600.82 679.945L1697.04 657.952L1592.57 800.911L1595.32 809.159L1732.78 776.168C1749.28 773.419 1757.53 776.168 1763.03 792.664L1768.52 789.915L1754.78 732.181L1749.28 734.93C1752.03 754.175 1746.53 759.673 1730.03 762.422L1644.81 778.918Z" fill="#898989"></path><path d="M231.704 1433.26C217.958 1433.26 187.717 1433.26 168.472 1405.76C143.729 1372.77 157.475 1337.03 195.964 1312.29C223.457 1293.05 267.444 1282.05 289.438 1315.04C305.933 1339.78 300.435 1364.53 286.689 1386.52L292.187 1392.02L336.175 1356.28L330.677 1350.78C322.429 1350.78 319.68 1350.78 316.93 1348.03C314.181 1345.28 308.683 1317.79 297.686 1304.04C264.695 1254.56 206.961 1260.06 173.971 1282.05C129.983 1312.29 118.986 1361.78 149.228 1405.76C168.472 1433.26 193.215 1444.25 228.955 1441.5L231.704 1433.26Z" fill="#898989"></path><path d="M723.817 1768.64L745.811 1727.4L740.312 1724.65C718.318 1749.4 701.823 1752.15 671.581 1743.9C641.34 1735.65 641.34 1732.9 644.089 1721.91L657.835 1664.17L685.328 1672.42C707.321 1677.92 715.569 1686.17 712.82 1705.41L718.318 1708.16L732.064 1650.43L726.566 1647.68C718.318 1664.17 712.82 1666.92 688.077 1661.42L660.585 1655.92L674.331 1603.69C677.08 1598.19 677.08 1595.44 685.328 1598.19L710.071 1603.69C743.061 1611.94 745.811 1620.18 748.56 1639.43L754.058 1642.18L762.306 1606.44L624.845 1573.45V1578.95C641.34 1584.44 644.089 1587.19 641.34 1603.69L613.848 1716.41C608.349 1732.9 605.6 1735.65 589.105 1730.15L586.355 1735.65L723.817 1768.64Z" fill="#898989"></path><path d="M176.72 910.915L39.2587 864.178C14.5157 855.93 9.01721 847.682 6.26798 836.686H0.769531L3.51876 891.67H9.01721C9.01721 880.673 11.7664 872.426 20.0141 872.426C25.5126 872.426 36.5095 875.175 50.2556 880.673L127.234 908.165L53.0048 943.905C39.2587 949.404 28.2618 954.902 22.7633 954.902C14.5157 954.902 11.7664 949.404 11.7664 935.658H6.26798L9.01721 1009.89H14.5157C14.5157 1001.64 17.2649 996.141 25.5126 990.642L173.971 921.912L176.72 910.915Z" fill="#898989"></path><path d="M1598.07 880.682V963.159H1603.57C1603.57 943.914 1606.32 938.416 1622.81 938.416L1752.03 941.165V963.159C1752.03 982.404 1743.78 990.651 1721.78 996.15V1004.4L1765.77 1001.65L1768.52 853.19L1724.53 847.691V855.939C1746.53 861.438 1754.77 869.685 1754.77 888.93V910.924L1625.56 908.174C1609.07 908.174 1606.32 902.676 1606.32 883.431L1598.07 880.682Z" fill="#898989"></path><path d="M1017.99 182.361L1031.73 138.373H1026.23C1009.74 168.615 993.242 171.364 963.001 171.364C932.759 168.615 930.01 165.866 930.01 154.869L932.759 97.135H960.251C982.245 97.135 990.493 102.633 993.242 124.627H998.741L1001.49 64.1443H995.991C990.493 80.6397 984.994 86.1381 960.251 83.3889L932.759 80.6397L935.508 28.4044C935.508 20.1567 938.258 20.1567 946.505 20.1567H971.248C1004.24 22.9059 1009.74 28.4044 1015.24 47.649H1023.48V9.15979L883.273 0.912109V6.41056C899.768 9.15979 905.267 9.15979 902.518 28.4044L897.019 143.872C897.019 160.367 891.521 163.116 875.025 163.116V168.615L1017.99 182.361Z" fill="#898989"></path><path d="M740.312 190.584L820.039 176.838V171.339C800.795 174.089 795.296 171.339 792.547 154.844L773.303 25.6303L792.547 22.8811C811.792 20.1319 820.039 25.6303 831.036 47.6241H839.284L828.287 6.38574L682.578 31.1288L685.327 75.1164H693.575C696.324 50.3734 701.823 42.1257 721.067 39.3765L740.312 36.6272L759.556 165.841C762.306 182.336 756.807 185.085 740.312 190.584Z" fill="#898989"></path><path d="M902.518 1776.93L984.994 1771.44V1765.94C965.75 1765.94 960.251 1763.19 960.251 1746.69L952.004 1617.48H973.998C993.242 1617.48 1001.49 1622.98 1009.74 1647.72H1017.99L1012.49 1603.73L864.029 1611.98L861.279 1655.97H869.527C875.025 1633.97 880.524 1625.73 899.769 1622.98H921.762L927.261 1752.19C927.261 1768.69 924.511 1771.44 902.518 1776.93Z" fill="#898989"></path><path d="M124.485 1172.1C140.981 1166.61 149.228 1150.11 143.73 1136.36C138.231 1119.87 121.736 1111.62 105.241 1117.12C88.7454 1122.62 80.4977 1139.11 85.9962 1155.61C91.4947 1169.36 107.99 1177.6 124.485 1172.1Z" fill="#898989"></path><path d="M1661.3 1117.08C1647.56 1111.59 1628.31 1119.83 1622.81 1133.58C1617.32 1150.08 1625.56 1166.57 1639.31 1172.07C1655.8 1177.57 1672.3 1169.32 1677.8 1155.57C1686.05 1141.83 1677.8 1122.58 1661.3 1117.08Z" fill="#898989"></path><path d="M569.859 179.591V108.111L619.345 160.346L569.859 179.591ZM704.571 190.588L701.822 185.089C690.825 190.588 685.326 185.089 671.58 174.092L561.611 61.374L553.363 64.1232V226.328C553.363 237.324 547.865 242.823 539.617 248.321L542.366 253.82L591.852 234.575L589.103 229.077C578.106 234.575 572.608 234.575 569.859 226.328C567.109 220.829 567.109 198.835 567.109 193.337L624.843 171.343C627.592 176.842 644.088 190.588 646.837 196.086C649.586 204.334 644.088 207.083 633.091 212.581L635.84 218.08L704.571 190.588Z" fill="#898989"></path><path d="M1147.2 69.6317C1149.95 64.1333 1152.7 61.3841 1163.69 66.8825C1182.94 72.381 1199.43 91.6256 1188.44 113.619C1180.19 138.362 1155.44 141.112 1122.45 130.115L1147.2 69.6317ZM1122.45 138.362L1133.45 141.112L1163.69 231.836L1207.68 248.331L1210.43 242.833C1202.18 240.084 1199.43 234.585 1196.68 226.338L1171.94 152.109C1196.68 154.858 1218.68 149.359 1226.92 121.867C1235.17 94.3748 1224.18 72.381 1171.94 55.8856L1103.21 31.1426L1100.46 36.641C1116.96 44.8887 1122.45 47.6379 1114.21 64.1333L1075.72 171.353C1070.22 187.848 1064.72 187.848 1045.48 182.35L1042.73 187.848L1119.7 215.341L1122.45 209.842C1105.96 201.595 1100.46 198.845 1105.96 182.35L1122.45 138.362Z" fill="#898989"></path><path d="M1496.35 278.581C1501.84 273.083 1504.59 273.083 1512.84 281.331C1526.59 295.077 1534.84 317.071 1515.59 336.315C1496.35 355.56 1474.35 347.312 1449.61 322.569L1496.35 278.581ZM1441.36 330.817L1449.61 339.064L1435.86 432.538L1468.85 465.529L1474.35 460.03C1466.1 454.532 1466.11 449.033 1468.85 438.036L1479.85 361.058C1501.84 374.804 1523.84 377.554 1543.08 358.309C1562.33 339.064 1562.33 314.321 1523.84 273.083L1474.35 220.848L1468.85 226.346C1479.85 240.092 1482.6 245.591 1471.6 256.588L1389.13 336.315C1375.38 347.312 1372.63 347.312 1358.89 333.566L1353.39 339.064L1411.12 396.798L1416.62 391.3C1402.87 377.554 1402.87 372.055 1413.87 361.058L1441.36 330.817Z" fill="#898989"></path><path d="M1611.82 564.517C1565.08 589.26 1534.84 583.761 1521.09 556.269C1507.35 528.777 1521.09 501.285 1567.83 479.291C1614.57 454.548 1644.81 460.046 1658.55 487.538C1672.3 512.281 1658.55 539.774 1611.82 564.517ZM1628.31 594.758C1664.05 578.263 1697.04 534.275 1669.55 479.291C1642.06 424.306 1587.07 427.055 1551.33 443.551C1515.59 462.795 1482.6 504.034 1510.1 559.018C1540.34 614.003 1592.57 611.254 1628.31 594.758Z" fill="#898989"></path><path d="M198.713 531.513L154.726 476.528L226.206 487.525L198.713 531.513ZM311.432 457.283L305.933 454.534C300.435 465.531 292.187 465.531 275.692 462.782L118.986 440.788L113.487 449.036L212.459 578.249C220.707 586.497 217.958 594.745 215.209 602.992L220.707 605.742L248.199 559.005L242.701 556.256C237.202 567.253 231.704 570.002 226.206 567.253C220.707 564.503 206.961 548.008 204.212 542.509L234.453 490.274C239.952 490.274 259.196 493.023 267.444 495.773C275.692 498.522 272.942 506.769 267.444 517.766L272.942 520.516L311.432 457.283Z" fill="#898989"></path><path d="M127.233 765.217C110.737 762.468 105.239 745.973 102.49 734.976C124.483 732.227 149.226 723.979 171.22 712.982C173.969 718.48 176.719 726.728 173.969 737.725C165.722 759.719 143.728 770.716 127.233 765.217ZM53.0034 674.493C69.4988 679.991 77.7465 693.737 80.4957 707.483C69.4988 710.233 58.5019 712.982 44.7558 707.483C33.7589 704.734 28.2604 696.487 31.0096 688.239C33.7589 677.242 42.0065 671.744 53.0034 674.493ZM96.9911 674.493H102.49C105.239 663.496 110.737 657.997 118.985 660.747C124.483 663.496 129.982 666.245 140.979 677.242L146.477 685.49C129.982 693.737 99.7403 701.985 85.9942 704.734C83.2449 685.49 77.7465 663.496 55.7527 657.997C39.2573 652.499 22.762 663.496 17.2635 685.49C11.7651 710.233 22.762 732.226 53.0034 740.474C61.2511 743.223 74.9972 743.223 85.9942 740.474C91.4926 767.966 102.49 795.459 129.982 800.957C151.976 806.456 173.969 795.459 182.217 765.217C187.716 745.973 184.966 732.226 176.719 710.233C187.716 704.734 198.712 693.737 204.211 674.493C209.709 652.499 201.462 636.004 190.465 622.257L184.966 625.007C187.716 630.505 193.214 638.753 190.465 652.499C187.716 666.245 171.22 674.493 157.474 679.991L135.48 657.997C118.985 641.502 113.486 630.505 116.236 616.759L110.737 614.01L96.9911 674.493Z" fill="#898989"></path><path d="M316.93 1491L380.162 1458.01L352.67 1523.99L316.93 1491ZM363.667 1617.46L369.165 1611.96C360.917 1603.72 360.917 1598.22 366.416 1581.72L418.651 1433.26L413.153 1427.77L267.444 1499.25C256.447 1504.74 250.948 1501.99 242.701 1496.5L237.202 1501.99L275.691 1537.73L281.19 1532.24C272.942 1523.99 270.193 1518.49 275.691 1512.99C281.19 1507.49 297.685 1499.25 303.184 1496.5L349.92 1537.73C347.171 1543.23 341.673 1562.48 336.174 1567.98C330.676 1573.47 325.177 1570.73 316.93 1565.23L311.431 1570.73L363.667 1617.46Z" fill="#898989"></path><path d="M525.872 1537.73C528.621 1532.23 531.37 1529.48 542.367 1534.98C561.612 1545.97 572.609 1565.22 561.612 1584.46C550.615 1609.21 528.621 1617.45 492.881 1598.21L525.872 1537.73ZM490.132 1609.21L509.376 1620.2C547.866 1639.45 575.358 1636.7 591.853 1606.46C605.599 1581.71 600.101 1554.22 556.113 1534.98L484.633 1499.24L481.884 1504.73C495.63 1512.98 501.129 1515.73 492.881 1532.23L440.646 1633.95C432.398 1650.44 426.9 1650.44 413.154 1642.2L410.404 1647.69L479.135 1683.43L481.884 1677.94C465.389 1669.69 462.64 1664.19 470.887 1650.44L490.132 1609.21Z" fill="#898989"></path><path d="M1182.94 1636.72C1199.43 1686.21 1191.19 1716.45 1160.94 1724.7C1133.45 1735.69 1105.96 1716.45 1089.46 1666.96C1072.97 1617.48 1081.22 1587.24 1108.71 1578.99C1141.7 1570.74 1166.44 1587.24 1182.94 1636.72ZM1218.68 1625.73C1204.93 1587.24 1166.44 1548.75 1108.71 1570.74C1050.97 1589.99 1045.48 1644.97 1056.47 1680.71C1070.22 1719.2 1108.71 1757.69 1163.69 1735.69C1226.93 1716.45 1232.42 1661.47 1218.68 1625.73Z" fill="#898989"></path><path d="M1081.22 594.75C1081.22 592.001 1081.22 592.001 1081.22 594.75V594.75ZM938.257 1037.38C938.257 1034.63 938.257 1034.63 938.257 1037.38V1037.38ZM1070.22 592.001V583.754V581.004L1075.72 592.001C1072.97 592.001 1070.22 592.001 1070.22 592.001ZM861.279 990.639C858.53 990.639 855.78 990.639 855.78 990.639C855.78 985.141 855.78 979.642 855.78 974.144C855.78 979.642 858.53 985.141 861.279 990.639ZM800.796 781.698C798.047 781.698 795.297 781.698 792.548 781.698C792.548 773.45 792.548 765.202 795.297 756.955H798.047L800.796 781.698ZM613.849 1070.37C611.099 1070.37 613.849 1067.62 613.849 1070.37C613.849 1059.37 616.598 1051.12 619.347 1042.87C616.598 1053.87 616.598 1062.12 613.849 1070.37ZM1031.73 594.75C1028.98 594.75 1026.23 594.75 1023.48 594.75L1028.98 570.007V567.258C1031.73 575.506 1031.73 583.754 1031.73 594.75ZM1050.98 1053.87C1048.23 1053.87 1042.73 1053.87 1039.98 1051.12C1042.73 1037.38 1045.48 1020.88 1048.23 1007.13C1050.98 1023.63 1050.98 1040.12 1050.98 1053.87ZM968.499 1029.13L965.749 1040.12C963 1040.12 963 1040.12 960.251 1040.12C957.502 1037.38 957.502 1034.63 957.502 1031.88C963 1029.13 965.75 1029.13 968.499 1029.13ZM635.842 1130.85V1141.85L624.845 1114.35C627.595 1117.1 633.093 1122.6 635.842 1130.85ZM630.344 1070.37C630.344 1081.36 633.093 1095.11 633.093 1106.11L622.096 1089.61V1084.11L627.595 1056.62C630.344 1062.12 630.344 1067.62 630.344 1070.37ZM787.05 710.218C784.301 710.218 778.802 712.967 776.053 710.218C781.551 690.973 784.301 674.478 789.799 655.233C789.799 674.478 787.05 693.723 787.05 710.218ZM993.242 957.648L979.496 963.147C979.496 960.397 979.496 957.648 982.245 954.899C984.994 952.15 987.743 954.899 993.242 957.648ZM806.294 853.178C800.796 853.178 798.047 850.428 792.548 850.428V836.682L806.294 839.432V853.178ZM894.27 1097.86C894.27 1106.11 891.52 1111.6 891.52 1119.85C886.022 1111.6 883.273 1103.36 880.523 1095.11L894.27 1097.86ZM946.505 1103.36C946.505 1108.86 943.756 1111.6 943.756 1117.1C943.756 1119.85 943.756 1122.6 941.006 1125.35C938.257 1117.1 927.26 1111.6 935.508 1103.36H946.505ZM699.075 1056.62C696.325 1067.62 690.827 1078.61 688.078 1089.61L685.328 1084.11L693.576 1056.62C693.576 1056.62 696.325 1056.62 699.075 1056.62ZM1026.23 451.791L1012.49 454.54C1015.24 440.794 1020.73 424.298 1023.48 410.552C1026.23 424.298 1026.23 438.045 1026.23 451.791ZM927.26 1246.32C930.01 1249.07 930.01 1254.56 932.759 1257.31C927.26 1260.06 921.762 1260.06 916.263 1260.06C916.263 1254.56 919.013 1249.07 919.013 1246.32C921.762 1246.32 924.511 1246.32 927.26 1246.32ZM611.099 1037.38C611.099 1040.13 611.099 1042.87 608.35 1045.62C605.601 1051.12 605.601 1053.87 602.852 1059.37C600.102 1051.12 594.604 1042.87 594.604 1034.63L611.099 1037.38ZM1116.96 927.407C1116.96 930.156 1114.21 930.156 1111.46 930.156L1103.21 897.165C1105.96 908.162 1111.46 916.41 1116.96 927.407ZM913.514 1108.86C910.765 1114.35 908.016 1122.6 905.267 1128.1C902.517 1133.6 902.517 1141.85 899.768 1147.34C894.27 1139.1 899.768 1130.85 899.768 1125.35L905.267 1100.61H908.016L913.514 1108.86ZM668.833 1070.37C666.084 1084.11 663.335 1095.11 657.836 1108.86C655.087 1089.61 652.338 1067.62 652.338 1045.62C655.087 1045.62 657.836 1045.62 657.836 1045.62L668.833 1070.37ZM1012.49 820.187C1012.49 822.936 1012.49 822.936 1009.74 825.685L993.242 822.936C1001.49 820.187 1006.99 820.187 1012.49 820.187ZM1042.73 820.187C1042.73 825.685 1042.73 828.435 1042.73 833.933C1037.23 833.933 1031.73 833.933 1026.23 831.184C1026.23 828.435 1026.23 825.685 1028.98 822.936C1031.73 817.438 1037.23 820.187 1042.73 820.187ZM1045.48 880.67C1048.23 888.918 1045.48 899.914 1045.48 908.162L1028.98 905.413C1028.98 902.664 1031.73 899.914 1031.73 897.165L1037.23 880.67H1045.48ZM993.242 1210.58C990.492 1210.58 984.994 1213.33 982.245 1210.58L973.997 1194.08C976.746 1185.83 979.496 1174.84 982.245 1166.59C984.994 1180.34 987.743 1196.83 993.242 1210.58ZM655.087 877.921C652.338 891.667 649.588 905.413 646.839 919.159C646.839 921.908 646.839 927.407 644.09 930.156C641.341 910.911 638.592 888.918 638.592 869.673C644.09 872.422 649.588 875.171 655.087 877.921ZM828.288 1227.07C828.288 1243.57 828.288 1257.31 831.037 1273.81C828.288 1273.81 828.288 1273.81 825.539 1273.81H811.793C814.542 1254.56 822.79 1232.57 825.539 1210.58C828.288 1216.08 825.539 1221.57 828.288 1227.07ZM1020.73 877.921C1017.98 886.168 1015.24 894.416 1012.49 902.664L1001.49 899.915L1009.74 877.921C1012.49 877.921 1015.24 877.921 1020.73 877.921ZM910.765 1210.58L905.267 1224.32C899.768 1227.07 894.27 1227.07 888.771 1227.07C891.52 1216.08 897.019 1202.33 899.768 1191.33C905.267 1196.83 910.765 1202.33 910.765 1210.58ZM897.019 1251.82C897.019 1257.31 894.27 1262.81 891.52 1265.56L875.025 1268.31L880.523 1254.56C886.022 1251.82 891.52 1251.82 897.019 1251.82ZM883.273 1144.6C880.523 1163.84 875.025 1183.08 869.527 1202.33C866.777 1185.83 866.777 1172.09 866.777 1155.59L861.279 1092.36L883.273 1144.6ZM781.551 754.206C781.551 762.453 781.551 767.952 778.802 776.199C773.304 776.199 765.056 773.45 759.557 770.701C762.307 762.453 762.307 754.206 765.056 748.707L781.551 754.206ZM998.74 1045.62C993.242 1045.62 987.743 1045.62 984.994 1042.87C984.994 1034.63 987.743 1029.13 990.492 1020.88C993.242 1018.13 1001.49 1018.13 1004.24 1018.13L998.74 1045.62ZM553.366 1282.06C553.366 1284.81 553.366 1284.81 553.366 1282.06C556.115 1287.56 558.864 1290.3 558.864 1295.8C553.366 1298.55 542.369 1298.55 536.87 1298.55V1293.05C539.619 1284.81 542.369 1279.31 545.118 1273.81C547.867 1273.81 550.616 1276.56 553.366 1282.06ZM1034.48 1007.13C1031.73 1020.88 1028.98 1034.63 1026.23 1048.37C1020.73 1048.37 1015.24 1045.62 1012.49 1045.62V1042.87L1020.73 1009.88C1026.23 1009.88 1028.98 1007.13 1034.48 1007.13ZM932.759 1144.6C927.26 1158.34 924.511 1172.09 919.013 1185.83C916.263 1180.34 913.514 1174.84 910.765 1166.59C916.263 1152.84 919.013 1139.1 924.511 1128.1L932.759 1144.6ZM971.248 1136.35L960.251 1169.34L949.254 1147.34V1144.6L963 1106.11C965.749 1117.1 968.499 1125.35 971.248 1136.35ZM1114.21 1111.6C1119.71 1133.6 1122.46 1158.34 1125.2 1180.34L1130.7 1221.57C1127.95 1224.32 1119.71 1224.32 1114.21 1224.32C1111.46 1194.08 1108.71 1155.59 1105.96 1128.1V1114.35C1111.46 1111.6 1114.21 1111.6 1114.21 1111.6ZM976.746 1240.82C979.496 1243.57 979.496 1249.07 982.245 1251.82C973.997 1254.56 965.749 1254.56 957.502 1257.31C957.502 1251.82 960.251 1246.32 960.251 1243.57C965.75 1240.82 971.248 1240.82 976.746 1240.82ZM954.753 1194.08C952.003 1202.33 949.254 1210.58 946.505 1216.08C941.006 1216.08 938.257 1218.82 932.759 1218.82C930.01 1216.08 927.26 1210.58 930.01 1205.08L941.006 1169.34L954.753 1194.08ZM693.576 1218.82C690.827 1227.07 688.078 1235.32 682.579 1243.57H677.081C674.332 1238.07 671.582 1232.57 671.582 1227.07C671.582 1218.82 668.833 1207.83 668.833 1199.58L671.582 1188.58C679.83 1196.83 685.328 1207.83 693.576 1218.82ZM1015.24 1114.35C1009.74 1136.35 1009.74 1158.34 1001.49 1180.34C995.991 1166.59 993.242 1150.09 987.743 1133.6C990.493 1125.35 993.242 1117.1 993.242 1108.86H1012.49L1015.24 1114.35ZM1116.96 998.887C1122.46 1020.88 1130.7 1045.62 1136.2 1067.62C1133.45 1067.62 1127.95 1067.62 1125.2 1064.87C1122.46 1056.62 1122.46 1045.62 1119.71 1037.38L1111.46 996.137C1111.46 996.137 1116.96 993.388 1116.96 998.887ZM968.499 952.15C965.75 957.648 965.749 968.645 957.502 968.645L943.756 971.394C943.756 965.896 941.006 963.147 941.006 957.648C943.756 952.15 943.756 946.651 943.756 943.902L968.499 952.15ZM877.774 930.156C875.025 943.902 872.276 957.648 869.527 971.394C861.279 960.397 858.53 949.401 853.031 938.404C853.031 932.905 850.282 930.156 853.031 924.658C858.53 927.407 869.526 927.407 877.774 930.156ZM734.815 1268.31L707.322 1224.32V1221.57L712.821 1207.83C721.068 1227.07 729.316 1249.07 734.815 1268.31ZM528.623 1273.81L520.375 1298.55C517.626 1301.3 512.127 1298.55 506.629 1301.3H498.381C501.13 1293.05 503.879 1282.06 506.629 1271.06C514.876 1273.81 523.124 1273.81 528.623 1273.81ZM825.539 611.246C833.787 644.236 844.784 677.227 853.031 707.469C847.533 707.469 839.285 707.469 831.037 707.469C828.288 699.221 831.037 690.973 828.288 682.726C828.288 657.983 825.539 635.989 825.539 611.246ZM784.301 462.788C781.551 462.788 776.053 462.788 776.053 465.537C773.304 473.784 781.551 482.032 787.05 490.28C787.05 495.778 787.05 501.277 787.05 506.775C776.053 506.775 767.805 504.026 759.557 501.277C767.805 468.286 773.304 435.295 781.551 402.305L784.301 462.788ZM817.291 1084.11C820.041 1111.6 820.04 1139.1 822.79 1166.59C814.542 1202.33 803.545 1238.07 795.297 1276.56C795.297 1262.81 798.047 1246.32 798.047 1229.82L806.294 1136.35C809.044 1119.85 809.044 1100.61 811.793 1084.11C814.542 1081.36 817.291 1081.36 817.291 1084.11ZM809.044 910.911L811.793 960.398L809.044 968.645L789.799 1009.88C787.05 1009.88 784.301 1009.88 781.551 1009.88C781.551 998.887 784.301 990.639 781.551 982.391C784.301 957.648 784.301 935.654 787.05 910.911C795.297 910.911 800.796 910.911 809.044 910.911ZM1028.98 506.775V515.023C1017.98 515.023 1009.74 517.772 998.74 517.772L1001.49 504.026C1009.74 501.277 1020.73 501.277 1028.98 501.277V506.775ZM776.053 831.184V847.679C765.056 847.679 756.808 842.181 745.811 842.181L751.31 828.435C754.059 825.685 756.808 828.435 759.557 828.435C762.307 825.685 770.554 828.435 776.053 831.184ZM707.322 1185.83L696.325 1207.83L674.331 1172.09C679.83 1158.34 682.579 1144.6 688.078 1130.85V1133.6L707.322 1185.83ZM748.561 1185.83C748.561 1207.83 745.811 1229.82 743.062 1251.82C734.814 1232.57 729.316 1210.58 721.068 1188.58C732.065 1166.59 743.062 1141.85 754.059 1119.85C754.059 1141.85 751.31 1166.59 748.561 1185.83ZM798.047 1078.61C795.297 1097.86 795.297 1114.35 792.548 1133.6L778.802 1271.06V1276.56C773.304 1276.56 770.554 1276.56 765.056 1276.56L770.554 1174.84L776.053 1070.37L798.047 1078.61ZM919.013 762.453C919.013 765.202 919.013 767.952 916.263 770.701C905.266 770.701 897.019 773.45 886.022 773.45C883.273 767.952 883.273 762.453 883.273 756.955C897.019 759.704 908.016 762.453 919.013 762.453ZM866.777 756.955C869.527 762.453 872.276 767.952 872.276 776.199C861.279 778.949 850.282 778.949 839.285 778.949H836.536C836.536 773.45 836.536 765.202 836.536 759.704C847.533 756.955 858.53 756.955 866.777 756.955ZM921.762 858.676C930.01 861.425 938.257 861.425 946.505 864.175V866.924L943.756 886.168H941.006L916.263 880.67C913.514 875.172 910.765 866.924 910.765 861.425C910.765 858.676 910.765 855.927 913.514 855.927C916.263 855.927 919.013 858.676 921.762 858.676ZM1031.73 611.246C1034.48 641.487 1034.48 668.98 1034.48 699.221L998.74 701.97L1004.24 674.478L1017.98 611.246C1023.48 611.246 1028.98 611.246 1031.73 611.246ZM770.554 916.41L762.307 1007.13C754.059 1007.13 743.062 1004.39 732.065 1001.64V998.887L759.557 919.159C759.557 916.41 762.307 910.911 765.056 908.162H770.554V916.41ZM624.845 982.391C611.099 982.391 600.102 976.893 589.105 976.893C591.855 960.397 594.604 946.651 600.102 930.156C605.601 908.162 611.099 886.168 616.598 864.175C619.347 905.413 622.096 943.902 624.845 982.391ZM971.248 762.453C971.248 765.202 971.248 770.701 965.749 767.952C954.753 767.952 943.756 770.701 932.759 770.701C932.759 767.952 932.759 765.202 932.759 762.453H935.508C949.254 762.453 960.251 762.453 971.248 762.453ZM1180.19 737.71C1182.94 743.209 1188.44 748.707 1191.19 754.206C1180.19 756.955 1169.19 756.955 1158.2 756.955C1155.45 754.206 1155.45 745.958 1149.95 743.209L1180.19 737.71ZM993.242 875.171L987.743 897.165H984.994L954.753 891.667V888.918L960.251 869.673C965.75 866.924 968.499 872.422 973.997 872.422C982.245 872.422 987.743 872.422 993.242 875.171ZM1053.72 380.311C1067.47 402.305 1081.22 427.048 1092.21 451.791H1059.22C1059.22 443.543 1059.22 438.045 1059.22 432.546L1053.72 380.311ZM1056.47 1227.07C1056.47 1229.82 1056.47 1232.57 1056.47 1235.32C1042.73 1238.07 1028.98 1240.82 1017.98 1243.57C1015.24 1240.82 1015.24 1235.32 1015.24 1232.57C1028.98 1229.82 1042.73 1229.82 1056.47 1227.07ZM649.588 798.193C657.836 800.942 666.084 803.692 674.331 806.441C674.331 811.939 671.582 817.438 671.582 822.936C657.836 820.187 646.839 817.438 633.093 814.689C633.093 806.441 630.344 798.193 630.344 789.945V787.196C635.842 789.945 641.341 795.444 649.588 798.193ZM1053.72 1111.6L1056.47 1174.84C1056.47 1183.08 1059.22 1191.33 1056.47 1199.58C1053.72 1199.58 1048.23 1199.58 1045.48 1202.33C1034.48 1202.33 1026.23 1205.08 1015.24 1207.83C1015.24 1194.08 1020.73 1183.08 1020.73 1169.34L1031.73 1108.86C1039.98 1108.86 1048.23 1108.86 1053.72 1111.6ZM1012.49 594.75C998.74 594.75 987.743 594.75 979.496 594.75C982.245 586.503 984.994 578.255 984.994 570.007C990.492 564.509 995.991 559.01 995.991 553.512C1001.49 559.01 1012.49 559.01 1020.73 556.261C1017.98 567.258 1015.24 581.004 1012.49 594.75ZM729.316 1282.06C718.319 1282.06 704.573 1282.06 693.576 1284.81L690.827 1282.06L685.328 1268.31C690.827 1257.31 696.325 1246.32 701.824 1235.32L729.316 1282.06ZM919.013 938.404C921.762 946.651 924.511 954.899 927.26 965.896L924.511 976.893C910.765 979.642 897.019 985.141 883.273 987.89C886.022 971.394 891.52 952.15 894.27 935.654L919.013 938.404ZM754.059 908.162C748.561 924.658 743.062 941.153 737.564 957.648L723.818 998.887C718.319 998.887 712.821 998.887 710.071 998.887V996.137C718.319 968.645 723.818 938.404 732.065 908.162L734.815 902.664L754.059 908.162ZM622.096 1172.09C627.595 1185.83 633.093 1196.83 635.842 1210.58L627.595 1246.32V1249.07C616.598 1249.07 602.852 1251.82 591.855 1251.82C597.353 1218.82 608.35 1183.08 616.598 1150.09C616.598 1155.59 619.347 1161.09 622.096 1172.09ZM1081.22 608.497L1116.96 688.224L1119.71 693.723H1116.96C1103.21 693.723 1092.21 693.723 1078.47 696.472L1070.22 611.246C1072.97 608.497 1078.47 608.497 1081.22 608.497ZM723.818 817.438C726.567 817.438 732.065 817.438 734.815 820.187L729.316 836.682L685.328 825.685C685.328 820.187 688.078 814.688 688.078 811.939C701.824 814.688 712.821 817.438 723.818 817.438ZM600.102 1117.1L572.61 1235.32L569.861 1249.07C564.362 1249.07 556.115 1251.82 550.616 1249.07C564.362 1202.33 580.858 1152.84 597.353 1106.11L600.102 1117.1ZM1037.23 754.206C1037.23 756.955 1037.23 765.202 1031.73 765.202C1015.24 765.202 1001.49 767.952 984.994 767.952C984.994 765.202 984.994 762.453 987.743 759.704C1004.24 756.955 1020.73 754.206 1037.23 754.206ZM891.52 853.178C894.27 855.927 894.27 858.676 894.27 861.425L891.52 875.171H888.771L842.034 864.175C839.285 858.676 842.034 855.927 839.285 850.428H842.034C861.279 853.178 877.774 853.178 891.52 853.178ZM789.799 594.75C773.304 594.75 754.059 594.75 737.564 594.75C743.062 578.255 745.811 559.01 751.31 542.515C754.059 542.515 756.808 542.515 759.557 542.515L767.805 545.264C770.554 545.264 773.304 545.264 776.053 545.264C781.551 545.264 784.301 548.014 789.799 548.014C789.799 550.763 789.799 556.261 789.799 561.76V583.754C789.799 586.503 789.799 592.001 789.799 594.75ZM1006.99 608.497C1001.49 638.738 993.242 668.98 984.994 699.221C973.997 701.97 960.251 701.97 949.254 701.97V699.221C957.502 668.98 965.749 638.738 971.248 608.497C982.245 608.497 993.242 608.497 1006.99 608.497ZM1092.21 611.246C1111.46 638.738 1127.95 666.23 1147.2 693.723C1141.7 696.472 1133.45 693.723 1127.95 693.723C1114.21 666.23 1103.21 638.738 1089.46 611.246H1092.21ZM1138.95 743.209C1141.7 748.707 1144.45 751.456 1144.45 756.955C1122.46 756.955 1103.21 762.453 1081.22 762.453C1081.22 759.704 1078.47 756.955 1081.22 754.206C1103.21 751.456 1119.71 745.958 1138.95 743.209ZM756.808 1067.62C759.558 1070.37 756.808 1073.12 759.557 1075.86C745.811 1108.86 729.316 1139.1 715.57 1169.34C710.071 1150.09 701.824 1133.6 696.325 1114.35C701.824 1095.11 707.322 1078.61 715.57 1059.37C718.319 1059.37 721.068 1059.37 721.068 1059.37C734.814 1062.12 745.811 1064.87 756.808 1067.62ZM1149.95 996.137C1163.69 1023.63 1177.44 1051.12 1191.19 1078.61C1177.44 1078.61 1163.69 1073.12 1149.95 1073.12C1144.45 1056.62 1141.7 1040.12 1136.2 1026.38C1133.45 1015.38 1130.7 1004.39 1125.2 993.388C1130.7 990.639 1136.2 987.89 1141.7 987.89C1144.45 987.89 1147.2 990.639 1149.95 996.137ZM710.071 894.416L715.57 897.165C710.071 930.156 699.075 960.397 690.827 993.388L655.087 987.89L652.338 979.642C660.585 946.651 666.084 916.41 674.331 883.419C682.579 886.168 696.325 891.667 710.071 894.416ZM1248.92 729.463C1251.67 734.961 1254.42 740.459 1257.17 745.958L1202.18 751.456L1199.43 748.707C1196.68 743.209 1191.19 737.71 1188.44 732.212C1196.68 729.463 1207.68 729.462 1215.93 726.713C1226.93 726.713 1237.92 729.463 1248.92 729.463ZM1210.43 1117.1C1224.18 1141.85 1229.68 1169.34 1237.92 1196.83C1240.67 1202.33 1237.92 1205.08 1237.92 1210.58C1232.42 1216.08 1226.93 1221.57 1218.68 1218.82C1218.68 1216.08 1221.43 1213.33 1221.43 1207.83L1218.68 1191.33C1215.93 1188.58 1213.18 1183.08 1210.43 1180.34C1202.18 1177.59 1193.94 1183.08 1185.69 1180.34C1177.44 1158.34 1171.94 1136.35 1166.44 1114.35C1166.44 1111.6 1169.19 1114.35 1169.19 1111.6C1180.19 1114.35 1196.68 1117.1 1210.43 1117.1ZM591.855 1095.11C572.61 1147.34 556.115 1196.83 536.87 1249.07C528.623 1249.07 520.375 1249.07 514.876 1249.07V1246.32L556.115 1086.86C558.864 1086.86 556.115 1084.11 556.115 1081.36L569.861 1031.88C578.109 1056.62 586.356 1075.86 591.855 1095.11ZM784.301 611.246C778.802 635.989 773.304 663.481 765.056 688.224L759.557 710.218C748.561 712.967 737.564 710.218 726.567 712.967C723.818 712.967 721.068 712.967 721.068 715.716C721.068 721.215 723.818 729.463 726.567 734.961C732.065 740.459 740.313 745.958 748.561 748.707C748.561 756.955 745.811 762.453 743.062 770.701C726.567 767.952 712.821 765.202 696.325 759.704V756.955L704.573 715.716L723.818 630.49C726.567 624.992 726.567 616.744 729.316 611.246C751.31 611.246 767.805 611.246 784.301 611.246ZM1281.91 787.196C1301.16 814.689 1314.9 844.93 1331.4 875.171L1292.91 883.419H1290.16C1270.91 855.927 1251.67 828.435 1232.42 798.193C1248.92 795.444 1265.42 792.695 1281.91 787.196ZM1221.43 806.441C1237.92 833.933 1259.92 861.425 1276.41 888.918C1257.17 894.416 1237.92 897.165 1221.43 902.664C1207.68 869.673 1191.19 839.432 1177.44 806.441C1191.19 806.441 1207.68 806.441 1221.43 806.441ZM1353.39 913.661C1372.63 949.401 1394.63 982.391 1408.37 1018.13C1413.87 1029.13 1416.62 1042.87 1422.12 1056.62C1408.37 1042.87 1394.63 1029.13 1380.88 1012.63C1375.38 1004.39 1367.14 996.137 1364.39 987.89L1320.4 921.908V919.159C1325.9 916.41 1331.4 910.911 1339.64 910.911C1342.39 913.661 1347.89 913.661 1353.39 913.661ZM1427.62 1125.35C1422.12 1133.6 1413.87 1141.85 1405.63 1150.09L1402.88 1152.84C1383.63 1174.84 1364.39 1194.08 1347.89 1216.08C1339.64 1216.08 1328.65 1216.08 1320.4 1216.08C1350.64 1188.58 1383.63 1161.09 1416.62 1133.6C1416.62 1130.85 1422.12 1128.1 1427.62 1125.35ZM1171.94 592.001C1144.45 592.001 1119.71 592.001 1094.96 592.001L1075.72 564.509C1072.97 556.261 1061.97 550.763 1064.72 542.515C1070.22 542.515 1078.47 539.766 1083.97 537.017C1089.46 534.267 1092.21 528.769 1092.21 523.271C1092.21 520.521 1092.21 517.772 1092.21 515.023C1089.46 512.274 1086.72 512.274 1083.97 515.023C1078.47 515.023 1070.22 515.023 1064.72 515.023C1064.72 512.274 1061.97 506.775 1064.72 506.775C1083.97 509.524 1105.96 509.524 1125.2 509.524C1141.7 534.267 1158.2 564.509 1171.94 592.001ZM1182.94 608.497C1196.68 635.989 1213.18 660.732 1226.93 688.224L1160.94 690.973C1147.2 671.729 1136.2 652.484 1122.46 635.989L1105.96 611.246C1130.7 608.497 1155.45 608.497 1182.94 608.497ZM960.251 611.246C957.502 627.741 952.003 646.986 946.505 663.481C943.756 677.227 938.257 693.723 935.508 707.469C913.514 710.218 891.52 707.469 866.777 710.218L864.028 707.469L842.034 624.992C842.034 622.243 839.285 616.744 839.285 613.995C883.273 613.995 913.514 613.995 919.013 613.995H921.762C927.26 624.992 930.01 638.738 935.508 652.484H938.257C943.756 641.487 946.505 627.741 952.003 616.744L954.753 613.995C957.502 611.246 960.251 611.246 960.251 611.246ZM1207.68 905.413C1196.68 910.911 1182.94 910.911 1171.94 916.41C1158.2 921.908 1141.7 924.658 1125.2 927.407C1116.96 913.661 1111.46 899.915 1103.21 886.168C1105.96 883.419 1108.71 886.168 1111.46 883.419C1116.96 883.419 1119.71 880.67 1122.46 880.67C1130.7 877.921 1136.2 872.422 1141.7 869.673L1144.45 864.175C1144.45 861.425 1141.7 858.676 1138.95 855.927C1119.71 853.178 1100.46 847.679 1081.22 844.93V842.181V825.685C1108.71 822.936 1133.45 809.19 1160.94 809.19L1207.68 905.413ZM965.749 594.75C954.753 594.75 946.505 594.75 946.505 594.75C943.756 600.249 941.006 616.744 938.257 616.744C938.257 613.995 932.759 597.5 932.759 594.75C930.01 594.75 891.52 594.75 836.536 594.75C833.787 581.004 831.037 570.007 825.539 556.261C833.787 559.01 842.034 561.76 850.282 564.509C855.78 561.76 861.279 564.509 866.777 564.509C897.019 567.258 927.26 567.258 960.251 570.007C963 572.757 965.75 570.007 968.499 572.757V575.506C968.499 581.004 965.749 586.503 965.749 594.75ZM1243.42 982.391L1279.16 1062.12C1290.16 1095.11 1298.41 1125.35 1306.65 1158.34C1309.4 1163.84 1303.9 1166.59 1301.16 1172.09C1295.66 1174.84 1287.41 1180.34 1279.16 1177.59C1268.16 1169.34 1262.67 1158.34 1254.42 1147.34C1246.17 1136.35 1237.92 1125.35 1232.42 1114.35C1237.92 1114.35 1240.67 1111.6 1243.42 1108.86C1246.17 1103.36 1248.92 1097.86 1248.92 1092.36C1248.92 1089.61 1246.17 1089.61 1246.17 1089.61C1235.17 1089.61 1224.18 1084.11 1210.43 1084.11L1207.68 1081.36C1191.19 1048.37 1171.94 1018.13 1155.45 985.141C1169.19 982.391 1180.19 982.391 1193.94 976.893L1229.68 960.398C1235.17 963.147 1237.92 974.144 1243.42 982.391ZM1306.65 930.156C1325.9 954.899 1342.39 982.391 1358.89 1009.88C1358.89 1015.38 1364.39 1015.38 1364.39 1020.88C1372.63 1037.38 1380.88 1053.87 1389.13 1073.12C1394.63 1086.86 1400.13 1097.86 1402.88 1111.6C1397.38 1119.85 1389.13 1125.35 1380.88 1128.1C1372.63 1133.6 1361.64 1141.85 1350.64 1139.1C1334.15 1122.6 1320.4 1103.36 1309.4 1081.36C1301.16 1067.62 1295.66 1056.62 1287.41 1042.87C1281.91 1034.63 1257.17 979.642 1246.17 952.15C1246.17 949.401 1248.92 949.401 1248.92 949.401C1265.42 935.654 1284.66 935.654 1306.65 930.156ZM880.523 501.277C888.771 504.026 897.019 504.026 905.267 506.775C913.514 506.775 921.762 506.775 930.01 506.775H941.006C954.753 504.026 971.248 504.026 984.994 504.026C984.994 506.775 984.994 512.274 982.245 515.023L976.746 537.017C927.26 531.518 817.291 512.274 817.291 512.274C817.291 509.524 814.542 504.026 817.291 498.527C839.285 501.277 861.279 501.277 880.523 501.277ZM1188.44 592.001C1171.94 564.509 1155.45 534.267 1138.95 504.026C1155.45 504.026 1171.94 501.277 1185.69 498.527C1196.68 495.778 1204.93 487.531 1215.93 482.032C1226.93 479.283 1235.17 479.283 1246.17 476.534C1254.42 476.534 1262.67 473.784 1270.91 471.035C1276.41 468.286 1284.66 468.286 1287.41 462.788C1292.91 460.038 1292.91 454.54 1292.91 449.041C1292.91 446.292 1290.16 440.794 1287.41 440.794L1105.96 449.041L1053.72 355.568C1053.72 355.568 1050.98 352.819 1053.72 352.819C1061.97 352.819 1067.47 350.069 1075.72 347.32C1105.96 330.825 1141.7 333.574 1174.69 325.326C1180.19 322.577 1188.44 319.828 1193.94 317.079C1199.43 311.58 1204.93 308.831 1210.43 300.583C1213.18 297.834 1213.18 289.586 1210.43 286.837C1207.68 284.088 1204.93 281.339 1202.18 284.088C1152.7 286.837 1048.23 295.085 1045.48 292.336C1042.73 278.589 1042.73 264.843 1042.73 251.097C1042.73 242.849 1039.98 234.602 1042.73 223.605C1039.98 220.856 1039.98 218.106 1039.98 218.106C1037.23 212.608 1028.98 215.357 1023.48 215.357C1017.98 218.106 1017.98 223.605 1017.98 229.103C1020.73 248.348 1020.73 270.342 1020.73 292.336C984.994 295.085 869.526 303.332 850.282 303.332C847.533 311.58 850.282 319.828 855.78 325.326C872.276 339.072 891.52 341.822 913.514 341.822C930.01 341.822 946.505 339.072 963 336.323C971.248 333.574 979.496 339.072 987.743 341.822C998.74 344.571 1009.74 344.571 1020.73 347.32C1023.48 347.32 1023.48 352.819 1023.48 355.568C1020.73 366.565 1017.98 377.562 1015.24 391.308C1009.74 410.552 1006.99 429.797 998.74 449.041C998.74 449.041 853.031 454.54 814.542 457.289H811.793L809.044 418.8V402.305C814.542 402.305 822.79 405.054 828.288 405.054C836.536 405.054 844.784 407.803 853.031 407.803C866.777 410.552 877.774 402.305 888.771 405.054C902.517 405.054 916.263 407.803 930.01 407.803C938.257 410.552 949.254 407.803 957.502 402.305C963 399.555 965.749 391.308 965.749 385.809C913.514 372.063 858.53 366.565 803.545 352.819H800.796C798.047 322.577 798.047 292.336 795.297 262.094L792.548 259.345C789.799 253.846 781.551 256.596 778.802 256.596C773.304 259.345 770.554 262.094 770.554 267.593C767.805 270.342 770.554 275.84 770.554 278.589C770.554 286.837 773.304 295.085 770.554 306.082C773.304 319.828 773.304 333.574 773.304 347.32C773.304 347.32 633.093 319.828 605.601 314.329H602.852C600.102 314.329 602.852 322.577 602.852 325.326C605.601 333.574 611.099 341.822 619.347 347.32C630.344 350.069 641.341 355.568 655.087 358.317C663.335 361.066 671.582 363.815 679.83 363.815C690.827 366.565 704.573 363.815 715.57 369.314C732.065 380.311 745.811 388.558 765.056 391.308C756.808 421.549 751.31 451.791 743.062 482.032L740.313 493.029C740.313 493.029 608.35 471.035 602.852 471.035L605.601 487.531C605.601 498.527 630.344 498.527 644.09 501.277C666.084 501.277 685.328 504.026 704.573 512.274C712.821 517.772 723.818 523.271 734.815 526.02V528.769L726.567 561.76C723.818 570.007 723.818 575.506 721.068 583.754C578.109 583.754 413.155 583.754 418.653 583.754C418.653 583.754 407.657 682.726 404.907 707.469L402.158 710.218C382.914 723.964 319.681 765.202 308.684 770.701C300.437 770.701 292.189 767.952 283.941 762.453C283.941 767.952 283.941 776.199 283.941 781.698C283.941 781.698 305.935 792.695 316.932 784.447C349.923 762.453 421.403 718.466 421.403 715.716C426.901 679.976 429.65 600.249 435.149 600.249C435.149 600.249 583.607 600.249 715.57 600.249C704.573 649.735 693.576 696.472 682.579 745.958C663.335 740.459 644.09 737.71 624.845 734.961C622.096 710.218 619.347 688.224 619.347 663.481C616.598 663.481 619.347 660.732 616.598 657.983C613.849 655.233 611.099 655.233 608.35 655.233C605.601 655.233 602.852 660.732 602.852 663.481C602.852 666.23 605.601 671.729 605.601 677.227L608.35 712.967C608.35 718.466 611.099 723.964 608.35 729.463C572.61 721.215 536.87 715.716 503.879 707.469H498.381C490.133 710.218 495.632 712.967 492.883 718.466C495.632 732.212 506.629 745.958 520.375 754.206C539.619 765.202 564.362 767.952 586.356 770.701C594.604 770.701 602.852 773.45 611.099 773.45C611.099 781.698 613.849 789.945 613.849 798.193C572.61 789.945 531.372 778.949 487.384 767.952C484.635 767.952 479.136 767.952 476.387 765.202C470.889 767.952 470.889 773.45 470.889 776.199C470.889 781.698 470.889 787.196 473.638 789.945C481.886 798.193 492.883 800.942 501.13 806.441C514.876 811.939 528.623 814.688 542.369 820.187C558.864 828.435 578.109 828.435 594.604 839.432C600.102 842.181 602.852 842.181 608.35 844.93C597.353 880.67 589.105 919.159 578.109 954.899L575.359 957.648C572.61 957.648 572.61 957.648 572.61 957.648C564.362 938.404 556.115 916.41 547.867 894.416C547.867 894.416 542.369 883.419 539.619 880.67C534.121 880.67 531.372 877.921 528.623 883.419C525.873 886.168 525.873 888.918 525.873 891.667C534.121 910.911 539.619 932.905 547.867 952.15C514.876 946.651 481.886 941.153 451.644 935.654C448.895 935.654 443.397 935.654 443.397 938.404C443.397 943.902 440.647 949.401 440.647 957.648C443.397 960.397 443.397 963.147 446.146 963.147C451.644 965.896 457.143 965.896 462.641 968.645C473.638 971.394 487.384 974.144 498.381 979.642C506.629 982.391 514.876 987.89 523.124 993.388C534.121 998.887 547.867 1001.64 561.613 1007.13C558.864 1015.38 556.115 1026.38 553.366 1034.63L506.629 1202.33L498.381 1232.57L495.632 1235.32C487.384 1235.32 476.387 1235.32 468.14 1238.07C459.892 1238.07 451.644 1238.07 440.647 1240.82C437.898 1243.57 435.149 1249.07 440.647 1254.56C443.397 1257.31 446.146 1260.06 448.895 1260.06H490.133H492.883L484.635 1287.56L481.886 1290.3L465.39 1293.05C457.143 1293.05 448.895 1295.8 440.647 1295.8C437.898 1295.8 435.149 1295.8 435.149 1298.55C437.898 1306.8 437.898 1315.05 440.647 1320.55C448.895 1326.04 454.393 1328.79 459.892 1334.29C481.886 1353.54 492.883 1375.53 501.13 1400.27C501.13 1403.02 503.879 1414.02 506.629 1414.02C503.879 1414.02 589.105 1425.02 608.35 1425.02C638.592 1430.52 831.037 1430.52 831.037 1430.52C886.022 1433.26 930.01 1430.52 982.245 1427.77C1026.23 1427.77 1323.15 1408.52 1325.9 1394.78C1325.9 1392.03 1336.9 1367.28 1342.39 1353.54C1347.89 1342.54 1350.64 1320.55 1350.64 1315.05C1350.64 1309.55 1353.39 1306.8 1353.39 1304.05C1358.89 1284.81 1361.64 1265.56 1372.64 1249.07C1375.38 1240.82 1383.63 1235.32 1383.63 1227.07C1380.88 1224.32 1375.38 1218.82 1375.38 1216.08C1394.63 1185.83 1419.37 1158.34 1441.37 1130.85L1504.6 1048.37V1042.87C1504.6 1040.13 1501.85 1037.38 1499.1 1037.38C1496.35 1034.63 1493.6 1037.38 1490.85 1037.38C1485.35 1042.87 1479.85 1051.12 1474.36 1053.87C1468.86 1051.12 1466.11 1042.87 1457.86 1037.38C1435.87 1012.63 1422.12 987.89 1405.63 963.147C1389.13 941.153 1378.13 919.159 1364.39 894.416C1372.63 891.667 1380.88 888.918 1386.38 886.168C1397.38 880.67 1408.37 872.422 1416.62 861.425C1419.37 855.927 1419.37 850.428 1413.87 847.679C1413.87 847.679 1411.12 844.93 1408.37 844.93C1386.38 850.428 1361.64 855.927 1339.64 861.425C1323.15 833.933 1306.65 803.692 1290.16 773.45C1303.9 770.701 1320.4 770.701 1336.89 767.952C1347.89 765.202 1358.89 756.955 1367.14 748.707C1369.89 743.209 1369.89 740.459 1367.14 734.961C1367.14 732.212 1361.64 734.961 1361.64 732.212C1334.15 734.961 1309.4 737.71 1281.91 737.71C1276.41 737.71 1273.66 740.459 1268.16 737.71L1259.92 721.215C1273.66 718.466 1290.16 718.466 1303.9 712.967C1314.9 707.469 1331.4 704.719 1336.89 690.973C1339.64 685.475 1342.39 682.726 1336.89 677.227C1334.15 677.227 1331.4 674.478 1325.9 674.478L1235.17 679.976L1218.68 652.484C1210.43 635.989 1199.43 619.493 1191.19 602.998C1273.66 602.998 1347.89 602.998 1347.89 602.998C1347.89 602.998 1358.89 657.983 1364.39 685.475L1400.13 707.469C1435.87 715.716 1435.87 715.716 1455.11 721.215C1455.11 721.215 1474.36 770.701 1482.6 787.196C1490.85 787.196 1496.35 787.196 1512.85 787.196V767.952C1507.35 767.952 1493.6 767.952 1493.6 767.952C1485.35 743.209 1477.11 732.212 1468.86 707.469C1452.36 701.97 1411.12 693.723 1408.37 693.723C1397.38 688.224 1389.13 682.726 1378.13 677.227C1369.89 644.237 1358.89 589.252 1358.89 589.252C1356.14 592.001 1276.41 592.001 1188.44 592.001Z" fill="#898989"></path></g><defs><clipPath id="clip0_1805_3190"><rect width="1767.75" height="1776" fill="white" transform="translate(0.769531 0.912109)"></rect></clipPath></defs></svg> 