<?xml version="1.0" encoding="UTF-8"?> <svg xmlns="http://www.w3.org/2000/svg" width="276" height="64" viewBox="0 0 276 64" fill="none"><path fill-rule="evenodd" clip-rule="evenodd" d="M18.0927 17.7128L21.1895 9.29357H23.4648V8.72266H0V9.29357H2.76038L11.4526 33.0543H11.9377L16.0039 21.9589L20.1821 33.0543H20.6671L29.396 9.29357H31.9711V8.72266H25.5169V9.29357H28.7251L21.8238 28.0238L18.0927 17.7128ZM15.6681 20.9956L11.4526 9.29357H6.3043L13.1309 27.9523L15.6681 20.9956ZM14.9965 9.29357L17.7569 16.7856L20.5178 9.29357H14.9965Z" fill="#646464"></path><path d="M40.963 9.29357V32.1265H44.1705V32.6975H34.1357V32.1265H37.3438V9.29357H34.1357V8.72266H44.1705V9.29357H40.963Z" fill="#646464"></path><path d="M49.9894 32.1227V9.28967H46.7812V8.71875H54.1303L65.6954 26.8073V9.28967H62.4867V8.71875H69.5005V9.28967H66.2918V32.979H65.0238L50.5864 10.3244V32.1227H53.7944V32.6936H46.7812V32.1227H49.9894Z" fill="#646464"></path><path d="M78.1477 32.8359H84.0829C84.9432 32.8359 85.656 32.6881 86.2213 32.3905C86.7866 32.0941 87.253 31.6667 87.6216 31.1104C87.9904 30.5536 88.2853 29.8916 88.5059 29.1244C88.7277 28.358 88.936 27.5041 89.1333 26.5637C89.231 26.044 89.3668 25.7848 89.5382 25.7848C89.7349 25.7848 89.8338 26.0812 89.8338 26.6751V32.242C89.8338 33.0345 89.4768 33.4299 88.764 33.4299H71.4388V32.8359H74.5727V9.08222H71.4014V8.48828H87.8798C88.4943 8.48828 88.8015 8.78525 88.8015 9.37918V15.021C88.8015 15.3427 88.7149 15.5029 88.5434 15.5029C88.3468 15.5029 88.2478 15.3303 88.2478 14.9838C88.2238 14.44 88.1317 13.8269 87.9719 13.1464C87.8122 12.4658 87.5602 11.823 87.2161 11.2167C86.8714 10.6104 86.4173 10.103 85.8526 9.69471C85.2867 9.287 84.5868 9.08222 83.7511 9.08222H78.1477V19.994H81.0603C81.6004 19.994 82.0306 19.9141 82.3507 19.7533C82.6696 19.5924 82.9222 19.3635 83.1058 19.0665C83.2903 18.7696 83.4321 18.4113 83.5304 17.99C83.6276 17.5693 83.7259 17.0991 83.8248 16.58C83.8986 16.2336 83.9969 16.0604 84.1198 16.0604C84.2672 16.0604 84.341 16.2082 84.341 16.5052V24.0395C84.341 24.3618 84.2672 24.522 84.1198 24.522C83.9969 24.522 83.8986 24.3494 83.8248 24.003C83.7259 23.4833 83.6276 23.0131 83.5304 22.5918C83.4321 22.1723 83.2903 21.8129 83.1058 21.5159C82.9222 21.2196 82.6696 20.9906 82.3507 20.8297C82.0306 20.6689 81.6004 20.5879 81.0603 20.5879H78.1477V32.8359Z" fill="#646464"></path><path d="M95.7142 32.8359V9.08222H92.7451V8.48828H99.6114L106.438 27.5654L113.045 8.48828H119.908V9.08222H116.94V32.8359H119.908V33.4299H110.372V32.8359H113.34V9.56479L105.066 33.4299H104.583L96.3081 9.71328V32.8359H99.2764V33.4299H92.7451V32.8359H95.7142Z" fill="#878B8F"></path><path fill-rule="evenodd" clip-rule="evenodd" d="M133.01 8L124.995 32.8331H121.849V33.4307H129.972V32.8331H125.654L127.96 25.6259H135.315L137.694 32.8331H133.925V33.4307H144.647V32.8331H141.463L133.449 8H133.01ZM135.132 25.0283H128.18L131.62 14.3482L135.132 25.0283Z" fill="#878B8F"></path><path d="M158.872 8.55393C159.9 8.92322 160.775 9.42792 161.494 10.0674L163.094 8.48007C163.192 8.3816 163.274 8.30836 163.335 8.2585C163.396 8.20865 163.49 8.18403 163.614 8.18403C163.812 8.18403 163.911 8.32005 163.911 8.59086V15.5686C163.911 15.7907 163.837 15.9015 163.688 15.9015C163.539 15.9015 163.428 15.7907 163.354 15.5686C162.559 13.058 161.519 11.2805 160.229 10.2336C158.939 9.18726 157.39 8.66472 155.58 8.66472C154.563 8.66472 153.64 8.85552 152.81 9.23649C151.978 9.6181 151.259 10.209 150.652 11.0091C150.044 11.8092 149.574 12.8364 149.239 14.092C148.904 15.3476 148.736 16.8494 148.736 18.5967V23.1384C148.736 26.4865 149.332 29.0088 150.522 30.7075C151.712 32.4063 153.386 33.2556 155.543 33.2556C156.56 33.2556 157.385 33.1017 158.017 32.794C158.648 32.4862 159.138 32.0924 159.485 31.6123C159.833 31.1322 160.068 30.5967 160.193 30.0058C160.316 29.4156 160.378 28.8248 160.378 28.2339V24.7632H156.399V24.1724H167.445V24.7632H164.209V26.0181C164.209 27.3969 163.98 28.5848 163.521 29.5812C163.062 30.5783 162.43 31.3968 161.623 32.0363C160.819 32.6771 159.889 33.1509 158.835 33.4587C157.781 33.7658 156.659 33.9197 155.469 33.9197C153.98 33.9197 152.555 33.5744 151.191 32.8857C149.827 32.197 148.625 31.2615 147.583 30.0803C146.542 28.8986 145.711 27.5199 145.091 25.9443C144.471 24.3693 144.161 22.7081 144.161 20.9596C144.161 19.2122 144.465 17.5504 145.073 15.9754C145.681 14.4004 146.498 13.0217 147.528 11.84C148.557 10.6583 149.766 9.72273 151.155 9.03339C152.543 8.34467 154.018 8 155.58 8C156.746 8 157.843 8.18403 158.872 8.55393Z" fill="#878B8F"></path><path d="M172.709 32.8705C172.338 33.2448 171.877 33.432 171.326 33.432C170.775 33.432 170.313 33.2448 169.943 32.8705C169.571 32.4962 169.386 32.0312 169.386 31.4758C169.386 30.9209 169.571 30.456 169.943 30.0817C170.313 29.7073 170.775 29.5195 171.326 29.5195C171.877 29.5195 172.338 29.7073 172.709 30.0817C173.08 30.456 173.266 30.9209 173.266 31.4758C173.266 32.0312 173.08 32.4962 172.709 32.8705Z" fill="#878B8F"></path><path d="M197.034 26.0922V33.218C197.034 33.3898 196.96 33.4766 196.813 33.4766C196.713 33.4766 196.603 33.415 196.48 33.292L194.52 31.1507C193.682 32.0862 192.733 32.7817 191.674 33.2366C190.613 33.692 189.504 33.9197 188.347 33.9197C186.966 33.9197 185.612 33.5744 184.281 32.8857C182.95 32.197 181.753 31.2609 180.695 30.0798C179.635 28.8988 178.778 27.514 178.125 25.9261C177.473 24.3381 177.146 22.6346 177.146 20.8128C177.146 19.2372 177.43 17.68 177.996 16.142C178.562 14.6039 179.357 13.2315 180.381 12.0251C181.403 10.8194 182.611 9.84639 184.004 9.10784C185.395 8.36928 186.906 8 188.531 8C189.641 8 190.687 8.16618 191.674 8.49853C192.659 8.83088 193.546 9.3171 194.335 9.95718L195.777 8.48068C195.974 8.28311 196.134 8.18464 196.257 8.18464C196.355 8.18464 196.43 8.22218 196.48 8.29542C196.529 8.36928 196.554 8.51699 196.554 8.73917V14.7572C196.554 15.0526 196.491 15.2003 196.368 15.2003C196.269 15.2003 196.183 15.0779 196.109 14.8311C195.814 13.9448 195.431 13.1207 194.964 12.3575C194.495 11.5943 193.941 10.9419 193.3 10.4003C192.659 9.85932 191.945 9.43465 191.157 9.12692C190.367 8.81918 189.493 8.66532 188.531 8.66532C186.215 8.66532 184.502 9.54543 183.393 11.305C182.283 13.0653 181.729 15.569 181.729 18.8187V22.9539C181.729 26.3267 182.272 28.8864 183.357 30.6338C184.44 32.3816 186.104 33.2556 188.347 33.2556C189.332 33.2556 190.232 33.0771 191.045 32.7202C191.859 32.3632 192.597 31.8647 193.263 31.2245C193.929 30.5851 194.52 29.8275 195.038 28.9535C195.555 28.0802 196.035 27.1385 196.48 26.1298C196.603 25.8583 196.725 25.7229 196.848 25.7229C196.971 25.7229 197.034 25.8467 197.034 26.0922Z" fill="#878B8F"></path><path fill-rule="evenodd" clip-rule="evenodd" d="M203.773 29.932C204.802 31.1383 206.01 32.1052 207.394 32.8303C208.78 33.5565 210.257 33.9197 211.827 33.9197C213.394 33.9197 214.872 33.5565 216.257 32.8303C217.641 32.1052 218.85 31.1383 219.879 29.932C220.908 28.7263 221.723 27.3415 222.324 25.7781C222.924 24.2155 223.225 22.5967 223.225 20.9233C223.225 19.2491 222.924 17.631 222.324 16.0677C221.723 14.5044 220.908 13.1263 219.879 11.9317C218.85 10.7383 217.641 9.78489 216.257 9.07093C214.872 8.35698 213.394 8 211.827 8C210.257 8 208.78 8.35698 207.394 9.07093C206.01 9.78489 204.802 10.7383 203.773 11.9317C202.743 13.1263 201.928 14.5044 201.328 16.0677C200.726 17.631 200.427 19.2491 200.427 20.9233C200.427 22.5967 200.726 24.2155 201.328 25.7781C201.928 27.3415 202.743 28.7263 203.773 29.932ZM206.733 11.0091C207.309 10.1843 208.026 9.58794 208.884 9.21803C209.742 8.84875 210.723 8.66472 211.827 8.66472C212.93 8.66472 213.909 8.83705 214.768 9.1811C215.625 9.52639 216.342 10.1043 216.918 10.9168C217.495 11.7292 217.936 12.7995 218.243 14.1289C218.549 15.4584 218.702 17.1073 218.702 19.0768V22.769C218.702 26.3382 218.114 28.9781 216.938 30.6891C215.761 32.4 214.057 33.2556 211.827 33.2556C209.596 33.2556 207.892 32.4 206.715 30.6891C205.538 28.9781 204.949 26.3382 204.949 22.769V19.0768C204.949 17.1565 205.103 15.5384 205.409 14.2213C205.716 12.9048 206.157 11.8338 206.733 11.0091Z" fill="#878B8F"></path><path d="M229.944 32.8705C229.572 33.2448 229.111 33.432 228.56 33.432C228.009 33.432 227.548 33.2448 227.177 32.8705C226.805 32.4962 226.62 32.0312 226.62 31.4758C226.62 30.9209 226.805 30.456 227.177 30.0817C227.548 29.7073 228.009 29.5195 228.56 29.5195C229.111 29.5195 229.572 29.7073 229.944 30.0817C230.314 30.456 230.5 30.9209 230.5 31.4758C230.5 32.0312 230.314 32.4962 229.944 32.8705Z" fill="#878B8F"></path><path d="M246.568 9.08222H239.479C238.842 9.08222 238.242 9.1744 237.679 9.36C237.115 9.54623 236.607 9.86176 236.154 10.3066C235.701 10.752 235.334 11.3528 235.052 12.107C234.77 12.8618 234.617 13.809 234.593 14.9467H234.08V8.48828H250.131V9.37857L237.312 32.8359H244.328C245.16 32.8359 245.9 32.7122 246.55 32.4647C247.198 32.2179 247.755 31.8281 248.221 31.2954C248.686 30.764 249.054 30.0587 249.323 29.1795C249.592 28.3016 249.752 27.2313 249.801 25.9698H250.388V33.4299H233.896V32.4647L246.568 9.08222Z" fill="#878B8F"></path><path fill-rule="evenodd" clip-rule="evenodd" d="M263.49 8L255.476 32.8331H252.328V33.4307H260.452V32.8331H256.134L258.439 25.6259H265.795L268.174 32.8331H264.405V33.4307H275.126V32.8331H271.943L263.929 8H263.49ZM265.611 25.0283H258.659L262.099 14.3482L265.611 25.0283Z" fill="#878B8F"></path><path d="M1.84719 53.7291C1.86142 53.6628 1.8789 53.5795 1.89701 53.4794C2.09629 52.448 2.22892 51.7137 2.29492 51.2759L2.63847 49.3051C2.64883 49.2591 2.67665 49.0669 2.72129 48.7292L2.90374 47.7534C2.93674 47.5903 2.96262 47.3831 2.98073 47.1314C2.98462 47.0806 2.98656 47.0305 2.98656 46.9798C2.98656 46.8911 2.95485 46.8241 2.89145 46.7788C2.82869 46.7348 2.61518 46.7009 2.25221 46.678L1.89572 46.6543C1.89959 46.5846 1.91253 46.5128 1.93454 46.4397H2.6113L3.43687 46.4337L3.89689 46.4451L7.79896 46.3984C7.8876 46.3984 7.97106 46.4025 8.0487 46.4106C8.10046 46.414 8.16904 46.416 8.25316 46.416C8.24669 46.5169 8.20722 46.7571 8.13734 47.1368C8.09593 47.3655 8.04805 47.5557 7.99241 47.7066C7.93677 47.6992 7.89084 47.6742 7.85331 47.6309C7.81319 47.3986 7.79119 47.2477 7.78731 47.1774C7.77567 46.992 7.76855 46.8864 7.76466 46.8613C7.76143 46.8356 7.74267 46.7768 7.70967 46.6834C7.59127 46.6603 7.48775 46.6468 7.39911 46.6428C7.35511 46.6387 7.29818 46.6332 7.227 46.6252C7.14613 46.6292 7.07626 46.6292 7.01674 46.6252L6.87309 46.6374L6.69582 46.6312L6.31344 46.6603H5.88124L5.57133 46.6658L5.46069 46.6603L5.25042 46.6658H5.16178L4.95668 46.6718H4.81822L4.26374 46.6894C4.16798 46.6969 4.08322 46.7104 4.00947 46.73C3.97259 46.7415 3.90983 46.7686 3.82119 46.8112C3.81149 46.8966 3.79078 47.0069 3.75779 47.1429L3.6245 47.8806L3.50739 48.5668L3.49057 48.7353C3.40194 49.2009 3.34629 49.5298 3.32429 49.724C3.32042 49.7782 3.31523 49.8364 3.30747 49.898C3.4964 49.8709 4.01723 49.8323 4.87257 49.7815C5.91553 49.72 6.47067 49.6794 6.5373 49.6598C6.68223 49.6212 6.79416 49.5609 6.87375 49.4797C6.95268 49.3985 7.09373 49.1251 7.29818 48.6602L7.5091 48.6311C7.47546 48.8517 7.39781 49.2571 7.27553 49.8459C7.25677 49.9197 7.23866 50.0238 7.21989 50.1599C7.20501 50.2526 7.17136 50.4082 7.11961 50.6248C7.10149 50.7101 7.08855 50.7765 7.08079 50.8224C7.06267 50.9659 7.04197 51.0701 7.01996 51.1365C6.95333 51.1283 6.88863 51.1243 6.82522 51.1243L6.82005 51.0952C6.82005 51.0763 6.82522 51.039 6.83622 50.9849C6.85498 50.9077 6.86404 50.7723 6.86404 50.5781C6.86404 50.3223 6.82522 50.1538 6.74758 50.0726C6.66994 49.9914 6.49977 49.9508 6.23709 49.9508C5.9783 49.9508 5.66903 49.9779 5.31059 50.032C5.0369 50.036 4.64806 50.0571 4.14534 50.0956L3.75649 50.1247L3.65168 50.1423C3.54815 50.1423 3.46857 50.1483 3.41293 50.1599C3.38317 50.1632 3.33723 50.1674 3.27383 50.1714C3.21495 50.4894 3.17031 50.7121 3.14054 50.8393C3.06291 51.1655 3.00921 51.4234 2.97944 51.6129L2.66565 53.3509C2.65464 53.4212 2.64883 53.4814 2.64883 53.5315C2.64883 53.5701 2.66177 53.6188 2.68765 53.6771C2.76528 53.7461 2.83904 53.7921 2.90957 53.8131C2.97944 53.8347 3.11596 53.8476 3.31847 53.8509C3.36699 53.8509 3.45887 53.8536 3.59539 53.8564C3.6368 53.8604 3.6672 53.8624 3.68985 53.8624L4.57042 53.8225L4.78587 53.8103L4.93015 53.8165C5.1482 53.8165 5.39276 53.7934 5.66644 53.7461C5.73697 53.7352 5.82496 53.7231 5.93171 53.7115C6.40467 53.65 6.82522 53.4754 7.19466 53.1884C7.46834 52.9712 7.68703 52.6423 7.85331 52.1996H7.93094C7.9607 52.1996 7.99241 52.2037 8.02606 52.2118C7.98465 52.4013 7.82354 53.0043 7.54274 54.0202C7.14678 54.031 6.57289 54.0371 5.81978 54.0371L5.00521 54.054H4.76711L4.069 54.0783L3.56433 54.0662L3.02732 54.0723L1.80837 54.0662L1.53727 54.0783L1.06044 54.0662L0.578418 54.0723L0.573242 53.8915L1.0902 53.8686L1.43505 53.8225C1.5321 53.8023 1.66926 53.7711 1.84719 53.7291Z" fill="#646464"></path><path d="M9.48436 51.5655L9.34867 51.5748H9.31003C9.47446 51.1158 9.69581 50.7427 9.97315 50.4558C10.1064 50.3168 10.2371 50.2471 10.364 50.2471C10.4408 50.2471 10.5101 50.2822 10.5725 50.351C10.6349 50.4207 10.6661 50.5163 10.6661 50.6373C10.6661 50.7675 10.6517 50.8998 10.6234 51.0347C10.5952 51.1691 10.5269 51.3831 10.4199 51.6761L10.0371 52.6932C9.92419 52.9718 9.85728 53.1418 9.8375 53.2038L9.77808 53.3816C9.71568 53.5438 9.68448 53.655 9.68448 53.7139C9.68448 53.732 9.69437 53.7708 9.71414 53.8296C9.74534 53.8447 9.76819 53.8519 9.78249 53.8519L10.0643 53.7139C10.4115 53.439 10.6309 53.2498 10.7235 53.1464C10.9028 52.9562 11.1063 52.7004 11.3347 52.3779C11.4451 52.2239 11.5318 52.0497 11.5947 51.8543C11.6373 51.721 11.6586 51.5893 11.6586 51.459C11.6586 51.305 11.6259 51.0492 11.5605 50.6915C11.5605 50.552 11.5947 50.4362 11.6625 50.3447C11.7135 50.2739 11.7676 50.2383 11.8245 50.2383C11.8839 50.2383 11.9429 50.2771 12.0008 50.3536C12.0587 50.431 12.088 50.5416 12.088 50.6869C12.088 51.0652 11.985 51.4796 11.7784 51.9298C11.6348 52.2461 11.402 52.6017 11.0811 52.9955C10.7592 53.3883 10.4224 53.6947 10.0692 53.9139C9.89692 54.0234 9.71616 54.0782 9.52646 54.0782C9.46951 54.0782 9.40017 54.0617 9.31993 54.0297C9.24565 53.9646 9.20801 53.8963 9.20801 53.825C9.20801 53.704 9.24218 53.5563 9.31003 53.3816C9.6191 52.5939 9.89145 51.8569 10.1272 51.1701C10.1698 51.0399 10.1911 50.9324 10.1911 50.846C10.1911 50.7933 10.1777 50.7489 10.1525 50.7133C10.1327 50.6869 10.1098 50.673 10.0846 50.673C10.0222 50.673 9.95241 50.7251 9.87609 50.8285C9.73401 51.0208 9.60374 51.2667 9.48436 51.5655Z" fill="#646464"></path><path fill-rule="evenodd" clip-rule="evenodd" d="M12.6459 53.123C12.6459 52.8405 12.7038 52.5623 12.8206 52.2862C13.1602 52.2283 13.438 52.1715 13.6536 52.1147C13.8691 52.0584 14.0018 52.0196 14.0512 51.9984L14.4915 51.7515C14.6082 51.6751 14.7168 51.5562 14.8175 51.3926C14.9188 51.2296 14.9688 51.0644 14.9688 50.8966C14.9688 50.7076 14.9039 50.551 14.7731 50.4262C14.6421 50.301 14.4896 50.2383 14.3161 50.2383C14.1821 50.2383 14.0524 50.2622 13.9271 50.3094C13.8011 50.3566 13.6764 50.4257 13.5529 50.5165C13.5208 50.541 13.3726 50.6747 13.107 50.918L12.6989 51.4287C12.568 51.6177 12.4494 51.8184 12.3433 52.0309C12.2765 52.1679 12.2166 52.3377 12.166 52.5416C12.1141 52.7455 12.0889 52.9202 12.0889 53.0662C12.0889 53.4034 12.1759 53.6683 12.3488 53.8595C12.4797 54.006 12.639 54.0782 12.8261 54.0782C13.1052 54.0782 13.3756 53.9769 13.6375 53.774C14.0549 53.4469 14.3161 53.1134 14.4223 52.7742C14.3692 52.7683 14.3217 52.7652 14.2797 52.7652H14.2055C14.1413 52.9229 14.058 53.0646 13.9555 53.1921C13.853 53.319 13.7548 53.422 13.6616 53.5005C13.5677 53.5791 13.4553 53.6476 13.3245 53.7044C13.2646 53.7321 13.1954 53.7459 13.1176 53.7459C12.9904 53.7459 12.8897 53.7029 12.8156 53.6184C12.702 53.4942 12.6459 53.3285 12.6459 53.123ZM13.4411 51.9395C13.2009 52.0192 13.0244 52.0569 12.9107 52.0536C12.9675 51.8774 13.0861 51.6416 13.2664 51.347C13.5066 50.9604 13.7363 50.6853 13.9555 50.5213C14.0864 50.4273 14.2001 50.3801 14.2951 50.3801C14.3692 50.3801 14.4372 50.4087 14.4964 50.4666C14.5569 50.524 14.5872 50.5972 14.5872 50.6853C14.5872 50.8192 14.5588 50.9492 14.502 51.0751C14.4452 51.202 14.3624 51.3231 14.2532 51.4404C14.1432 51.5572 14.0463 51.6405 13.961 51.6889C13.7455 51.8136 13.572 51.897 13.4411 51.9395Z" fill="#646464"></path><path d="M16.1407 50.6254C16.0208 50.6986 15.9073 50.7835 15.8015 50.8799C15.7722 50.9075 15.6057 51.09 15.3035 51.4272L15.0784 51.4362C15.1696 51.2724 15.3385 51.0703 15.5866 50.8306C15.8347 50.591 16.0489 50.4265 16.2312 50.3385C16.348 50.2807 16.4787 50.2473 16.6247 50.2383C16.7153 50.2595 16.7784 50.2876 16.8135 50.3242C16.8479 50.3603 16.8651 50.4038 16.8651 50.4551C16.8651 50.5055 16.8581 50.557 16.8434 50.6085C16.8033 50.7739 16.7229 51.0115 16.6043 51.3211C16.4844 51.6308 16.3773 51.8753 16.2836 52.0546L15.9985 52.6145L15.9763 52.6968C16.0272 52.6241 16.1318 52.4613 16.2886 52.2094C16.8836 51.2713 17.3133 50.6927 17.5761 50.4732C17.7693 50.3162 17.9957 50.2383 18.2546 50.2383C18.4012 50.2383 18.5383 50.2866 18.6659 50.3841C18.7609 50.4599 18.8087 50.5602 18.8087 50.6843C18.8087 50.8243 18.7557 50.9446 18.6499 51.0444C18.5759 51.1144 18.472 51.1488 18.3368 51.1488C18.2246 51.1488 18.1449 51.127 18.099 51.0831C18.0531 51.039 18.025 50.9287 18.0141 50.7526C17.9663 50.6742 17.9134 50.6349 17.8548 50.6349C17.7967 50.6349 17.7349 50.6599 17.6685 50.7118C17.4932 50.8423 17.1629 51.2596 16.6757 51.9644C16.1892 52.6692 15.8851 53.1592 15.7626 53.4334C15.6402 53.7076 15.5407 53.8969 15.4635 53.9997C15.4234 54.0522 15.3494 54.0782 15.2403 54.0782C15.1428 54.0782 15.0726 54.0634 15.0312 54.0353C14.9891 54.0061 14.9688 53.969 14.9688 53.9234C14.9688 53.8624 14.9866 53.7929 15.0236 53.7133C15.1804 53.3952 15.4329 52.8071 15.7798 51.9506L16.1624 50.9759C16.1879 50.889 16.207 50.8339 16.2172 50.81L16.2504 50.7426C16.2504 50.7124 16.2134 50.6736 16.1407 50.6254Z" fill="#646464"></path><path d="M16.8428 55.5162C16.9237 55.6058 16.9946 55.6636 17.0541 55.6886C17.1141 55.7138 17.216 55.7266 17.3585 55.7266C17.563 55.7266 17.804 55.6689 18.0801 55.5542C18.3569 55.4395 18.5607 55.32 18.6916 55.1951C18.9394 55.0281 19.2256 54.7586 19.5503 54.3852C19.7245 54.1822 19.8737 53.9236 19.9999 53.6086C20.1247 53.2936 20.2179 52.8958 20.278 52.4151C20.338 51.9346 20.3678 51.5204 20.3678 51.1743C20.3678 50.9726 20.3583 50.6006 20.3387 50.0595C20.3192 49.6895 20.2894 49.4371 20.2489 49.3012C20.2077 49.1648 20.1551 49.0671 20.0897 49.0087C20.0545 48.9774 20.01 48.9625 19.956 48.9625C19.8668 48.9625 19.7899 49.0006 19.7245 49.0793C19.5887 49.2463 19.4551 49.5626 19.3242 50.029L19.2776 50.0412C19.2391 50.0412 19.1912 50.0195 19.1331 49.9767C19.2681 49.4676 19.3647 49.1505 19.4227 49.0263C19.5422 48.7772 19.6468 48.6041 19.7359 48.5077C19.7899 48.4493 19.879 48.3909 20.0026 48.3325C20.064 48.3243 20.1126 48.3203 20.1477 48.3203C20.3718 48.3203 20.5513 48.4662 20.6864 48.7588C20.8727 49.1635 20.9645 49.714 20.9645 50.4105C20.9645 50.7261 20.9429 51.1179 20.8983 51.5843C20.8538 52.0513 20.8065 52.3955 20.7566 52.6175C20.6904 52.9325 20.6539 53.1273 20.6465 53.2013C20.6655 53.1823 20.6864 53.1531 20.71 53.1137C20.9578 52.7404 21.1696 52.3833 21.3479 52.0411C21.4869 51.7845 21.6132 51.4777 21.7273 51.1193C21.8413 50.7621 21.9311 50.3949 21.9972 50.0175C22.0357 49.7921 22.0553 49.545 22.0553 49.2775C22.0553 49.1798 22.0533 49.0963 22.0493 49.0263C22.0411 48.9334 22.0378 48.877 22.0378 48.8566C22.0378 48.6665 22.0742 48.5226 22.1478 48.4262C22.1822 48.3719 22.2504 48.3441 22.351 48.3441C22.4516 48.3441 22.5258 48.3719 22.5737 48.4262C22.6224 48.4805 22.6467 48.5701 22.6467 48.6937C22.6467 48.881 22.5367 49.3447 22.3159 50.0874C22.0141 51.1138 21.7029 51.9074 21.383 52.4668C20.8957 53.318 20.3333 54.0703 19.6954 54.7232C19.262 55.1659 18.8132 55.4904 18.3474 55.6948C17.8816 55.8977 17.4759 56.0002 17.1323 56.0002C16.6685 56.0002 16.3514 55.9412 16.1819 55.8223C16.0118 55.7036 15.9268 55.5847 15.9268 55.464C15.9268 55.3865 15.9557 55.3193 16.0132 55.263C16.0711 55.2066 16.1387 55.1781 16.2163 55.1781C16.3243 55.1781 16.4384 55.2073 16.5585 55.2657C16.6166 55.2969 16.7111 55.3805 16.8428 55.5162Z" fill="#646464"></path><path d="M24.0119 49.4817H23.7192L23.5837 49.4761L23.272 49.4882H23.2087C23.2155 49.3977 23.2435 49.2928 23.2922 49.1736C23.7595 49.1571 24.0364 49.1426 24.1244 49.1305C24.1865 48.9328 24.2397 48.7748 24.2833 48.6556C24.3779 48.3882 24.4758 48.0706 24.5765 47.7042C24.6073 47.585 24.6426 47.4765 24.6801 47.3773C24.7506 47.3658 24.8323 47.3594 24.9252 47.3594C25.0025 47.3594 25.0757 47.3695 25.1463 47.3903L25.1558 47.4887C25.1558 47.567 25.0142 48.0197 24.7316 48.8466C24.7002 48.9408 24.6739 49.0377 24.6521 49.1369C24.7439 49.1571 24.797 49.1678 24.8133 49.1678H24.9129L25.0747 49.1736L25.5313 49.1613C25.5313 49.2971 25.5122 49.4078 25.4731 49.4947C25.3472 49.5112 25.1809 49.5198 24.9756 49.5198C24.8737 49.5198 24.8093 49.522 24.7808 49.5256C24.6196 49.5464 24.5261 49.5666 24.501 49.5874L23.7186 51.9964C23.6313 52.2285 23.4819 52.6703 23.2703 53.3221C23.2703 53.3464 23.2799 53.3745 23.2995 53.4075L23.362 53.419C23.4483 53.419 23.5558 53.3501 23.6839 53.2093C23.962 52.901 24.2251 52.541 24.4719 52.13C24.5251 52.1667 24.572 52.2098 24.6129 52.2593C24.2973 52.7573 24.0746 53.0856 23.947 53.243C23.8182 53.4017 23.6553 53.567 23.4589 53.7373C23.2613 53.9083 23.1427 54.0038 23.1019 54.024C23.0302 54.0613 22.9564 54.0793 22.8814 54.0793C22.8035 54.0793 22.7453 54.0585 22.7078 54.0154C22.6704 53.9715 22.6514 53.909 22.6514 53.8271C22.6514 53.7079 22.728 53.4298 22.8814 52.9936L23.0828 52.4196L23.7908 50.229C23.882 49.9452 23.9553 49.6959 24.0119 49.4817Z" fill="#646464"></path><path d="M27.1424 46.6237L27.1617 46.5052C27.7135 46.4344 28.0466 46.3984 28.161 46.3984C28.1962 46.3984 28.2472 46.4004 28.3141 46.4043L28.2903 46.5111L28.161 46.8884L27.8789 47.8289C27.8347 47.9724 27.7719 48.1931 27.6926 48.4938C27.5458 49.0493 27.3917 49.5503 27.2308 49.9944C27.0699 50.4398 26.9192 50.9232 26.7793 51.4452C26.8303 51.3699 26.8954 51.2651 26.9753 51.1302C27.4376 50.373 27.8262 49.8549 28.139 49.5772C28.3508 49.3899 28.5593 49.2962 28.7644 49.2962C28.931 49.2962 29.0732 49.3767 29.1927 49.5379C29.3111 49.699 29.3712 49.9466 29.3712 50.2806C29.3712 50.7077 29.2789 51.214 29.0942 51.7964C28.9095 52.3799 28.6908 52.8542 28.4387 53.217C28.186 53.5812 27.9696 53.8157 27.7906 53.9211C27.6104 54.0259 27.4478 54.0783 27.3017 54.0783C27.1759 54.0783 27.0801 54.0384 27.015 53.9598C26.918 53.8438 26.87 53.724 26.87 53.5995C26.87 53.5433 26.8954 53.4902 26.9469 53.4398C26.9991 53.3893 27.0671 53.3637 27.1515 53.3637C27.2161 53.3637 27.2683 53.3795 27.3067 53.4115C27.3452 53.4436 27.4053 53.5288 27.4858 53.6677C27.5413 53.728 27.5866 53.7581 27.6223 53.7581C27.6834 53.7581 27.7679 53.6775 27.8744 53.515C28.0851 53.1928 28.3214 52.5797 28.5837 51.6758C28.7939 50.9592 28.8993 50.4175 28.8993 50.0495C28.8993 49.8477 28.8749 49.7108 28.8256 49.6394C28.7769 49.568 28.7101 49.5319 28.625 49.5319C28.5791 49.5319 28.5271 49.549 28.4687 49.5831C28.2925 49.6846 28.1016 49.8581 27.8959 50.1057C27.6908 50.3533 27.3662 50.8321 26.9227 51.5409C26.8269 51.6994 26.6688 52.0596 26.4467 52.6217C26.2258 53.1836 26.0745 53.5792 25.9952 53.8098C25.9538 53.9245 25.9148 53.9978 25.8773 54.0299C25.8388 54.0619 25.7884 54.0783 25.7256 54.0783C25.6559 54.0783 25.6066 54.0633 25.576 54.0338C25.5465 54.0037 25.5312 53.9598 25.5312 53.9034C25.5312 53.8406 25.5567 53.7371 25.6077 53.595L25.9505 52.5869C25.9697 52.5384 25.9872 52.49 26.0026 52.4408L27.3509 47.8952L27.5464 47.2421C27.5979 47.0757 27.624 46.9624 27.624 46.9021C27.624 46.8563 27.6143 46.8216 27.5951 46.7966C27.5753 46.7724 27.5385 46.7541 27.4846 46.743C27.3577 46.7128 27.2439 46.6729 27.1424 46.6237Z" fill="#646464"></path><path fill-rule="evenodd" clip-rule="evenodd" d="M32.4324 46.5612C32.3366 46.6693 32.2887 46.7928 32.2887 46.9313C32.2887 47.0775 32.3273 47.194 32.4056 47.2809C32.4841 47.3677 32.581 47.4105 32.6943 47.4105C32.866 47.4105 32.9829 47.3732 33.0476 47.2981C33.1545 47.1678 33.2081 47.0237 33.2081 46.8659C33.2081 46.7438 33.1645 46.6349 33.0793 46.5404C32.9941 46.4453 32.8908 46.3984 32.7696 46.3984C32.6407 46.3984 32.5295 46.4529 32.4324 46.5612ZM31.8185 49.6076C31.8539 49.5959 31.9093 49.5896 31.9846 49.5896C32.002 49.6414 32.0113 49.6765 32.0113 49.6965C32.0113 49.72 32.0001 49.7655 31.9789 49.833C31.9428 49.9392 31.8806 50.0854 31.7917 50.2708L30.9315 52.0708C30.5291 52.9119 30.3281 53.4848 30.3281 53.7881C30.3281 53.875 30.3561 53.9453 30.4115 53.9984C30.4674 54.0521 30.5552 54.0783 30.6739 54.0783C30.8307 54.0783 31.0092 54.0149 31.2107 53.8894C31.4789 53.7233 31.7183 53.502 31.9285 53.2263C32.1388 52.9491 32.2987 52.7044 32.4056 52.4914H32.1711C32.0293 52.7285 31.8657 52.9387 31.6798 53.1222C31.495 53.3056 31.3352 53.4372 31.2014 53.5165C31.1212 53.5634 31.0615 53.5868 31.0223 53.5868C30.9937 53.5868 30.9701 53.5765 30.9508 53.5544C30.9302 53.5331 30.9209 53.5082 30.9209 53.4807C30.9209 53.3814 30.9762 53.2297 31.0863 53.0243C31.1255 52.9491 31.1703 52.8568 31.22 52.7465C31.3128 52.541 31.3979 52.3638 31.4769 52.2136C31.7195 51.7516 31.9472 51.2621 32.1612 50.7451C32.2539 50.5162 32.313 50.3742 32.3379 50.319C32.5369 49.8689 32.6371 49.5469 32.6371 49.3532C32.6371 49.2821 32.6165 49.2236 32.5755 49.1788C32.535 49.1326 32.4734 49.1098 32.3913 49.1098C32.1985 49.1098 31.9354 49.2264 31.6001 49.4594C31.2649 49.6924 30.9601 50.0143 30.6857 50.4245L30.9955 50.348C31.138 50.1626 31.2897 50.0005 31.4496 49.8627C31.528 49.7909 31.6512 49.7062 31.8185 49.6076Z" fill="#646464"></path><path d="M34.5053 50.8394C34.4986 50.8154 34.4902 50.7987 34.4789 50.7898C34.4677 50.781 34.4537 50.7763 34.438 50.7763C34.2707 50.7763 34.0102 51.0217 33.6565 51.5122C33.6218 51.5154 33.5959 51.5169 33.5802 51.5169C33.5599 51.5169 33.5285 51.5154 33.4836 51.5122C33.551 51.3868 33.6605 51.228 33.8138 51.0369C33.9658 50.8452 34.1281 50.6859 34.2999 50.559C34.4716 50.432 34.6345 50.3365 34.7889 50.2738C34.8406 50.2529 34.8871 50.2425 34.9287 50.2425C34.9443 50.2425 34.9685 50.244 35.0011 50.2471C35.0584 50.301 35.0876 50.3558 35.0876 50.4127C35.0876 50.4482 35.0836 50.4843 35.0758 50.5203C35.0673 50.5563 35.0511 50.6112 35.0253 50.6864C34.9287 50.9434 34.8579 51.1246 34.813 51.2291L34.5385 51.8935C34.4739 52.0459 34.4116 52.2073 34.351 52.3776C34.3762 52.3483 34.3993 52.3196 34.4184 52.2925C34.717 51.8861 35.0399 51.4965 35.3856 51.1241C35.7314 50.7517 36.0166 50.5026 36.2423 50.3772C36.4029 50.2847 36.5556 50.2383 36.7004 50.2383C36.8093 50.2383 36.8952 50.2654 36.9559 50.3213C37.0176 50.3761 37.048 50.4477 37.048 50.5344C37.048 50.5888 37.0417 50.6404 37.0289 50.6917C37.0058 50.8055 36.9559 50.9637 36.8795 51.167C36.802 51.3706 36.5988 51.8114 36.2709 52.4904L35.7882 53.5267L35.7691 53.5852C35.7691 53.6029 35.7803 53.6301 35.8028 53.6656C35.983 53.6301 36.2524 53.3637 36.6129 52.867L36.8105 52.8717C36.7111 53.0389 36.5471 53.2546 36.3187 53.5178C36.1418 53.7183 35.952 53.8735 35.75 53.9843C35.6372 54.0474 35.5164 54.0782 35.3879 54.0782C35.311 54.0782 35.2532 54.0636 35.2144 54.0333C35.1757 54.0036 35.1566 53.9706 35.1566 53.9351C35.1566 53.7763 35.2386 53.5309 35.4024 53.1992L36.102 51.777L36.3715 51.18C36.4332 51.0484 36.4697 50.9575 36.4826 50.9063C36.4955 50.8557 36.5022 50.805 36.5022 50.7538C36.5022 50.7151 36.4905 50.6843 36.468 50.6618C36.4456 50.6394 36.4164 50.6284 36.3815 50.6284C36.3299 50.6284 36.2704 50.6478 36.2025 50.6864C35.965 50.8186 35.7028 51.0442 35.4166 51.3643C35.005 51.825 34.731 52.1557 34.5963 52.3557C34.2595 52.8524 33.9653 53.359 33.7149 53.8761C33.6756 53.9602 33.6291 54.0218 33.5751 54.0605C33.5077 54.0694 33.4561 54.0735 33.4202 54.0735C33.3786 54.0735 33.3147 54.0667 33.2276 54.0511C33.2147 54.0275 33.208 54.0078 33.208 53.9931C33.208 53.9691 33.2248 53.9158 33.2563 53.8317C33.327 53.6369 33.501 53.2274 33.7773 52.6023L33.8879 52.3599L34.5053 50.8394Z" fill="#646464"></path><path fill-rule="evenodd" clip-rule="evenodd" d="M37.4699 52.8393C37.5419 52.9432 37.7038 53.1155 37.9544 53.3552C37.0406 53.8232 36.4864 54.1479 36.2916 54.3302C36.1563 54.4572 36.0889 54.6064 36.0889 54.7766C36.0889 54.8928 36.1234 55.0069 36.1925 55.119C36.3147 55.3121 36.4795 55.4721 36.6874 55.6005C36.8955 55.7274 37.1824 55.8362 37.5482 55.9253C37.7499 55.9753 38.0748 56.0002 38.5237 56.0002C38.7709 56.0002 39.0295 55.9651 39.2986 55.8929C39.5665 55.8213 39.7606 55.7429 39.8794 55.6579C40.0579 55.5302 40.1865 55.3938 40.2654 55.2486C40.3449 55.1035 40.3841 54.942 40.3841 54.7638C40.3841 54.4275 40.285 54.1608 40.0879 53.9636C39.8304 53.705 39.4489 53.4707 38.9443 53.2626C38.7662 53.1654 38.5715 53.0554 38.3606 52.9318C38.1889 52.7738 38.1025 52.6306 38.1025 52.503C38.1025 52.4253 38.129 52.3639 38.182 52.3172C38.3145 52.1937 38.4972 52.1046 38.731 52.0505C39.1638 51.9459 39.5435 51.6467 39.8725 51.153C40.2003 50.6588 40.3645 50.1321 40.3645 49.5722C40.3645 49.2866 40.3184 49.026 40.2262 48.791C40.2584 48.8006 40.293 48.8114 40.3307 48.8232C40.351 48.8295 40.3722 48.8361 40.3944 48.8429C40.5489 48.8929 40.6652 48.9179 40.7407 48.9179C40.7637 48.9179 40.8017 48.9139 40.8548 48.9065C40.8779 48.864 40.8888 48.8233 40.8888 48.7849C40.8888 48.7349 40.8842 48.6519 40.8744 48.5357C40.8213 48.5276 40.7822 48.5235 40.7557 48.5235C40.7257 48.5235 40.6721 48.5297 40.595 48.5411C40.5172 48.5526 40.4509 48.5587 40.3944 48.5587C40.2527 48.5587 40.1271 48.5276 40.0182 48.4655C39.85 48.3696 39.6817 48.3203 39.5135 48.3203C39.3712 48.3203 39.1984 48.3635 38.9938 48.4486C38.8619 48.5019 38.7495 48.5715 38.6573 48.6566C38.522 48.7801 38.3888 48.953 38.2586 49.1752C38.1285 49.3967 38.0189 49.6681 37.9302 49.9882C37.8669 50.2043 37.8352 50.4285 37.8352 50.6602C37.8352 50.8033 37.8525 50.9458 37.8847 51.0889C37.9181 51.2321 37.9544 51.3455 37.9942 51.4307L38.1521 51.6332C38.2742 51.7838 38.3537 51.8865 38.39 51.9404C38.0864 52.1721 37.868 52.3207 37.7343 52.3868C37.6007 52.4523 37.5166 52.5084 37.482 52.5549C37.4474 52.6016 37.4296 52.6535 37.4296 52.7116C37.4296 52.7582 37.4434 52.8008 37.4699 52.8393ZM38.6867 51.7892C38.8584 51.7581 39.0036 51.6852 39.1223 51.5691C39.1788 51.5191 39.2727 51.3638 39.4046 51.1031C39.5366 50.8432 39.6339 50.6082 39.6967 50.3995C39.8419 49.9173 39.9145 49.5216 39.9145 49.213C39.9145 49.0044 39.8707 48.8437 39.7831 48.7296C39.6955 48.6154 39.5844 48.5587 39.4489 48.5587C39.3038 48.5587 39.1638 48.631 39.0284 48.7754C38.893 48.9206 38.7305 49.2744 38.541 49.8377C38.3514 50.4015 38.2563 50.8398 38.2563 51.1524C38.2563 51.3145 38.2972 51.4556 38.3802 51.5752C38.4621 51.6947 38.5646 51.7663 38.6867 51.7892ZM36.7918 55.2115C36.9761 55.4087 37.2221 55.5518 37.5287 55.641C37.5817 55.6565 37.6312 55.6733 37.6773 55.6929C37.7372 55.7125 37.8369 55.7334 37.9792 55.7565C38.1872 55.7686 38.3635 55.7741 38.5087 55.7741C38.8054 55.7741 39.0883 55.718 39.3573 55.6059C39.6264 55.4937 39.8022 55.3776 39.8846 55.2581C39.941 55.1804 39.9687 55.0798 39.9687 54.9562C39.9687 54.7435 39.8633 54.5315 39.6523 54.3181C39.4934 54.1635 39.1719 53.9778 38.6867 53.7617C38.469 53.6603 38.2909 53.576 38.1521 53.5065C37.9308 53.5915 37.6439 53.7455 37.2913 53.9697C37.1035 54.0898 36.9605 54.202 36.8632 54.3066C36.7659 54.4113 36.7122 54.4755 36.7024 54.4984C36.6627 54.5903 36.6431 54.6854 36.6431 54.7827C36.6431 54.9488 36.6926 55.092 36.7918 55.2115Z" fill="#646464"></path><path d="M45.131 49.4817H44.8383L44.7029 49.4761L44.3911 49.4882H44.3279C44.3346 49.3977 44.3626 49.2928 44.4113 49.1736C44.8786 49.1571 45.1556 49.1426 45.2435 49.1305C45.3056 48.9328 45.3588 48.7748 45.4024 48.6556C45.497 48.3882 45.595 48.0706 45.6957 47.7042C45.7265 47.585 45.7617 47.4765 45.7993 47.3773C45.8697 47.3658 45.9514 47.3594 46.0443 47.3594C46.1216 47.3594 46.1949 47.3695 46.2654 47.3903L46.2749 47.4887C46.2749 47.567 46.1333 48.0197 45.8507 48.8466C45.8193 48.9408 45.793 49.0377 45.7712 49.1369C45.863 49.1571 45.9162 49.1678 45.9324 49.1678H46.0321L46.1938 49.1736L46.6505 49.1613C46.6505 49.2971 46.6314 49.4078 46.5922 49.4947C46.4663 49.5112 46.3001 49.5198 46.0947 49.5198C45.9929 49.5198 45.9285 49.522 45.9 49.5256C45.7388 49.5464 45.6453 49.5666 45.6201 49.5874L44.8377 51.9964C44.7505 52.2285 44.601 52.6703 44.3894 53.3221C44.3894 53.3464 44.399 53.3745 44.4186 53.4075L44.4812 53.419C44.5674 53.419 44.6749 53.3501 44.8031 53.2093C45.0812 52.901 45.3442 52.541 45.591 52.13C45.6442 52.1667 45.6912 52.2098 45.7321 52.2593C45.4164 52.7573 45.1937 53.0856 45.0661 53.243C44.9374 53.4017 44.7745 53.567 44.5781 53.7373C44.3805 53.9083 44.2618 54.0038 44.221 54.024C44.1493 54.0613 44.0755 54.0793 44.0005 54.0793C43.9227 54.0793 43.8645 54.0585 43.827 54.0154C43.7895 53.9715 43.7705 53.909 43.7705 53.8271C43.7705 53.7079 43.8471 53.4298 44.0005 52.9936L44.2019 52.4196L44.9099 50.229C45.0011 49.9452 45.0745 49.6959 45.131 49.4817Z" fill="#646464"></path><path fill-rule="evenodd" clip-rule="evenodd" d="M48.8712 53.2584C49.3109 52.7116 49.5313 52.0859 49.5313 51.3816C49.5313 50.9743 49.4564 50.6822 49.306 50.5045C49.1556 50.3274 48.9707 50.2383 48.7514 50.2383C48.513 50.2383 48.2806 50.3093 48.052 50.4526C47.8227 50.5946 47.6254 50.7707 47.4597 50.9807C47.4033 51.0539 47.353 51.1159 47.3093 51.1674C47.1151 51.3949 46.957 51.6812 46.8351 52.0265C46.7126 52.3706 46.6514 52.675 46.6514 52.9391C46.6514 53.3316 46.7301 53.619 46.8865 53.8024C47.0429 53.9865 47.2486 54.0782 47.5017 54.0782C47.9748 54.0782 48.4315 53.8046 48.8712 53.2584ZM47.19 53.7637C47.1222 53.6969 47.0884 53.594 47.0884 53.4541C47.0884 53.138 47.189 52.7286 47.3891 52.2243C47.6369 51.6049 47.931 51.1192 48.2723 50.767C48.4725 50.557 48.6655 50.4526 48.8504 50.4526C48.9346 50.4526 49.0102 50.4896 49.0757 50.5639C49.1414 50.6381 49.1742 50.7394 49.1742 50.8667C49.1742 51.2251 49.0396 51.7157 48.7701 52.3383C48.501 52.9603 48.2319 53.3994 47.9622 53.6545C47.8119 53.7946 47.6631 53.864 47.516 53.864C47.3656 53.864 47.2573 53.8306 47.19 53.7637Z" fill="#646464"></path><path fill-rule="evenodd" clip-rule="evenodd" d="M57.1856 48.0053L56.6316 49.9172C56.548 49.7765 56.4697 49.6824 56.397 49.634C56.287 49.5604 56.1605 49.5237 56.0172 49.5237C55.8339 49.5237 55.6303 49.5837 55.4053 49.7037C55.1809 49.8236 54.9444 50.0197 54.6966 50.2913C54.4483 50.5629 54.2238 50.8808 54.022 51.2466C53.8208 51.6123 53.6769 51.911 53.5898 52.1445C53.4436 52.5251 53.3701 52.894 53.3701 53.2521C53.3701 53.5404 53.4232 53.7636 53.5289 53.9229C53.5951 54.0261 53.6859 54.0783 53.8017 54.0783C54.013 54.0783 54.25 53.9816 54.511 53.7894C54.8745 53.5236 55.2202 53.1862 55.5474 52.776C55.7193 52.5619 55.8501 52.4084 55.9396 52.3161C55.8948 52.4973 55.8148 52.7889 55.6978 53.1914C55.582 53.5946 55.5235 53.8506 55.5235 53.9616C55.5235 53.9874 55.5342 54.0171 55.5546 54.0506C55.6023 54.0648 55.6405 54.0726 55.6679 54.0726C55.7939 54.0726 55.9838 53.9706 56.2369 53.7674C56.5886 53.4836 56.9067 53.1101 57.1903 52.6483C57.1628 52.6076 57.1222 52.5747 57.0673 52.549C56.5629 53.1508 56.2483 53.463 56.1259 53.4849L56.1103 53.4521L56.8375 51.0976C56.8961 50.9125 56.9467 50.7131 56.9916 50.499C57.022 50.3545 57.084 50.1314 57.176 49.8282L57.6882 48.0556L58.1133 46.681L58.1187 46.648C58.1295 46.6074 58.1462 46.532 58.1701 46.421C58.1223 46.4062 58.0781 46.3984 58.0363 46.3984L57.9754 46.4042C57.7832 46.4888 57.3975 46.532 56.816 46.532L56.7754 46.6926L56.8829 46.7248C57.1014 46.7803 57.2572 46.8468 57.3498 46.9236C57.3939 46.9635 57.416 47.008 57.416 47.0557C57.416 47.1215 57.3802 47.2757 57.3086 47.5176C57.3014 47.5402 57.2948 47.5698 57.2876 47.6066C57.2435 47.7911 57.2094 47.9246 57.1856 48.0053ZM54.8226 53.3024C54.6482 53.4391 54.4943 53.5074 54.3623 53.5074C54.253 53.5074 54.1629 53.463 54.0918 53.3746C54.0215 53.2856 53.9856 53.1637 53.9856 53.0088C53.9856 52.8496 54.0399 52.6225 54.1491 52.327C54.2578 52.0317 54.4244 51.6788 54.6495 51.2686C54.8739 50.8589 55.0411 50.5893 55.1497 50.4597C55.342 50.2274 55.524 50.0629 55.6972 49.9668C55.871 49.8707 56.019 49.8223 56.1408 49.8223C56.2106 49.8223 56.287 49.8765 56.3688 49.9836C56.4519 50.0907 56.4931 50.2035 56.4931 50.3216C56.4931 50.399 56.4363 50.6448 56.3217 51.0582C56.2082 51.4724 56.0101 51.8865 55.7271 52.3026C55.4447 52.7173 55.1438 53.0514 54.8226 53.3024Z" fill="#646464"></path><path fill-rule="evenodd" clip-rule="evenodd" d="M60.3868 53.2584C60.8265 52.7116 61.047 52.0859 61.047 51.3816C61.047 50.9743 60.972 50.6822 60.8217 50.5045C60.6712 50.3274 60.4863 50.2383 60.2671 50.2383C60.0286 50.2383 59.7962 50.3093 59.5676 50.4526C59.3384 50.5946 59.141 50.7707 58.9753 50.9807C58.919 51.0539 58.8687 51.1159 58.8249 51.1674C58.6308 51.3949 58.4727 51.6812 58.3507 52.0265C58.2282 52.3706 58.167 52.675 58.167 52.9391C58.167 53.3316 58.2457 53.619 58.4021 53.8024C58.5586 53.9865 58.7642 54.0782 59.0174 54.0782C59.4904 54.0782 59.9471 53.8046 60.3868 53.2584ZM58.7056 53.7637C58.6379 53.6969 58.604 53.594 58.604 53.4541C58.604 53.138 58.7046 52.7286 58.9047 52.2243C59.1525 51.6049 59.4467 51.1192 59.7879 50.767C59.9881 50.557 60.1811 50.4526 60.366 50.4526C60.4502 50.4526 60.5258 50.4896 60.5914 50.5639C60.657 50.6381 60.6898 50.7394 60.6898 50.8667C60.6898 51.2251 60.5553 51.7157 60.2857 52.3383C60.0166 52.9603 59.7475 53.3994 59.4779 53.6545C59.3275 53.7946 59.1787 53.864 59.0317 53.864C58.8812 53.864 58.7729 53.8306 58.7056 53.7637Z" fill="#646464"></path><path d="M64.5619 51.2961L64.4042 51.2472C64.5091 50.978 64.6683 50.743 64.8823 50.5429C65.0963 50.3427 65.3097 50.243 65.5231 50.243C65.6809 50.243 65.8125 50.2929 65.9195 50.3948C66.0265 50.4956 66.0793 50.6791 66.0793 50.9437C66.0793 51.2265 65.9906 51.5654 65.8132 51.9594C65.6357 52.354 65.3112 52.8946 64.84 53.5823C65.0619 53.5231 65.3238 53.4129 65.6266 53.2523C66.0575 53.023 66.423 52.7776 66.7209 52.5157C66.866 52.3898 67.0364 52.2038 67.2321 51.9552C67.4272 51.7063 67.5475 51.5363 67.5919 51.4437C67.6687 51.2681 67.7067 51.0986 67.7067 50.9349C67.7067 50.8574 67.6849 50.796 67.6406 50.7514C67.6123 50.7222 67.5758 50.7067 67.5314 50.7067C67.4751 50.7067 67.4208 50.7191 67.368 50.7425C67.2955 50.7779 67.2188 50.8356 67.1385 50.9157L66.8237 51.292L66.6483 51.2254C66.7976 50.9822 66.9384 50.794 67.0716 50.6604C67.2568 50.4706 67.4046 50.3532 67.5131 50.3074C67.6222 50.2611 67.7152 50.2383 67.792 50.2383C67.9567 50.2383 68.0842 50.2768 68.1729 50.3542C68.3137 50.4738 68.3848 50.675 68.3848 50.9583C68.3848 51.2291 68.2743 51.6185 68.0546 52.1252C67.8342 52.6315 67.5454 53.1176 67.1871 53.5823C67.9447 53.3386 68.6384 52.9455 69.2678 52.4039C69.7432 51.9901 69.9812 51.5238 69.9812 51.0061C69.9812 50.9852 69.977 50.8782 69.9692 50.6843C69.9692 50.5835 70.0002 50.4858 70.0629 50.3922C70.1248 50.2986 70.203 50.2512 70.296 50.2512C70.4002 50.2512 70.4854 50.2751 70.5494 50.323C70.6142 50.3709 70.6467 50.4389 70.6467 50.5278C70.6467 50.8101 70.5488 51.1241 70.3537 51.4693C70.1573 51.8139 69.8263 52.1934 69.3588 52.6066C69.032 52.8946 68.6186 53.1591 68.1186 53.4004C67.8159 53.5459 67.3018 53.7435 66.5758 53.993C66.3455 54.0502 66.2209 54.0782 66.2005 54.0782C66.1724 54.0782 66.1223 54.0662 66.0491 54.0423C66.0491 53.9977 66.0548 53.968 66.0646 53.953C66.0744 53.9384 66.1118 53.9026 66.1766 53.8459C66.5434 53.4441 66.8301 53.0854 67.0357 52.7699C67.2413 52.4548 67.3744 52.2089 67.4349 52.0333C67.0997 52.4324 66.7976 52.7267 66.5273 52.9169C66.1357 53.1914 65.5618 53.4992 64.8034 53.8412C64.4605 53.993 64.2105 54.0694 64.0535 54.0694C64.0176 54.0694 63.9873 54.06 63.9627 54.0423C63.9387 54.0247 63.9268 54.0039 63.9268 53.98C63.9268 53.9384 63.9344 53.901 63.9507 53.8682C63.9591 53.8563 64.0373 53.7492 64.1865 53.547C64.457 53.1779 64.6541 52.8816 64.7795 52.658C65.009 52.2505 65.183 51.8815 65.2998 51.5509C65.3802 51.3159 65.421 51.1236 65.421 50.9749C65.421 50.8855 65.3963 50.8169 65.3477 50.7695C65.3154 50.7399 65.2696 50.7248 65.209 50.7248C65.1442 50.7248 65.0675 50.7576 64.9795 50.8225C64.89 50.8875 64.7513 51.0455 64.5619 51.2961Z" fill="#646464"></path><path fill-rule="evenodd" clip-rule="evenodd" d="M72.7562 46.5612C72.6604 46.6693 72.612 46.7928 72.612 46.9313C72.612 47.0775 72.6511 47.194 72.7296 47.2809C72.8079 47.3677 72.9043 47.4105 73.0181 47.4105C73.1892 47.4105 73.3068 47.3732 73.3708 47.2981C73.4778 47.1678 73.5313 47.0237 73.5313 46.8659C73.5313 46.7438 73.4884 46.6349 73.4025 46.5404C73.3174 46.4453 73.2141 46.3984 73.0928 46.3984C72.9647 46.3984 72.8527 46.4529 72.7562 46.5612ZM72.1417 49.6076C72.1777 49.5959 72.2331 49.5896 72.3078 49.5896C72.3252 49.6414 72.3345 49.6765 72.3345 49.6965C72.3345 49.72 72.3234 49.7655 72.3022 49.833C72.2667 49.9392 72.2045 50.0854 72.115 50.2708L71.2547 52.0708C70.8529 52.9119 70.6514 53.4848 70.6514 53.7881C70.6514 53.875 70.6793 53.9453 70.7347 53.9984C70.7907 54.0521 70.8784 54.0783 70.9978 54.0783C71.1539 54.0783 71.3325 54.0149 71.5347 53.8894C71.8021 53.7233 72.0415 53.502 72.2524 53.2263C72.4627 52.9491 72.6219 52.7044 72.7296 52.4914H72.495C72.3532 52.7285 72.189 52.9387 72.0036 53.1222C71.8189 53.3056 71.659 53.4372 71.5247 53.5165C71.4444 53.5634 71.3847 53.5868 71.3461 53.5868C71.3175 53.5868 71.2933 53.5765 71.274 53.5544C71.254 53.5331 71.2447 53.5082 71.2447 53.4807C71.2447 53.3814 71.3001 53.2297 71.4096 53.0243C71.4494 52.9491 71.4936 52.8568 71.5433 52.7465C71.6366 52.541 71.7219 52.3638 71.8002 52.2136C72.0428 51.7516 72.2711 51.2621 72.485 50.7451C72.5771 50.5162 72.6362 50.3742 72.6611 50.319C72.8608 49.8689 72.9609 49.5469 72.9609 49.3532C72.9609 49.2821 72.9398 49.2236 72.8994 49.1788C72.8583 49.1326 72.7967 49.1098 72.7146 49.1098C72.5217 49.1098 72.2587 49.2264 71.924 49.4594C71.5881 49.6924 71.2833 50.0143 71.0096 50.4245L71.3194 50.348C71.4612 50.1626 71.6136 50.0005 71.7735 49.8627C71.8513 49.7909 71.975 49.7062 72.1417 49.6076Z" fill="#646464"></path><path d="M73.9337 49.4817H73.641L73.5056 49.4761L73.1939 49.4882H73.1306C73.1373 49.3977 73.1654 49.2928 73.214 49.1736C73.6814 49.1571 73.9583 49.1426 74.0463 49.1305C74.1084 48.9328 74.1615 48.7748 74.2051 48.6556C74.2998 48.3882 74.3977 48.0706 74.4984 47.7042C74.5292 47.585 74.5645 47.4765 74.602 47.3773C74.6725 47.3658 74.7541 47.3594 74.8471 47.3594C74.9244 47.3594 74.9976 47.3695 75.0682 47.3903L75.0777 47.4887C75.0777 47.567 74.9361 48.0197 74.6534 48.8466C74.6221 48.9408 74.5957 49.0377 74.574 49.1369C74.6657 49.1571 74.7189 49.1678 74.7351 49.1678H74.8348L74.9965 49.1736L75.4532 49.1613C75.4532 49.2971 75.4341 49.4078 75.3949 49.4947C75.2691 49.5112 75.1028 49.5198 74.8975 49.5198C74.7956 49.5198 74.7312 49.522 74.7027 49.5256C74.5415 49.5464 74.448 49.5666 74.4229 49.5874L73.6405 51.9964C73.5532 52.2285 73.4037 52.6703 73.1921 53.3221C73.1921 53.3464 73.2017 53.3745 73.2213 53.4075L73.2839 53.419C73.3701 53.419 73.4776 53.3501 73.6058 53.2093C73.8839 52.901 74.147 52.541 74.3938 52.13C74.4469 52.1667 74.4939 52.2098 74.5348 52.2593C74.2191 52.7573 73.9964 53.0856 73.8688 53.243C73.7401 53.4017 73.5772 53.567 73.3808 53.7373C73.1832 53.9083 73.0646 54.0038 73.0238 54.024C72.9521 54.0613 72.8782 54.0793 72.8033 54.0793C72.7254 54.0793 72.6672 54.0585 72.6297 54.0154C72.5922 53.9715 72.5732 53.909 72.5732 53.8271C72.5732 53.7079 72.6499 53.4298 72.8033 52.9936L73.0047 52.4196L73.7127 50.229C73.8039 49.9452 73.8772 49.6959 73.9337 49.4817Z" fill="#646464"></path><path d="M78.0168 46.6237L78.0361 46.5052C78.5879 46.4344 78.921 46.3984 79.036 46.3984C79.0706 46.3984 79.1216 46.4004 79.1885 46.4043L79.1647 46.5111L79.036 46.8884L78.7539 47.8289C78.7092 47.9724 78.6469 48.1931 78.5676 48.4938C78.4208 49.0493 78.2667 49.5503 78.1058 49.9944C77.9449 50.4398 77.7942 50.9232 77.6538 51.4452C77.7047 51.3699 77.7704 51.2651 77.8503 51.1302C78.3126 50.373 78.7007 49.8549 79.014 49.5772C79.2258 49.3899 79.4343 49.2962 79.6394 49.2962C79.8054 49.2962 79.9482 49.3767 80.0672 49.5379C80.1861 49.699 80.2462 49.9466 80.2462 50.2806C80.2462 50.7077 80.1533 51.214 79.9686 51.7964C79.7839 52.3799 79.5652 52.8542 79.3131 53.217C79.061 53.5812 78.8446 53.8157 78.665 53.9211C78.4848 54.0259 78.3222 54.0783 78.1767 54.0783C78.0509 54.0783 77.9551 54.0384 77.89 53.9598C77.7926 53.8438 77.745 53.724 77.745 53.5995C77.745 53.5433 77.7698 53.4902 77.8219 53.4398C77.8735 53.3893 77.9416 53.3637 78.0259 53.3637C78.0906 53.3637 78.1427 53.3795 78.1812 53.4115C78.2197 53.4436 78.2803 53.5288 78.3608 53.6677C78.4157 53.728 78.461 53.7581 78.4973 53.7581C78.5584 53.7581 78.6424 53.6775 78.7494 53.515C78.9595 53.1928 79.1958 52.5797 79.4582 51.6758C79.6683 50.9592 79.7737 50.4175 79.7737 50.0495C79.7737 49.8477 79.7493 49.7108 79.7006 49.6394C79.6513 49.568 79.5845 49.5319 79.4995 49.5319C79.4541 49.5319 79.4015 49.549 79.3431 49.5831C79.1669 49.6846 78.976 49.8581 78.7709 50.1057C78.5658 50.3533 78.2412 50.8321 77.7971 51.5409C77.7019 51.6994 77.5433 52.0596 77.3217 52.6217C77.1002 53.1836 76.9495 53.5792 76.8702 53.8098C76.8288 53.9245 76.7898 53.9978 76.7518 54.0299C76.7138 54.0619 76.6629 54.0783 76.6 54.0783C76.5309 54.0783 76.481 54.0633 76.451 54.0338C76.4215 54.0037 76.4062 53.9598 76.4062 53.9034C76.4062 53.8406 76.4317 53.7371 76.4821 53.595L76.8249 52.5869C76.8447 52.5384 76.8617 52.49 76.8776 52.4408L78.2253 47.8952L78.4208 47.2421C78.4729 47.0757 78.499 46.9624 78.499 46.9021C78.499 46.8563 78.4888 46.8216 78.4696 46.7966C78.4503 46.7724 78.4129 46.7541 78.3591 46.743C78.2327 46.7128 78.1189 46.6729 78.0168 46.6237Z" fill="#646464"></path><path d="M83.291 52.3925C83.3483 52.3925 83.4013 52.4004 83.4521 52.415C83.4774 52.939 83.6021 53.3501 83.8265 53.6475C83.9876 53.7724 84.1659 53.8437 84.3617 53.8629L84.5377 53.8682C84.733 53.8801 84.9332 53.8444 85.1367 53.7638C85.3404 53.6824 85.4866 53.5873 85.5754 53.4776C85.6923 53.3343 85.806 53.1208 85.9163 52.8373C85.9637 52.7156 85.9874 52.5518 85.9874 52.3442C85.9874 52.2187 85.9808 52.1149 85.9687 52.0317C85.9433 51.8882 85.8964 51.7085 85.8285 51.4911C85.7607 51.2736 85.6724 51.0317 85.5654 50.7668L85.1108 49.6248C85.0314 49.4279 84.9497 49.1642 84.8643 48.8351C84.8262 48.6837 84.8075 48.4974 84.8075 48.2779C84.8075 47.9793 84.8599 47.7123 84.9636 47.4777C85.0684 47.2424 85.2179 47.0368 85.4143 46.8611C85.6095 46.6846 85.7822 46.5683 85.9301 46.5121C86.1358 46.4355 86.3571 46.3984 86.5937 46.3984C87.0328 46.3984 87.4785 46.5101 87.9298 46.7335C87.921 46.9529 87.8973 47.1472 87.8586 47.3177C87.8057 47.5602 87.7499 47.7664 87.6931 47.9362C87.633 47.9362 87.5806 47.931 87.5364 47.9191C87.5332 47.7149 87.4956 47.469 87.4229 47.1816C87.382 47.019 87.2921 46.8789 87.1531 46.7612C87.0141 46.6443 86.8513 46.5854 86.6649 46.5854C86.3113 46.5854 86.0283 46.7124 85.8164 46.9661C85.6045 47.2199 85.4992 47.5602 85.4992 47.9885C85.4992 48.2231 85.5279 48.4518 85.5842 48.6731C85.641 48.8945 85.807 49.3353 86.0818 49.9942C86.2175 50.3161 86.32 50.5876 86.3896 50.8071C86.4056 50.8487 86.4508 51.0073 86.5247 51.2835C86.5992 51.5605 86.6395 51.729 86.6461 51.7897C86.6616 51.8955 86.6698 52.0172 86.6698 52.1533C86.6698 52.6905 86.5098 53.1187 86.191 53.4367C85.7585 53.8648 85.1875 54.0783 84.4803 54.0783C84.0318 54.0783 83.5817 53.9938 83.1299 53.8233V53.7889C83.1299 53.7175 83.147 53.5788 83.1823 53.3745C83.1944 53.2992 83.2197 53.0679 83.2579 52.6819C83.2639 52.6099 83.2755 52.514 83.291 52.3925Z" fill="#646464"></path><path fill-rule="evenodd" clip-rule="evenodd" d="M91.1104 53.2584C91.5502 52.7116 91.7706 52.0859 91.7706 51.3816C91.7706 50.9743 91.6956 50.6822 91.5453 50.5045C91.3949 50.3274 91.21 50.2383 90.9907 50.2383C90.7522 50.2383 90.5198 50.3093 90.2912 50.4526C90.062 50.5946 89.8646 50.7707 89.6989 50.9807C89.6426 51.0539 89.5923 51.1159 89.5485 51.1674C89.3544 51.3949 89.1963 51.6812 89.0744 52.0265C88.9519 52.3706 88.8906 52.675 88.8906 52.9391C88.8906 53.3316 88.9693 53.619 89.1257 53.8024C89.2822 53.9865 89.4878 54.0782 89.741 54.0782C90.2141 54.0782 90.6707 53.8046 91.1104 53.2584ZM89.4293 53.7637C89.3615 53.6969 89.3276 53.594 89.3276 53.4541C89.3276 53.138 89.4282 52.7286 89.6284 52.2243C89.8762 51.6049 90.1703 51.1192 90.5116 50.767C90.7117 50.557 90.9048 50.4526 91.0897 50.4526C91.1739 50.4526 91.2494 50.4896 91.315 50.5639C91.3806 50.6381 91.4135 50.7394 91.4135 50.8667C91.4135 51.2251 91.2789 51.7157 91.0093 52.3383C90.7402 52.9603 90.4712 53.3994 90.2015 53.6545C90.0512 53.7946 89.9024 53.864 89.7553 53.864C89.6049 53.864 89.4966 53.8306 89.4293 53.7637Z" fill="#646464"></path><path d="M93.2041 50.6421C93.1051 50.6842 92.9644 50.8004 92.7834 50.9908C92.666 51.0907 92.556 51.1951 92.4533 51.3039C92.3838 51.3819 92.3328 51.4368 92.2996 51.4664L92.1548 51.4352C92.2032 51.3445 92.3432 51.1746 92.5759 50.9249C92.8076 50.6753 93.0445 50.4815 93.2857 50.3428C93.4035 50.2731 93.5104 50.2383 93.6073 50.2383C93.6641 50.2383 93.7141 50.2594 93.7562 50.3016C93.7984 50.3444 93.8194 50.3892 93.8194 50.4378C93.8194 50.5011 93.7942 50.5876 93.7426 50.6969C93.7336 50.7148 93.711 50.7661 93.6752 50.851C93.5394 51.1676 93.2766 51.7075 92.8871 52.4686C92.5501 53.1214 92.3812 53.4914 92.3812 53.5789L92.3854 53.6064C92.4638 53.5948 92.5696 53.5309 92.7023 53.4164C93.0971 53.0808 93.3951 52.7994 93.5973 52.5726C93.6246 52.5456 93.6941 52.4733 93.8058 52.3552C94.149 51.9983 94.4344 51.6558 94.6602 51.3265C94.7955 51.1302 94.9887 50.7734 95.2388 50.2567C95.3229 50.2504 95.3935 50.2472 95.4509 50.2472C95.5204 50.2472 95.5741 50.2704 95.6105 50.3164C95.5473 50.5064 95.4283 50.8177 95.2535 51.2494L94.4117 53.3526C94.3601 53.4613 94.327 53.561 94.3117 53.6518L94.3438 53.6565C94.3649 53.6565 94.4143 53.6218 94.4927 53.5521C94.6676 53.3953 94.8139 53.2349 94.9313 53.0718C94.9861 52.9963 95.0324 52.9372 95.0719 52.8951L95.2161 52.9177C95.0719 53.1926 94.8276 53.4914 94.4838 53.8154C94.2937 53.9906 94.1448 54.0782 94.0358 54.0782C93.9968 54.0782 93.9457 54.0687 93.8821 54.0508C93.8283 53.9933 93.801 53.9389 93.801 53.8872C93.801 53.7363 93.8626 53.5157 93.9864 53.2259L94.6239 51.7339C94.6417 51.7044 94.6538 51.6738 94.6602 51.6431C94.6059 51.7044 94.487 51.8405 94.3028 52.0516C93.8689 52.5593 93.4957 52.9583 93.1835 53.248C92.8718 53.5383 92.5359 53.7879 92.1775 53.9959C92.09 54.0444 92.0043 54.0687 91.92 54.0687C91.8774 54.0687 91.842 54.0539 91.8131 54.0233C91.7852 53.9933 91.7705 53.951 91.7705 53.8967C91.7705 53.8481 91.781 53.7879 91.8021 53.7152C91.8505 53.561 91.9363 53.3647 92.06 53.1261L92.8334 51.5983L93.1498 50.9228C93.2071 50.832 93.2361 50.7655 93.2361 50.7233C93.2361 50.7085 93.2251 50.681 93.2041 50.6421Z" fill="#646464"></path><path d="M97.9286 49.4817H97.6358L97.5005 49.4761L97.1885 49.4882H97.1251C97.1319 49.3977 97.1597 49.2928 97.2087 49.1736C97.6762 49.1571 97.9526 49.1426 98.041 49.1305C98.1024 48.9328 98.1562 48.7748 98.1994 48.6556C98.2944 48.3882 98.3923 48.0706 98.4931 47.7042C98.5238 47.585 98.5594 47.4765 98.5968 47.3773C98.6669 47.3658 98.7485 47.3594 98.8416 47.3594C98.9184 47.3594 98.9923 47.3695 99.0624 47.3903L99.072 47.4887C99.072 47.567 98.9309 48.0197 98.6477 48.8466C98.617 48.9408 98.5901 49.0377 98.569 49.1369C98.6602 49.1571 98.7139 49.1678 98.7293 49.1678H98.8291L98.9914 49.1736L99.4473 49.1613C99.4473 49.2971 99.4291 49.4078 99.3897 49.4947C99.264 49.5112 99.097 49.5198 98.8915 49.5198C98.7898 49.5198 98.7254 49.522 98.6976 49.5256C98.5363 49.5464 98.4422 49.5666 98.4173 49.5874L97.6349 51.9964C97.5475 52.2285 97.3987 52.6703 97.1866 53.3221C97.1866 53.3464 97.1962 53.3745 97.2154 53.4075L97.2787 53.419C97.3651 53.419 97.4717 53.3501 97.6003 53.2093C97.8787 52.901 98.1418 52.541 98.3885 52.13C98.4413 52.1667 98.4883 52.2098 98.5296 52.2593C98.2138 52.7573 97.991 53.0856 97.8634 53.243C97.7347 53.4017 97.5715 53.567 97.3757 53.7373C97.1779 53.9083 97.0589 54.0038 97.0186 54.024C96.9466 54.0613 96.8727 54.0793 96.7978 54.0793C96.72 54.0793 96.6615 54.0585 96.624 54.0154C96.5866 53.9715 96.5674 53.909 96.5674 53.8271C96.5674 53.7079 96.6442 53.4298 96.7978 52.9936L96.9994 52.4196L97.7069 50.229C97.7981 49.9452 97.872 49.6959 97.9286 49.4817Z" fill="#646464"></path><path d="M100.1 46.6237L100.119 46.5052C100.671 46.4344 101.004 46.3984 101.12 46.3984C101.154 46.3984 101.205 46.4004 101.272 46.4043L101.248 46.5111L101.12 46.8884L100.837 47.8289C100.792 47.9724 100.73 48.1931 100.651 48.4938C100.504 49.0493 100.35 49.5503 100.189 49.9944C100.028 50.4398 99.8774 50.9232 99.7372 51.4452C99.7881 51.3699 99.8534 51.2651 99.934 51.1302C100.396 50.373 100.784 49.8549 101.098 49.5772C101.31 49.3899 101.518 49.2962 101.722 49.2962C101.889 49.2962 102.032 49.3767 102.151 49.5379C102.27 49.699 102.329 49.9466 102.329 50.2806C102.329 50.7077 102.237 51.214 102.052 51.7964C101.867 52.3799 101.649 52.8542 101.396 53.217C101.145 53.5812 100.928 53.8157 100.748 53.9211C100.569 54.0259 100.405 54.0783 100.26 54.0783C100.135 54.0783 100.039 54.0384 99.9734 53.9598C99.8755 53.8438 99.8284 53.724 99.8284 53.5995C99.8284 53.5433 99.8534 53.4902 99.9052 53.4398C99.9571 53.3893 100.025 53.3637 100.11 53.3637C100.174 53.3637 100.226 53.3795 100.264 53.4115C100.303 53.4436 100.364 53.5288 100.444 53.6677C100.499 53.728 100.545 53.7581 100.581 53.7581C100.642 53.7581 100.726 53.6775 100.833 53.515C101.043 53.1928 101.279 52.5797 101.541 51.6758C101.751 50.9592 101.857 50.4175 101.857 50.0495C101.857 49.8477 101.833 49.7108 101.784 49.6394C101.735 49.568 101.668 49.5319 101.583 49.5319C101.537 49.5319 101.484 49.549 101.427 49.5831C101.25 49.6846 101.059 49.8581 100.855 50.1057C100.649 50.3533 100.325 50.8321 99.8803 51.5409C99.7852 51.6994 99.6268 52.0596 99.4051 52.6217C99.1833 53.1836 99.0326 53.5792 98.9539 53.8098C98.9126 53.9245 98.8733 53.9978 98.8349 54.0299C98.7974 54.0619 98.7465 54.0783 98.6832 54.0783C98.6141 54.0783 98.5641 54.0633 98.5344 54.0338C98.5046 54.0037 98.4893 53.9598 98.4893 53.9034C98.4893 53.8406 98.5152 53.7371 98.5651 53.595L98.9078 52.5869C98.928 52.5384 98.9452 52.49 98.9606 52.4408L100.308 47.8952L100.504 47.2421C100.556 47.0757 100.582 46.9624 100.582 46.9021C100.582 46.8563 100.572 46.8216 100.553 46.7966C100.534 46.7724 100.497 46.7541 100.443 46.743C100.316 46.7128 100.202 46.6729 100.1 46.6237Z" fill="#646464"></path><path fill-rule="evenodd" clip-rule="evenodd" d="M106.369 53.5897C106.349 53.6077 106.331 53.6244 106.314 53.6397C106.262 53.6747 106.224 53.6975 106.2 53.7088L105.844 53.7781L105.271 53.8359L105.208 53.8648C105.208 53.934 105.214 53.997 105.224 54.0548C105.275 54.071 105.322 54.0783 105.365 54.0783L105.626 54.0723C105.724 54.0609 105.786 54.0548 105.815 54.0548H105.869C105.923 54.0474 106.007 54.0421 106.118 54.038L106.866 53.997L107.867 54.0669C107.893 53.997 107.907 53.9319 107.91 53.8708C107.881 53.8553 107.843 53.8439 107.802 53.8359C107.746 53.8318 107.661 53.8191 107.547 53.7955C107.462 53.7841 107.384 53.774 107.311 53.7666C107.151 53.7512 107.023 53.7156 106.93 53.6585C106.93 53.6055 106.926 53.5584 106.92 53.5161C106.945 53.4791 106.969 53.4389 106.993 53.3979C107.02 53.3737 107.048 53.3489 107.076 53.322C107.115 53.2763 107.158 53.2319 107.207 53.1897L107.598 52.7227C107.685 52.618 107.789 52.5044 107.91 52.3822C108.217 52.082 108.444 51.8435 108.595 51.6662C108.702 51.5782 108.792 51.4935 108.864 51.4123C108.935 51.3316 108.995 51.2759 109.043 51.2449C109.091 51.2416 109.127 51.2375 109.152 51.2335L110.195 51.1933C111.222 51.1624 111.834 51.1469 112.031 51.1469C112.189 51.1469 112.289 51.1489 112.33 51.153C112.327 51.2182 112.323 51.3202 112.321 51.4586C112.317 51.74 112.291 52.1478 112.241 52.6825C112.191 53.2171 112.156 53.5215 112.135 53.5947C112.126 53.629 112.102 53.6673 112.064 53.7088H112.039C112.022 53.7088 111.991 53.7149 111.946 53.727C111.776 53.7801 111.587 53.815 111.379 53.8298C111.252 53.8419 111.141 53.8627 111.042 53.8936L111.03 54.0548C111.103 54.071 111.166 54.0783 111.218 54.0783C111.245 54.0783 111.335 54.071 111.486 54.0548L111.637 54.0609L111.761 54.0434C111.951 54.0434 112.196 54.0239 112.496 53.9863L112.957 53.9742L113.594 54.0206C113.62 54.0237 113.69 54.0365 113.802 54.057L113.822 54.0609C113.839 53.9991 113.848 53.9535 113.848 53.9225L113.843 53.8473C113.693 53.7861 113.463 53.7377 113.154 53.7036C113.032 53.6874 112.957 53.6532 112.929 53.5987L112.944 53.369L112.94 53.2931L112.949 52.7973C112.953 52.7785 112.96 52.7456 112.97 52.6993V52.6126L112.98 52.3124L112.975 52.1861L113.16 49.4797C113.173 49.1526 113.184 48.949 113.19 48.8677L113.256 47.8299C113.259 47.541 113.273 47.318 113.298 47.1595C113.298 47.0211 113.309 46.7934 113.333 46.4737L113.328 46.4099C113.256 46.4025 113.2 46.3984 113.162 46.3984C113.122 46.3984 113.081 46.4025 113.04 46.4099C112.905 46.5831 112.82 46.6886 112.784 46.7276C112.657 46.874 112.484 47.0829 112.264 47.3556C112.201 47.4134 112.127 47.4934 112.041 47.5928L110.891 48.8099C110.074 49.6873 109.418 50.3744 108.919 50.8702C108.873 50.928 108.778 51.028 108.632 51.1698C108.579 51.2315 108.51 51.3068 108.423 51.3955C108.337 51.4834 108.267 51.5607 108.214 51.6259C108.161 51.6917 108.111 51.7447 108.066 51.7844C108.019 51.8254 107.927 51.9221 107.785 52.0759L106.544 53.4268L106.466 53.5013C106.43 53.5335 106.398 53.5629 106.369 53.5897ZM110.52 50.9569C110.481 50.9528 110.425 50.9508 110.349 50.9508C110.218 50.9508 110.091 50.9548 109.967 50.9629L109.705 50.9683C109.501 50.9683 109.372 50.9495 109.318 50.9118C109.411 50.7969 109.481 50.7137 109.526 50.6633C109.591 50.5947 109.651 50.5269 109.703 50.4611C109.755 50.3966 109.805 50.3428 109.854 50.2998C109.902 50.242 109.956 50.187 110.013 50.1353C110.07 50.0835 110.116 50.0365 110.151 49.9942C110.22 49.913 110.295 49.8364 110.372 49.7631C110.451 49.69 110.53 49.6053 110.61 49.5092L110.818 49.2895L112.022 48.02C112.136 47.8924 112.228 47.8043 112.297 47.754C112.444 47.6008 112.538 47.5122 112.582 47.4894L112.505 48.5681L112.408 50.2467C112.404 50.277 112.393 50.3642 112.373 50.5078L112.371 50.5181C112.365 50.6606 112.356 50.7667 112.346 50.8352C112.277 50.8393 112.204 50.8473 112.13 50.8581L111.289 50.9219L110.643 50.9569H110.52Z" fill="#646464"></path><path d="M112.091 55.2676C112.172 55.236 112.232 55.2208 112.273 55.2208C112.411 55.2208 112.533 55.301 112.638 55.4608C112.682 55.5306 112.727 55.5877 112.772 55.6332C112.873 55.7201 112.983 55.7632 113.1 55.7632C113.27 55.7632 113.481 55.6801 113.732 55.5124C113.944 55.3211 114.14 55.0465 114.326 54.6888C114.51 54.3316 114.672 53.9471 114.815 53.5354L115.411 51.7775C115.447 51.6694 115.484 51.5516 115.521 51.4228L115.921 50.1916C116.031 49.8782 116.114 49.6577 116.171 49.529C116.099 49.5253 116.043 49.5235 116.007 49.5235C115.978 49.5235 115.914 49.5266 115.813 49.5314C115.71 49.5363 115.472 49.5392 115.095 49.5392C115.107 49.4421 115.119 49.3552 115.131 49.2787C115.217 49.2714 115.308 49.2659 115.406 49.2623L116.287 49.2362C116.466 48.7254 116.667 48.2449 116.895 47.7967C117.037 47.5288 117.239 47.2592 117.503 46.9883C117.706 46.7829 117.946 46.6177 118.226 46.4926C118.361 46.4294 118.533 46.3984 118.744 46.3984C119.003 46.3984 119.212 46.4585 119.37 46.5782C119.528 46.6985 119.607 46.823 119.607 46.9518C119.607 47.035 119.574 47.1066 119.51 47.168C119.444 47.2293 119.372 47.2592 119.291 47.2592C119.185 47.2592 119.091 47.23 119.008 47.1705C118.924 47.1115 118.866 47.0192 118.829 46.8941C118.8 46.8036 118.762 46.7392 118.713 46.7009C118.66 46.6663 118.592 46.6493 118.507 46.6493C118.425 46.6493 118.355 46.6626 118.293 46.6906C118.168 46.7464 118.029 46.8528 117.88 47.0089C117.774 47.1237 117.662 47.2926 117.542 47.5148C117.423 47.7377 117.293 48.0548 117.153 48.4672C117.013 48.879 116.935 49.1335 116.918 49.2314L117.083 49.2416L117.654 49.2314C117.679 49.2314 117.741 49.2343 117.843 49.2416C117.848 49.2732 117.85 49.2975 117.85 49.3145C117.85 49.3668 117.837 49.4318 117.813 49.5083L116.809 49.5392L116.609 50.1236L116.098 51.6992C116.069 51.783 116.045 51.8504 116.026 51.9026C115.952 52.066 115.908 52.19 115.891 52.2732L115.441 53.5092C115.243 53.986 115.045 54.379 114.849 54.6888C114.652 54.9986 114.407 55.2767 114.116 55.5233C113.9 55.7007 113.674 55.8313 113.434 55.9145C113.28 55.9704 113.08 55.9983 112.833 55.9983C112.492 55.9983 112.256 55.9527 112.124 55.861C111.992 55.7694 111.927 55.66 111.927 55.5319C111.927 55.4103 111.981 55.3229 112.091 55.2676Z" fill="#646464"></path><path d="M117.903 50.6254C117.782 50.6986 117.668 50.7835 117.563 50.8799C117.533 50.9075 117.368 51.09 117.065 51.4272L116.84 51.4362C116.931 51.2724 117.1 51.0703 117.348 50.8306C117.595 50.591 117.81 50.4265 117.993 50.3385C118.109 50.2807 118.241 50.2473 118.386 50.2383C118.477 50.2595 118.54 50.2876 118.575 50.3242C118.609 50.3603 118.626 50.4038 118.626 50.4551C118.626 50.5055 118.619 50.557 118.605 50.6085C118.564 50.7739 118.484 51.0115 118.365 51.3211C118.245 51.6308 118.139 51.8753 118.045 52.0546L117.76 52.6145L117.738 52.6968C117.789 52.6241 117.893 52.4613 118.049 52.2094C118.646 51.2713 119.075 50.6927 119.337 50.4732C119.531 50.3162 119.756 50.2383 120.016 50.2383C120.162 50.2383 120.3 50.2866 120.427 50.3841C120.522 50.4599 120.569 50.5602 120.569 50.6843C120.569 50.8243 120.517 50.9446 120.411 51.0444C120.338 51.1144 120.233 51.1488 120.099 51.1488C119.986 51.1488 119.906 51.127 119.86 51.0831C119.815 51.039 119.786 50.9287 119.776 50.7526C119.728 50.6742 119.675 50.6349 119.616 50.6349C119.559 50.6349 119.496 50.6599 119.43 50.7118C119.255 50.8423 118.924 51.2596 118.437 51.9644C117.951 52.6692 117.647 53.1592 117.523 53.4334C117.401 53.7076 117.302 53.8969 117.225 53.9997C117.185 54.0522 117.111 54.0782 117.002 54.0782C116.904 54.0782 116.834 54.0634 116.793 54.0353C116.751 54.0061 116.729 53.969 116.729 53.9234C116.729 53.8624 116.749 53.7929 116.784 53.7133C116.942 53.3952 117.194 52.8071 117.541 51.9506L117.924 50.9759C117.95 50.889 117.968 50.8339 117.979 50.81L118.012 50.7426C118.012 50.7124 117.976 50.6736 117.903 50.6254Z" fill="#646464"></path><path fill-rule="evenodd" clip-rule="evenodd" d="M122.673 46.5612C122.577 46.6693 122.529 46.7928 122.529 46.9313C122.529 47.0775 122.568 47.194 122.646 47.2809C122.724 47.3677 122.82 47.4105 122.935 47.4105C123.106 47.4105 123.223 47.3732 123.287 47.2981C123.395 47.1678 123.447 47.0237 123.447 46.8659C123.447 46.7438 123.405 46.6349 123.319 46.5404C123.233 46.4453 123.131 46.3984 123.01 46.3984C122.881 46.3984 122.769 46.4529 122.673 46.5612ZM122.058 49.6076C122.094 49.5959 122.149 49.5896 122.224 49.5896C122.242 49.6414 122.251 49.6765 122.251 49.6965C122.251 49.72 122.24 49.7655 122.219 49.833C122.183 49.9392 122.121 50.0854 122.031 50.2708L121.171 52.0708C120.769 52.9119 120.567 53.4848 120.567 53.7881C120.567 53.875 120.596 53.9453 120.651 53.9984C120.708 54.0521 120.795 54.0783 120.914 54.0783C121.07 54.0783 121.249 54.0149 121.451 53.8894C121.718 53.7233 121.958 53.502 122.169 53.2263C122.379 52.9491 122.538 52.7044 122.646 52.4914H122.412C122.269 52.7285 122.105 52.9387 121.92 53.1222C121.736 53.3056 121.575 53.4372 121.441 53.5165C121.361 53.5634 121.301 53.5868 121.262 53.5868C121.234 53.5868 121.21 53.5765 121.19 53.5544C121.17 53.5331 121.162 53.5082 121.162 53.4807C121.162 53.3814 121.216 53.2297 121.326 53.0243C121.366 52.9491 121.41 52.8568 121.46 52.7465C121.553 52.541 121.638 52.3638 121.716 52.2136C121.959 51.7516 122.188 51.2621 122.402 50.7451C122.493 50.5162 122.553 50.3742 122.578 50.319C122.777 49.8689 122.877 49.5469 122.877 49.3532C122.877 49.2821 122.856 49.2236 122.816 49.1788C122.774 49.1326 122.713 49.1098 122.631 49.1098C122.438 49.1098 122.175 49.2264 121.84 49.4594C121.504 49.6924 121.2 50.0143 120.926 50.4245L121.236 50.348C121.378 50.1626 121.53 50.0005 121.69 49.8627C121.767 49.7909 121.891 49.7062 122.058 49.6076Z" fill="#646464"></path><path d="M125.915 51.0557C125.866 51.019 125.829 50.9855 125.803 50.9553C125.786 50.934 125.755 50.875 125.71 50.7793C125.664 50.6836 125.629 50.6247 125.606 50.6034C125.567 50.57 125.526 50.5534 125.483 50.5534C125.368 50.5534 125.245 50.6188 125.115 50.7496C124.873 50.9893 124.627 51.3862 124.38 51.939C124.133 52.4923 124.009 52.9509 124.009 53.3161C124.009 53.4527 124.03 53.5483 124.073 53.6031C124.106 53.6424 124.153 53.6621 124.214 53.6621C124.342 53.6621 124.482 53.5983 124.636 53.4708C124.841 53.3002 125.05 53.0626 125.263 52.7585C125.326 52.7463 125.375 52.74 125.408 52.74L125.483 52.7447C125.47 52.7995 125.379 52.944 125.209 53.1784C124.962 53.5133 124.737 53.7466 124.53 53.8789C124.324 54.0118 124.134 54.0782 123.96 54.0782C123.809 54.0782 123.693 54.0277 123.611 53.9273C123.503 53.7966 123.448 53.5904 123.448 53.3071C123.448 53.0636 123.513 52.7676 123.638 52.4178C123.764 52.0682 123.949 51.7313 124.196 51.4054C124.442 51.0807 124.642 50.8468 124.798 50.706C124.954 50.5641 125.145 50.444 125.37 50.343C125.524 50.2733 125.669 50.2383 125.803 50.2383C125.94 50.2383 126.062 50.2936 126.169 50.4046C126.275 50.5157 126.328 50.6459 126.328 50.7953C126.328 50.8867 126.303 50.9574 126.252 51.0073C126.201 51.0578 126.142 51.0828 126.073 51.0828C126.031 51.0828 125.978 51.0738 125.915 51.0557Z" fill="#646464"></path><path fill-rule="evenodd" clip-rule="evenodd" d="M129.689 50.4358C129.679 50.4669 129.658 50.5097 129.628 50.5628C129.569 50.5376 129.508 50.519 129.443 50.5064C129.378 50.4938 129.311 50.4878 129.24 50.4878C129.024 50.4878 128.768 50.5507 128.475 50.6755C128.252 50.7695 128.007 50.9184 127.74 51.1225C127.474 51.326 127.206 51.6018 126.935 51.9493C126.775 52.1501 126.619 52.4586 126.464 52.8751C126.374 53.1196 126.328 53.3417 126.328 53.5426C126.328 53.6799 126.346 53.7822 126.383 53.8478C126.431 53.9354 126.494 53.9994 126.572 54.041C126.614 54.0629 126.699 54.075 126.825 54.0782C126.975 54.0662 127.105 54.0394 127.215 53.9989C127.515 53.8545 127.703 53.7489 127.781 53.6832C128.121 53.3987 128.424 53.0961 128.687 52.7766C128.778 52.6605 128.855 52.573 128.916 52.5134C128.818 52.7229 128.753 52.8707 128.722 52.955C128.669 53.0928 128.625 53.1946 128.594 53.2608C128.563 53.3265 128.507 53.4627 128.429 53.6695C128.397 53.7888 128.382 53.8692 128.382 53.9124C128.382 53.9617 128.398 54.0011 128.432 54.0323C128.468 54.0629 128.52 54.0782 128.59 54.0782C128.699 54.0782 128.815 54.0454 128.939 53.9792C129.1 53.8916 129.28 53.7434 129.481 53.5333C129.679 53.3232 129.822 53.1568 129.907 53.0348C129.877 53.0004 129.845 52.9675 129.809 52.9363C129.78 52.9708 129.749 53.0085 129.716 53.049C129.671 53.1054 129.531 53.2509 129.295 53.4862C129.202 53.577 129.09 53.6613 128.958 53.7401C128.924 53.7094 128.907 53.6854 128.907 53.6674L128.926 53.6224C128.986 53.5217 129.053 53.3555 129.125 53.1218C129.198 52.8887 129.284 52.6589 129.383 52.4335C129.483 52.2081 129.6 51.9055 129.732 51.5263L130.045 50.6853L130.084 50.5912C130.114 50.491 130.135 50.4314 130.145 50.4128C130.16 50.3751 130.168 50.3471 130.168 50.3285L130.154 50.2717C130.104 50.2498 130.052 50.2383 129.997 50.2383C129.956 50.2383 129.892 50.2432 129.803 50.2525C129.765 50.281 129.727 50.3417 129.689 50.4358ZM127.519 53.5661C127.46 53.6005 127.392 53.6274 127.313 53.646C127.219 53.6553 127.159 53.6597 127.133 53.6597C127.058 53.6597 126.995 53.6323 126.947 53.5754C126.898 53.519 126.873 53.4325 126.873 53.3166C126.873 53.1759 126.934 52.9631 127.054 52.6775C127.142 52.4712 127.291 52.2136 127.503 51.9043C127.715 51.5963 127.934 51.343 128.162 51.146C128.332 51.0016 128.519 50.8822 128.723 50.7882C128.815 50.7477 128.924 50.7274 129.05 50.7274C129.161 50.7274 129.241 50.751 129.29 50.7981C129.363 50.8763 129.4 50.9594 129.4 51.047C129.4 51.0754 129.378 51.1848 129.334 51.3763L129.211 51.6998C129.083 51.9416 129.001 52.0888 128.96 52.1418C128.817 52.3552 128.689 52.5227 128.575 52.6447C128.523 52.701 128.297 52.9221 127.9 53.3078C127.682 53.4611 127.555 53.547 127.519 53.5661Z" fill="#646464"></path><path d="M132.428 50.8394C132.421 50.8154 132.412 50.7987 132.401 50.7898C132.39 50.781 132.376 50.7763 132.361 50.7763C132.194 50.7763 131.932 51.0217 131.579 51.5122C131.544 51.5154 131.518 51.5169 131.502 51.5169C131.482 51.5169 131.451 51.5154 131.405 51.5122C131.473 51.3868 131.583 51.228 131.736 51.0369C131.887 50.8452 132.05 50.6859 132.222 50.559C132.393 50.432 132.557 50.3365 132.711 50.2738C132.763 50.2529 132.809 50.2425 132.851 50.2425C132.867 50.2425 132.891 50.244 132.923 50.2471C132.981 50.301 133.011 50.3558 133.011 50.4127C133.011 50.4482 133.006 50.4843 132.998 50.5203C132.99 50.5563 132.973 50.6112 132.947 50.6864C132.851 50.9434 132.78 51.1246 132.736 51.2291L132.461 51.8935C132.396 52.0459 132.334 52.2073 132.273 52.3776C132.299 52.3483 132.321 52.3196 132.34 52.2925C132.64 51.8861 132.962 51.4965 133.308 51.1241C133.654 50.7517 133.94 50.5026 134.164 50.3772C134.326 50.2847 134.477 50.2383 134.623 50.2383C134.732 50.2383 134.817 50.2654 134.879 50.3213C134.94 50.3761 134.97 50.4477 134.97 50.5344C134.97 50.5888 134.964 50.6404 134.951 50.6917C134.929 50.8055 134.879 50.9637 134.802 51.167C134.724 51.3706 134.522 51.8114 134.193 52.4904L133.71 53.5267L133.691 53.5852C133.691 53.6029 133.703 53.6301 133.726 53.6656C133.905 53.6301 134.175 53.3637 134.536 52.867L134.733 52.8717C134.633 53.0389 134.47 53.2546 134.241 53.5178C134.064 53.7183 133.875 53.8735 133.672 53.9843C133.56 54.0474 133.439 54.0782 133.31 54.0782C133.233 54.0782 133.176 54.0636 133.137 54.0333C133.098 54.0036 133.079 53.9706 133.079 53.9351C133.079 53.7763 133.161 53.5309 133.325 53.1992L134.024 51.777L134.294 51.18C134.355 51.0484 134.393 50.9575 134.404 50.9063C134.418 50.8557 134.425 50.805 134.425 50.7538C134.425 50.7151 134.413 50.6843 134.391 50.6618C134.368 50.6394 134.339 50.6284 134.304 50.6284C134.252 50.6284 134.193 50.6478 134.125 50.6864C133.887 50.8186 133.625 51.0442 133.339 51.3643C132.927 51.825 132.653 52.1557 132.518 52.3557C132.181 52.8524 131.887 53.359 131.637 53.8761C131.598 53.9602 131.551 54.0218 131.497 54.0605C131.429 54.0694 131.378 54.0735 131.342 54.0735C131.301 54.0735 131.236 54.0667 131.15 54.0511C131.137 54.0275 131.13 54.0078 131.13 53.9931C131.13 53.9691 131.146 53.9158 131.179 53.8317C131.249 53.6369 131.423 53.2274 131.699 52.6023L131.811 52.3599L132.428 50.8394Z" fill="#646464"></path><path d="M135.133 55.2676C135.214 55.236 135.274 55.2208 135.315 55.2208C135.453 55.2208 135.575 55.301 135.68 55.4608C135.724 55.5306 135.769 55.5877 135.814 55.6332C135.915 55.7201 136.025 55.7632 136.142 55.7632C136.312 55.7632 136.523 55.6801 136.775 55.5124C136.986 55.3211 137.182 55.0465 137.368 54.6888C137.552 54.3316 137.714 53.9471 137.857 53.5354L138.453 51.7775C138.489 51.6694 138.526 51.5516 138.563 51.4228L138.963 50.1916C139.073 49.8782 139.156 49.6577 139.213 49.529C139.141 49.5253 139.085 49.5235 139.049 49.5235C139.02 49.5235 138.956 49.5266 138.855 49.5314C138.752 49.5363 138.514 49.5392 138.137 49.5392C138.149 49.4421 138.161 49.3552 138.173 49.2787C138.259 49.2714 138.35 49.2659 138.448 49.2623L139.329 49.2362C139.508 48.7254 139.709 48.2449 139.937 47.7967C140.079 47.5288 140.281 47.2592 140.545 46.9883C140.748 46.7829 140.988 46.6177 141.268 46.4926C141.403 46.4294 141.575 46.3984 141.786 46.3984C142.045 46.3984 142.254 46.4585 142.412 46.5782C142.57 46.6985 142.649 46.823 142.649 46.9518C142.649 47.035 142.616 47.1066 142.552 47.168C142.486 47.2293 142.414 47.2592 142.333 47.2592C142.227 47.2592 142.133 47.23 142.05 47.1705C141.966 47.1115 141.908 47.0192 141.871 46.8941C141.842 46.8036 141.804 46.7392 141.755 46.7009C141.702 46.6663 141.634 46.6493 141.549 46.6493C141.467 46.6493 141.397 46.6626 141.335 46.6906C141.21 46.7464 141.071 46.8528 140.922 47.0089C140.816 47.1237 140.704 47.2926 140.584 47.5148C140.465 47.7377 140.335 48.0548 140.195 48.4672C140.055 48.879 139.977 49.1335 139.96 49.2314L140.125 49.2416L140.696 49.2314C140.721 49.2314 140.783 49.2343 140.885 49.2416C140.89 49.2732 140.892 49.2975 140.892 49.3145C140.892 49.3668 140.879 49.4318 140.855 49.5083L139.851 49.5392L139.651 50.1236L139.14 51.6992C139.111 51.783 139.087 51.8504 139.068 51.9026C138.994 52.066 138.95 52.19 138.933 52.2732L138.483 53.5092C138.285 53.986 138.087 54.379 137.891 54.6888C137.694 54.9986 137.449 55.2767 137.158 55.5233C136.942 55.7007 136.716 55.8313 136.476 55.9145C136.322 55.9704 136.122 55.9983 135.875 55.9983C135.534 55.9983 135.298 55.9527 135.166 55.861C135.034 55.7694 134.969 55.66 134.969 55.5319C134.969 55.4103 135.023 55.3229 135.133 55.2676Z" fill="#646464"></path><path fill-rule="evenodd" clip-rule="evenodd" d="M143.792 46.5612C143.697 46.6693 143.649 46.7928 143.649 46.9313C143.649 47.0775 143.687 47.194 143.766 47.2809C143.844 47.3677 143.941 47.4105 144.054 47.4105C144.226 47.4105 144.343 47.3732 144.407 47.2981C144.515 47.1678 144.567 47.0237 144.567 46.8659C144.567 46.7438 144.524 46.6349 144.439 46.5404C144.353 46.4453 144.251 46.3984 144.13 46.3984C144 46.3984 143.889 46.4529 143.792 46.5612ZM143.178 49.6076C143.214 49.5959 143.269 49.5896 143.344 49.5896C143.362 49.6414 143.371 49.6765 143.371 49.6965C143.371 49.72 143.36 49.7655 143.339 49.833C143.302 49.9392 143.241 50.0854 143.151 50.2708L142.291 52.0708C141.889 52.9119 141.688 53.4848 141.688 53.7881C141.688 53.875 141.716 53.9453 141.771 53.9984C141.828 54.0521 141.915 54.0783 142.034 54.0783C142.191 54.0783 142.369 54.0149 142.571 53.8894C142.839 53.7233 143.079 53.502 143.289 53.2263C143.499 52.9491 143.658 52.7044 143.766 52.4914H143.531C143.39 52.7285 143.225 52.9387 143.039 53.1222C142.855 53.3056 142.695 53.4372 142.561 53.5165C142.481 53.5634 142.421 53.5868 142.382 53.5868C142.354 53.5868 142.33 53.5765 142.311 53.5544C142.29 53.5331 142.281 53.5082 142.281 53.4807C142.281 53.3814 142.336 53.2297 142.446 53.0243C142.485 52.9491 142.53 52.8568 142.58 52.7465C142.672 52.541 142.758 52.3638 142.837 52.2136C143.079 51.7516 143.307 51.2621 143.521 50.7451C143.613 50.5162 143.673 50.3742 143.698 50.319C143.896 49.8689 143.997 49.5469 143.997 49.3532C143.997 49.2821 143.976 49.2236 143.935 49.1788C143.895 49.1326 143.833 49.1098 143.751 49.1098C143.559 49.1098 143.295 49.2264 142.959 49.4594C142.624 49.6924 142.32 50.0143 142.046 50.4245L142.356 50.348C142.498 50.1626 142.649 50.0005 142.81 49.8627C142.887 49.7909 143.011 49.7062 143.178 49.6076Z" fill="#646464"></path><path d="M144.907 50.8394C144.901 50.8154 144.892 50.7987 144.88 50.7898C144.87 50.781 144.855 50.7763 144.84 50.7763C144.673 50.7763 144.412 51.0217 144.059 51.5122C144.023 51.5154 143.997 51.5169 143.982 51.5169C143.962 51.5169 143.93 51.5154 143.885 51.5122C143.952 51.3868 144.063 51.228 144.215 51.0369C144.367 50.8452 144.529 50.6859 144.702 50.559C144.873 50.432 145.037 50.3365 145.19 50.2738C145.242 50.2529 145.288 50.2425 145.331 50.2425C145.346 50.2425 145.371 50.244 145.403 50.2471C145.46 50.301 145.49 50.3558 145.49 50.4127C145.49 50.4482 145.485 50.4843 145.478 50.5203C145.47 50.5563 145.453 50.6112 145.427 50.6864C145.331 50.9434 145.26 51.1246 145.215 51.2291L144.941 51.8935C144.876 52.0459 144.813 52.2073 144.753 52.3776C144.779 52.3483 144.801 52.3196 144.82 52.2925C145.119 51.8861 145.441 51.4965 145.788 51.1241C146.133 50.7517 146.419 50.5026 146.644 50.3772C146.805 50.2847 146.957 50.2383 147.103 50.2383C147.211 50.2383 147.297 50.2654 147.358 50.3213C147.42 50.3761 147.449 50.4477 147.449 50.5344C147.449 50.5888 147.444 50.6404 147.43 50.6917C147.408 50.8055 147.358 50.9637 147.281 51.167C147.204 51.3706 147.001 51.8114 146.673 52.4904L146.19 53.5267L146.171 53.5852C146.171 53.6029 146.182 53.6301 146.205 53.6656C146.385 53.6301 146.654 53.3637 147.015 52.867L147.212 52.8717C147.112 53.0389 146.949 53.2546 146.721 53.5178C146.543 53.7183 146.354 53.8735 146.151 53.9843C146.039 54.0474 145.918 54.0782 145.79 54.0782C145.713 54.0782 145.655 54.0636 145.617 54.0333C145.577 54.0036 145.558 53.9706 145.558 53.9351C145.558 53.7763 145.641 53.5309 145.805 53.1992L146.504 51.777L146.774 51.18C146.835 51.0484 146.872 50.9575 146.884 50.9063C146.897 50.8557 146.904 50.805 146.904 50.7538C146.904 50.7151 146.893 50.6843 146.87 50.6618C146.847 50.6394 146.819 50.6284 146.783 50.6284C146.731 50.6284 146.673 50.6478 146.605 50.6864C146.366 50.8186 146.104 51.0442 145.818 51.3643C145.406 51.825 145.133 52.1557 144.998 52.3557C144.661 52.8524 144.367 53.359 144.116 53.8761C144.078 53.9602 144.031 54.0218 143.976 54.0605C143.909 54.0694 143.857 54.0735 143.822 54.0735C143.78 54.0735 143.716 54.0667 143.63 54.0511C143.616 54.0275 143.609 54.0078 143.609 53.9931C143.609 53.9691 143.626 53.9158 143.658 53.8317C143.728 53.6369 143.902 53.2274 144.179 52.6023L144.29 52.3599L144.907 50.8394Z" fill="#646464"></path><path fill-rule="evenodd" clip-rule="evenodd" d="M149.927 53.123C149.927 52.8405 149.985 52.5623 150.103 52.2862C150.441 52.2283 150.72 52.1715 150.935 52.1147C151.151 52.0584 151.283 52.0196 151.333 51.9984L151.773 51.7515C151.889 51.6751 151.999 51.5562 152.099 51.3926C152.2 51.2296 152.25 51.0644 152.25 50.8966C152.25 50.7076 152.185 50.551 152.054 50.4262C151.923 50.301 151.771 50.2383 151.597 50.2383C151.464 50.2383 151.333 50.2622 151.209 50.3094C151.082 50.3566 150.957 50.4257 150.834 50.5165C150.801 50.541 150.654 50.6747 150.388 50.918L149.98 51.4287C149.849 51.6177 149.731 51.8184 149.625 52.0309C149.557 52.1679 149.499 52.3377 149.447 52.5416C149.396 52.7455 149.37 52.9202 149.37 53.0662C149.37 53.4034 149.457 53.6683 149.63 53.8595C149.761 54.006 149.92 54.0782 150.107 54.0782C150.386 54.0782 150.657 53.9769 150.92 53.774C151.336 53.4469 151.597 53.1134 151.704 52.7742C151.651 52.7683 151.603 52.7652 151.561 52.7652H151.487C151.423 52.9229 151.34 53.0646 151.237 53.1921C151.134 53.319 151.037 53.422 150.943 53.5005C150.849 53.5791 150.737 53.6476 150.606 53.7044C150.545 53.7321 150.477 53.7459 150.399 53.7459C150.272 53.7459 150.172 53.7029 150.097 53.6184C149.984 53.4942 149.927 53.3285 149.927 53.123ZM150.722 51.9395C150.483 52.0192 150.305 52.0569 150.193 52.0536C150.249 51.8774 150.368 51.6416 150.547 51.347C150.788 50.9604 151.017 50.6853 151.237 50.5213C151.368 50.4273 151.481 50.3801 151.577 50.3801C151.651 50.3801 151.718 50.4087 151.778 50.4666C151.838 50.524 151.868 50.5972 151.868 50.6853C151.868 50.8192 151.84 50.9492 151.784 51.0751C151.727 51.202 151.644 51.3231 151.534 51.4404C151.425 51.5572 151.328 51.6405 151.242 51.6889C151.027 51.8136 150.853 51.897 150.722 51.9395Z" fill="#646464"></path><path d="M154.803 51.2961L154.645 51.2472C154.75 50.978 154.909 50.743 155.123 50.5429C155.337 50.3427 155.55 50.243 155.763 50.243C155.922 50.243 156.053 50.2929 156.16 50.3948C156.267 50.4956 156.32 50.6791 156.32 50.9437C156.32 51.2265 156.231 51.5654 156.053 51.9594C155.877 52.354 155.551 52.8946 155.081 53.5823C155.303 53.5231 155.565 53.4129 155.867 53.2523C156.298 53.023 156.664 52.7776 156.962 52.5157C157.106 52.3898 157.277 52.2038 157.473 51.9552C157.668 51.7063 157.788 51.5363 157.832 51.4437C157.909 51.2681 157.947 51.0986 157.947 50.9349C157.947 50.8574 157.925 50.796 157.881 50.7514C157.853 50.7222 157.816 50.7067 157.772 50.7067C157.716 50.7067 157.661 50.7191 157.609 50.7425C157.537 50.7779 157.46 50.8356 157.379 50.9157L157.064 51.292L156.889 51.2254C157.038 50.9822 157.179 50.794 157.312 50.6604C157.497 50.4706 157.645 50.3532 157.754 50.3074C157.863 50.2611 157.956 50.2383 158.033 50.2383C158.197 50.2383 158.325 50.2768 158.414 50.3542C158.554 50.4738 158.625 50.675 158.625 50.9583C158.625 51.2291 158.515 51.6185 158.295 52.1252C158.075 52.6315 157.786 53.1176 157.428 53.5823C158.186 53.3386 158.879 52.9455 159.508 52.4039C159.984 51.9901 160.222 51.5238 160.222 51.0061C160.222 50.9852 160.218 50.8782 160.21 50.6843C160.21 50.5835 160.241 50.4858 160.303 50.3922C160.366 50.2986 160.443 50.2512 160.537 50.2512C160.641 50.2512 160.726 50.2751 160.79 50.323C160.855 50.3709 160.887 50.4389 160.887 50.5278C160.887 50.8101 160.789 51.1241 160.594 51.4693C160.398 51.8139 160.067 52.1934 159.6 52.6066C159.272 52.8946 158.859 53.1591 158.359 53.4004C158.057 53.5459 157.542 53.7435 156.817 53.993C156.586 54.0502 156.461 54.0782 156.441 54.0782C156.413 54.0782 156.362 54.0662 156.29 54.0423C156.29 53.9977 156.295 53.968 156.305 53.953C156.315 53.9384 156.352 53.9026 156.417 53.8459C156.784 53.4441 157.071 53.0854 157.276 52.7699C157.482 52.4548 157.615 52.2089 157.676 52.0333C157.341 52.4324 157.038 52.7267 156.768 52.9169C156.376 53.1914 155.803 53.4992 155.044 53.8412C154.701 53.993 154.451 54.0694 154.294 54.0694C154.258 54.0694 154.227 54.06 154.203 54.0423C154.179 54.0247 154.167 54.0039 154.167 53.98C154.167 53.9384 154.175 53.901 154.191 53.8682C154.2 53.8563 154.278 53.7492 154.427 53.547C154.698 53.1779 154.895 52.8816 155.02 52.658C155.25 52.2505 155.424 51.8815 155.541 51.5509C155.62 51.3159 155.662 51.1236 155.662 50.9749C155.662 50.8855 155.637 50.8169 155.589 50.7695C155.556 50.7399 155.51 50.7248 155.45 50.7248C155.385 50.7248 155.308 50.7576 155.22 50.8225C155.131 50.8875 154.992 51.0455 154.803 51.2961Z" fill="#646464"></path><path fill-rule="evenodd" clip-rule="evenodd" d="M162.99 46.5612C162.895 46.6693 162.847 46.7928 162.847 46.9313C162.847 47.0775 162.885 47.194 162.964 47.2809C163.042 47.3677 163.139 47.4105 163.252 47.4105C163.424 47.4105 163.541 47.3732 163.605 47.2981C163.713 47.1678 163.766 47.0237 163.766 46.8659C163.766 46.7438 163.723 46.6349 163.637 46.5404C163.552 46.4453 163.449 46.3984 163.328 46.3984C163.198 46.3984 163.087 46.4529 162.99 46.5612ZM162.377 49.6076C162.412 49.5959 162.467 49.5896 162.543 49.5896C162.56 49.6414 162.57 49.6765 162.57 49.6965C162.57 49.72 162.558 49.7655 162.537 49.833C162.5 49.9392 162.439 50.0854 162.35 50.2708L161.49 52.0708C161.087 52.9119 160.886 53.4848 160.886 53.7881C160.886 53.875 160.915 53.9453 160.969 53.9984C161.026 54.0521 161.113 54.0783 161.232 54.0783C161.389 54.0783 161.567 54.0149 161.769 53.8894C162.037 53.7233 162.277 53.502 162.487 53.2263C162.697 52.9491 162.857 52.7044 162.964 52.4914H162.729C162.588 52.7285 162.424 52.9387 162.237 53.1222C162.053 53.3056 161.893 53.4372 161.759 53.5165C161.68 53.5634 161.619 53.5868 161.58 53.5868C161.552 53.5868 161.528 53.5765 161.509 53.5544C161.489 53.5331 161.479 53.5082 161.479 53.4807C161.479 53.3814 161.535 53.2297 161.644 53.0243C161.684 52.9491 161.729 52.8568 161.779 52.7465C161.871 52.541 161.956 52.3638 162.035 52.2136C162.278 51.7516 162.505 51.2621 162.719 50.7451C162.811 50.5162 162.871 50.3742 162.896 50.319C163.095 49.8689 163.195 49.5469 163.195 49.3532C163.195 49.2821 163.174 49.2236 163.133 49.1788C163.093 49.1326 163.031 49.1098 162.95 49.1098C162.757 49.1098 162.494 49.2264 162.158 49.4594C161.823 49.6924 161.518 50.0143 161.244 50.4245L161.554 50.348C161.696 50.1626 161.848 50.0005 162.008 49.8627C162.086 49.7909 162.21 49.7062 162.377 49.6076Z" fill="#646464"></path><path d="M165.064 50.8394C165.057 50.8154 165.048 50.7987 165.037 50.7898C165.026 50.781 165.012 50.7763 164.996 50.7763C164.828 50.7763 164.568 51.0217 164.215 51.5122C164.179 51.5154 164.153 51.5169 164.138 51.5169C164.118 51.5169 164.086 51.5154 164.042 51.5122C164.109 51.3868 164.219 51.228 164.371 51.0369C164.524 50.8452 164.686 50.6859 164.858 50.559C165.03 50.432 165.192 50.3365 165.347 50.2738C165.399 50.2529 165.445 50.2425 165.487 50.2425C165.502 50.2425 165.526 50.244 165.559 50.2471C165.616 50.301 165.645 50.3558 165.645 50.4127C165.645 50.4482 165.641 50.4843 165.634 50.5203C165.625 50.5563 165.609 50.6112 165.583 50.6864C165.487 50.9434 165.416 51.1246 165.371 51.2291L165.096 51.8935C165.032 52.0459 164.969 52.2073 164.909 52.3776C164.934 52.3483 164.957 52.3196 164.976 52.2925C165.275 51.8861 165.598 51.4965 165.944 51.1241C166.289 50.7517 166.575 50.5026 166.8 50.3772C166.96 50.2847 167.114 50.2383 167.258 50.2383C167.368 50.2383 167.453 50.2654 167.513 50.3213C167.576 50.3761 167.606 50.4477 167.606 50.5344C167.606 50.5888 167.6 50.6404 167.586 50.6917C167.564 50.8055 167.513 50.9637 167.438 51.167C167.36 51.3706 167.157 51.8114 166.829 52.4904L166.346 53.5267L166.327 53.5852C166.327 53.6029 166.338 53.6301 166.36 53.6656C166.541 53.6301 166.811 53.3637 167.171 52.867L167.368 52.8717C167.269 53.0389 167.105 53.2546 166.877 53.5178C166.7 53.7183 166.51 53.8735 166.308 53.9843C166.195 54.0474 166.074 54.0782 165.946 54.0782C165.869 54.0782 165.811 54.0636 165.772 54.0333C165.734 54.0036 165.714 53.9706 165.714 53.9351C165.714 53.7763 165.797 53.5309 165.96 53.1992L166.66 51.777L166.93 51.18C166.991 51.0484 167.028 50.9575 167.04 50.9063C167.054 50.8557 167.06 50.805 167.06 50.7538C167.06 50.7151 167.049 50.6843 167.026 50.6618C167.004 50.6394 166.974 50.6284 166.939 50.6284C166.888 50.6284 166.828 50.6478 166.761 50.6864C166.523 50.8186 166.261 51.0442 165.975 51.3643C165.563 51.825 165.289 52.1557 165.155 52.3557C164.818 52.8524 164.523 53.359 164.272 53.8761C164.234 53.9602 164.187 54.0218 164.133 54.0605C164.066 54.0694 164.014 54.0735 163.978 54.0735C163.937 54.0735 163.872 54.0667 163.786 54.0511C163.772 54.0275 163.766 54.0078 163.766 53.9931C163.766 53.9691 163.783 53.9158 163.815 53.8317C163.885 53.6369 164.059 53.2274 164.335 52.6023L164.446 52.3599L165.064 50.8394Z" fill="#646464"></path><path fill-rule="evenodd" clip-rule="evenodd" d="M168.167 53.123C168.167 52.8405 168.225 52.5623 168.342 52.2862C168.681 52.2283 168.959 52.1715 169.174 52.1147C169.39 52.0584 169.523 52.0196 169.573 51.9984L170.012 51.7515C170.129 51.6751 170.238 51.5562 170.339 51.3926C170.439 51.2296 170.489 51.0644 170.489 50.8966C170.489 50.7076 170.425 50.551 170.294 50.4262C170.163 50.301 170.01 50.2383 169.837 50.2383C169.703 50.2383 169.574 50.2622 169.448 50.3094C169.322 50.3566 169.197 50.4257 169.073 50.5165C169.042 50.541 168.894 50.6747 168.628 50.918L168.22 51.4287C168.089 51.6177 167.97 51.8184 167.864 52.0309C167.798 52.1679 167.738 52.3377 167.687 52.5416C167.635 52.7455 167.609 52.9202 167.609 53.0662C167.609 53.4034 167.697 53.6683 167.87 53.8595C168.001 54.006 168.159 54.0782 168.347 54.0782C168.626 54.0782 168.897 53.9769 169.159 53.774C169.575 53.4469 169.837 53.1134 169.943 52.7742C169.89 52.7683 169.842 52.7652 169.801 52.7652H169.726C169.662 52.9229 169.579 53.0646 169.477 53.1921C169.374 53.319 169.276 53.422 169.183 53.5005C169.089 53.5791 168.976 53.6476 168.845 53.7044C168.785 53.7321 168.716 53.7459 168.638 53.7459C168.511 53.7459 168.411 53.7029 168.336 53.6184C168.223 53.4942 168.167 53.3285 168.167 53.123ZM168.962 51.9395C168.722 52.0192 168.545 52.0569 168.432 52.0536C168.489 51.8774 168.607 51.6416 168.787 51.347C169.027 50.9604 169.257 50.6853 169.477 50.5213C169.607 50.4273 169.721 50.3801 169.816 50.3801C169.89 50.3801 169.958 50.4087 170.017 50.4666C170.078 50.524 170.108 50.5972 170.108 50.6853C170.108 50.8192 170.079 50.9492 170.023 51.0751C169.966 51.202 169.884 51.3231 169.774 51.4404C169.664 51.5572 169.567 51.6405 169.482 51.6889C169.266 51.8136 169.093 51.897 168.962 51.9395Z" fill="#646464"></path><path d="M170.489 53.6014C170.489 53.4733 170.539 53.361 170.64 53.2649C170.74 53.1689 170.856 53.1211 170.988 53.1211C171.117 53.1211 171.227 53.1663 171.316 53.2563C171.405 53.3467 171.449 53.4601 171.449 53.5968C171.449 53.7335 171.402 53.8483 171.308 53.9418C171.215 54.0348 171.102 54.0811 170.97 54.0811C170.841 54.0811 170.727 54.0343 170.633 53.9393C170.537 53.8447 170.489 53.7319 170.489 53.6014Z" fill="#646464"></path></svg> 