<?xml version="1.0" encoding="UTF-8"?> <svg xmlns="http://www.w3.org/2000/svg" width="1139" height="1051" viewBox="0 0 1139 1051" fill="none"><path d="M683.412 1042.02V422.588H541.632V300.079H683.412V247.771C683.412 194.546 694.883 149.58 717.825 112.874C741.684 76.1667 772.885 48.1777 811.427 28.9066C850.887 9.63553 894.477 0 942.195 0C952.29 0 963.302 0.917658 975.232 2.75298C988.079 3.67069 998.632 5.0472 1006.89 6.88252V121.133C999.55 119.297 990.832 118.38 980.738 118.38C970.643 117.462 962.843 117.003 957.337 117.003C915.124 117.003 880.253 127.097 852.722 147.286C826.11 167.475 812.804 200.97 812.804 247.771V300.079H988.997V422.588H812.804V1042.02H683.412Z" fill="#F0F0F0"></path><path d="M360.645 1050.28C288.149 1050.28 232.171 1029.63 192.711 988.333C154.169 947.038 134.898 888.765 134.898 813.516V422.588H0V300.079H27.5301C60.5663 300.079 86.72 289.985 105.991 269.796C125.262 249.607 134.898 222.995 134.898 189.958V129.392H262.913V300.079H429.47V422.588H262.913V809.387C262.913 834.164 266.584 855.729 273.925 874.083C282.184 892.436 295.49 907.119 313.844 918.131C332.197 928.225 356.515 933.272 386.799 933.272C393.222 933.272 401.022 932.814 410.199 931.896C420.294 930.978 429.47 930.061 437.729 929.143V1042.02C425.8 1044.77 412.493 1046.6 397.811 1047.52C383.128 1049.36 370.739 1050.28 360.645 1050.28Z" fill="#F0F0F0"></path><path d="M1139 954.154C1139 992.851 1107.63 1024.22 1068.93 1024.22C1030.24 1024.22 998.867 992.851 998.867 954.154C998.867 915.458 1030.24 884.088 1068.93 884.088C1107.63 884.088 1139 915.458 1139 954.154Z" fill="#F0F0F0"></path></svg> 