<?xml version="1.0" encoding="UTF-8"?> <svg xmlns="http://www.w3.org/2000/svg" width="4803" height="801" viewBox="0 0 4803 801" fill="none"><path d="M210.832 625.16C168.451 625.16 135.727 612.87 112.659 588.29C90.1269 563.709 78.861 529.024 78.861 484.233V251.539H0V178.617H16.0941C35.407 178.617 50.6964 172.609 61.9622 160.592C73.2281 148.575 78.861 132.734 78.861 113.07V77.0184H153.699V178.617H251.068V251.539H153.699V481.775C153.699 496.523 155.844 509.359 160.136 520.284C164.964 531.209 172.743 539.948 183.473 546.503C194.202 552.512 208.418 555.516 226.122 555.516C229.877 555.516 234.437 555.243 239.802 554.696C245.703 554.15 251.068 553.604 255.896 553.058V620.244C248.922 621.883 241.143 622.975 232.56 623.521C223.976 624.614 216.734 625.16 210.832 625.16Z" fill="#1F1F1F"></path><path d="M507.636 630.076C465.792 630.076 427.971 620.244 394.173 600.58C360.375 580.369 333.552 552.785 313.703 517.826C293.853 482.867 283.929 443.266 283.929 399.021C283.929 354.776 293.585 315.448 312.898 281.035C332.747 246.623 359.571 219.311 393.368 199.101C427.166 178.89 465.255 168.785 507.636 168.785C549.481 168.785 587.302 178.89 621.1 199.101C654.897 218.765 681.452 245.803 700.765 280.216C720.615 314.628 730.539 354.23 730.539 399.021C730.539 443.812 720.346 483.687 699.961 518.645C679.575 553.058 652.483 580.369 618.685 600.58C585.424 620.244 548.408 630.076 507.636 630.076ZM507.636 556.335C534.46 556.335 558.601 549.507 580.06 535.852C602.055 522.196 619.222 503.351 631.561 479.317C644.436 455.283 650.874 428.517 650.874 399.021C650.874 368.978 644.436 342.486 631.561 319.545C619.222 296.057 602.055 277.485 580.06 263.829C558.601 249.627 534.46 242.526 507.636 242.526C480.276 242.526 455.599 249.627 433.604 263.829C412.145 277.485 394.978 296.057 382.102 319.545C369.227 342.486 362.79 368.978 362.79 399.021C362.79 428.517 369.227 455.283 382.102 479.317C394.978 503.351 412.145 522.196 433.604 535.852C455.599 549.507 480.276 556.335 507.636 556.335Z" fill="#1F1F1F"></path><path d="M941.611 630.076C910.496 630.076 882.331 622.702 857.117 607.954C832.439 593.206 813.126 572.722 799.178 546.503C785.766 519.738 779.06 489.149 779.06 454.736V178.617H853.898V446.543C853.898 468.392 858.19 487.51 866.773 503.897C875.893 520.284 888.232 533.12 903.79 542.406C919.884 551.692 938.124 556.335 958.509 556.335C978.895 556.335 996.867 551.692 1012.42 542.406C1028.52 533.12 1040.86 519.738 1049.44 502.258C1058.56 484.779 1063.12 464.022 1063.12 439.988V178.617H1138.76V620.244H1065.54V534.213L1077.61 541.587C1067.41 569.445 1049.98 591.294 1025.3 607.135C1001.16 622.429 973.262 630.076 941.611 630.076Z" fill="#1F1F1F"></path><path d="M1415.64 630.076C1373.26 630.076 1335.44 619.971 1302.18 599.76C1269.46 579.55 1243.71 551.965 1224.93 517.007C1206.15 482.048 1196.76 442.719 1196.76 399.021C1196.76 354.776 1206.15 315.448 1224.93 281.035C1243.71 246.623 1269.46 219.311 1302.18 199.101C1335.44 178.89 1373.26 168.785 1415.64 168.785C1444.08 168.785 1470.63 173.974 1495.31 184.353C1519.99 194.731 1541.71 208.66 1560.49 226.139C1579.27 243.619 1592.95 264.102 1601.53 287.59L1534.74 320.364C1524.55 297.422 1508.99 278.85 1488.07 264.648C1467.15 249.9 1443 242.526 1415.64 242.526C1389.36 242.526 1365.48 249.354 1344.03 263.01C1323.1 276.665 1306.47 295.237 1294.13 318.725C1281.8 342.213 1275.63 369.251 1275.63 399.84C1275.63 429.337 1281.8 456.102 1294.13 480.136C1306.47 503.624 1323.1 522.196 1344.03 535.852C1365.48 549.507 1389.36 556.335 1415.64 556.335C1443 556.335 1467.15 549.234 1488.07 535.032C1508.99 520.284 1524.55 500.893 1534.74 476.859L1601.53 511.271C1592.95 534.213 1579.27 554.697 1560.49 572.722C1541.71 590.202 1519.99 604.13 1495.31 614.509C1470.63 624.887 1444.08 630.076 1415.64 630.076Z" fill="#1F1F1F"></path><path d="M1659.1 620.244V0H1733.94V264.648L1720.26 257.274C1730.99 229.417 1748.15 207.84 1771.76 192.546C1795.9 176.705 1824.06 168.785 1856.25 168.785C1887.37 168.785 1914.99 175.886 1939.14 190.088C1963.81 204.29 1983.13 223.954 1997.07 249.081C2011.56 274.207 2018.8 302.611 2018.8 334.293V620.244H1943.16V358.873C1943.16 334.293 1938.6 313.536 1929.48 296.603C1920.9 279.67 1908.83 266.56 1893.27 257.274C1877.71 247.442 1859.74 242.526 1839.35 242.526C1819.5 242.526 1801.53 247.442 1785.44 257.274C1769.34 266.56 1756.74 279.943 1747.62 297.422C1738.5 314.355 1733.94 334.839 1733.94 358.873V620.244H1659.1Z" fill="#1F1F1F"></path><path d="M2131.52 620.244V251.539H2048.64V178.617H2131.52V147.482C2131.52 115.801 2138.23 89.0355 2151.64 67.1863C2165.59 45.3371 2183.83 28.677 2206.36 17.2062C2229.43 5.73539 2254.91 0 2282.81 0C2288.71 0 2295.15 0.546203 2302.12 1.63865C2309.63 2.1849 2315.8 3.00426 2320.63 4.0967V72.1023C2316.34 71.0099 2311.24 70.4637 2305.34 70.4637C2299.44 69.9174 2294.88 69.6443 2291.66 69.6443C2266.98 69.6443 2246.6 75.6528 2230.5 87.6699C2214.94 99.687 2207.16 119.624 2207.16 147.482V178.617H2310.17V251.539H2207.16V620.244H2131.52Z" fill="#1F1F1F"></path><path d="M2550.83 630.076C2508.99 630.076 2471.16 620.244 2437.37 600.58C2403.57 580.369 2376.75 552.785 2356.9 517.826C2337.05 482.867 2327.12 443.266 2327.12 399.021C2327.12 354.776 2336.78 315.448 2356.09 281.035C2375.94 246.623 2402.76 219.311 2436.56 199.101C2470.36 178.89 2508.45 168.785 2550.83 168.785C2592.67 168.785 2630.5 178.89 2664.29 199.101C2698.09 218.765 2724.65 245.803 2743.96 280.216C2763.81 314.628 2773.73 354.23 2773.73 399.021C2773.73 443.812 2763.54 483.687 2743.15 518.645C2722.77 553.058 2695.68 580.369 2661.88 600.58C2628.62 620.244 2591.6 630.076 2550.83 630.076ZM2550.83 556.335C2577.65 556.335 2601.79 549.507 2623.25 535.852C2645.25 522.196 2662.42 503.351 2674.75 479.317C2687.63 455.283 2694.07 428.517 2694.07 399.021C2694.07 368.978 2687.63 342.486 2674.75 319.545C2662.42 296.057 2645.25 277.485 2623.25 263.829C2601.79 249.627 2577.65 242.526 2550.83 242.526C2523.47 242.526 2498.79 249.627 2476.8 263.829C2455.34 277.485 2438.17 296.057 2425.3 319.545C2412.42 342.486 2405.98 368.978 2405.98 399.021C2405.98 428.517 2412.42 455.283 2425.3 479.317C2438.17 503.351 2455.34 522.196 2476.8 535.852C2498.79 549.507 2523.47 556.335 2550.83 556.335Z" fill="#1F1F1F"></path><path d="M2984.8 630.076C2953.69 630.076 2925.52 622.702 2900.31 607.954C2875.63 593.206 2856.32 572.722 2842.37 546.503C2828.96 519.738 2822.25 489.149 2822.25 454.736V178.617H2897.09V446.543C2897.09 468.392 2901.38 487.51 2909.97 503.897C2919.09 520.284 2931.43 533.12 2946.98 542.406C2963.08 551.692 2981.32 556.335 3001.7 556.335C3022.09 556.335 3040.06 551.692 3055.62 542.406C3071.71 533.12 3084.05 519.738 3092.63 502.258C3101.75 484.779 3106.31 464.022 3106.31 439.988V178.617H3181.96V620.244H3108.73V534.213L3120.8 541.587C3110.61 569.445 3093.17 591.294 3068.49 607.135C3044.35 622.429 3016.46 630.076 2984.8 630.076Z" fill="#1F1F1F"></path><path d="M3257.66 620.244V178.617H3330.89V264.648L3318.82 257.274C3329.55 229.417 3346.72 207.84 3370.32 192.546C3394.46 176.705 3422.63 168.785 3454.81 168.785C3485.93 168.785 3513.56 175.886 3537.7 190.088C3562.38 204.29 3581.69 223.954 3595.64 249.081C3610.12 274.207 3617.37 302.611 3617.37 334.293V620.244H3541.72V358.873C3541.72 334.293 3537.43 313.536 3528.85 296.603C3520.26 279.67 3507.93 266.56 3491.83 257.274C3476.27 247.442 3458.3 242.526 3437.92 242.526C3417.53 242.526 3399.29 247.442 3383.2 257.274C3367.64 266.56 3355.3 279.943 3346.18 297.422C3337.06 314.355 3332.5 334.839 3332.5 358.873V620.244H3257.66Z" fill="#1F1F1F"></path><path d="M3881.37 630.076C3840.6 630.076 3803.85 619.971 3771.13 599.76C3738.94 579.55 3713.46 551.965 3694.68 517.007C3675.9 482.048 3666.51 442.993 3666.51 399.84C3666.51 355.596 3675.9 316.267 3694.68 281.855C3713.46 246.896 3738.94 219.311 3771.13 199.101C3803.85 178.89 3840.6 168.785 3881.37 168.785C3917.31 168.785 3949.23 176.705 3977.13 192.546C4005.03 207.84 4027.02 228.597 4043.12 254.816L4031.05 273.661V0H4106.69V620.244H4033.46V526.02L4043.12 539.129C4028.1 568.079 4006.1 590.475 3977.13 606.315C3948.7 622.156 3916.78 630.076 3881.37 630.076ZM3887.81 556.335C3915.17 556.335 3939.58 549.507 3961.04 535.852C3982.5 522.196 3999.39 503.624 4011.73 480.136C4024.61 456.102 4031.05 429.337 4031.05 399.84C4031.05 369.798 4024.61 343.032 4011.73 319.545C3999.39 295.51 3982.5 276.665 3961.04 263.01C3939.58 249.354 3915.17 242.526 3887.81 242.526C3860.98 242.526 3836.58 249.627 3814.58 263.829C3793.12 277.485 3776.22 296.057 3763.88 319.545C3751.54 342.486 3745.38 369.251 3745.38 399.84C3745.38 429.337 3751.54 456.102 3763.88 480.136C3776.22 503.624 3793.12 522.196 3814.58 535.852C3836.04 549.507 3860.45 556.335 3887.81 556.335Z" fill="#1F1F1F"></path><path d="M4182.29 620.244V178.617H4255.51V259.732L4247.47 248.261C4257.66 223.135 4273.22 204.563 4294.14 192.546C4315.06 179.983 4340.54 173.701 4370.59 173.701H4397.14L4398.99 245.803H4359.32C4328.74 245.803 4304.06 255.636 4285.29 275.3C4266.51 294.418 4257.12 321.729 4257.12 357.234V620.244H4182.29Z" fill="#1F1F1F"></path><path d="M4446.72 800.5C4437.06 800.5 4427.41 799.681 4417.75 798.042C4408.09 796.95 4398.97 794.491 4390.39 790.668V722.662C4396.29 723.208 4403.53 724.301 4412.12 725.94C4421.24 727.578 4430.09 728.398 4438.67 728.398C4463.89 728.398 4482.93 722.662 4495.81 711.191C4509.22 699.721 4521.83 680.329 4533.63 653.018L4560.99 586.651L4559.38 653.018L4370.59 173.701L4452.68 173.701L4599.61 555.516H4575.47L4721.89 173.701H4803L4606.05 672.682C4596.93 696.17 4585.13 717.746 4570.64 737.41C4556.7 757.075 4539.53 772.369 4519.14 783.294C4498.76 794.765 4474.62 800.5 4446.72 800.5Z" fill="#1F1F1F"></path></svg> 