<svg width="138" height="36" viewBox="0 0 138 36" fill="none" xmlns="http://www.w3.org/2000/svg">
<rect width="138" height="36" fill="white"/>
<path d="M11.3079 32.6553L8.05542 27.0219L12.8286 18.7773L15.8617 24.0312L33.7669 24.0216L28.6862 32.7331L11.3079 32.6553Z" fill="#DEB038"/>
<path d="M11.809 3.26367H18.3139L23.0674 11.5197L17.0007 11.5194L8.05657 27.0306L3.05249 18.2749L11.809 3.26367Z" fill="#716C6C"/>
<path fill-rule="evenodd" clip-rule="evenodd" d="M19.107 1.95943L19.0876 1.92578H11.0406L1.50757 18.2682L8.05151 29.7182L8.05954 29.7043L10.5334 33.9892L29.4528 34.0738L36.0969 22.6815H36.0527L38.5071 18.4304L29.1207 2.00336L19.107 1.95943ZM25.3318 12.8578H25.382L20.6517 4.64234L27.5638 4.67265L35.421 18.4235L32.9617 22.6833L26.5167 22.6867L28.7638 18.7948L25.3318 12.8578ZM17.4683 4.60184L20.6937 10.1816L16.2279 10.1815L8.58238 23.4404L8.06086 24.3413L4.59773 18.2818L12.5777 4.60184H17.4683ZM14.3672 18.7654L17.7738 12.8576L22.2408 12.8578L25.6732 18.7956L23.4256 22.6884L16.6341 22.6921L14.3672 18.7654ZM9.6036 27.0265L10.8996 24.779L12.8269 21.4499L15.0894 25.369L21.8799 25.3653L21.8689 25.3843L31.4161 25.3956L27.9196 31.3909L12.0824 31.32L9.6036 27.0265Z" fill="#333237"/>
<path d="M44.543 27V12.7227H48.4004V23.8848H53.8984V27H44.543ZM67.1207 15.9355V27H64.2398L63.7613 25.623H63.5367C63.3089 25.9941 63.0191 26.2969 62.6676 26.5312C62.3225 26.7591 61.9384 26.9251 61.5152 27.0293C61.0921 27.14 60.6526 27.1953 60.1969 27.1953C59.4742 27.1953 58.8199 27.0553 58.234 26.7754C57.6546 26.4954 57.1923 26.056 56.8473 25.457C56.5087 24.8581 56.3395 24.0866 56.3395 23.1426V15.9355H60.1578V21.9805C60.1578 22.6966 60.2587 23.2435 60.4605 23.6211C60.6689 23.9922 61.0074 24.1777 61.4762 24.1777C61.9579 24.1777 62.329 24.0475 62.5895 23.7871C62.8564 23.5267 63.0419 23.1426 63.1461 22.6348C63.2503 22.127 63.3023 21.5085 63.3023 20.7793V15.9355H67.1207ZM73.9758 27H70.1574V11.8047H73.9758V27ZM82.4227 15.7402C83.8224 15.7402 84.9161 16.0885 85.7039 16.7852C86.4917 17.4753 86.8855 18.4616 86.8855 19.7441V27H84.2391L83.5066 25.5352H83.4285C83.116 25.9258 82.7938 26.2448 82.4617 26.4922C82.1362 26.7331 81.7618 26.9089 81.3387 27.0195C80.9155 27.1367 80.3979 27.1953 79.7859 27.1953C79.1479 27.1953 78.575 27.0651 78.0672 26.8047C77.5594 26.5443 77.159 26.1504 76.866 25.623C76.573 25.0957 76.4266 24.4284 76.4266 23.6211C76.4266 22.4362 76.8367 21.5573 77.657 20.9844C78.4773 20.4115 79.6655 20.0892 81.2215 20.0176L83.0672 19.959V19.8027C83.0672 19.3079 82.9435 18.9564 82.6961 18.748C82.4552 18.5397 82.1297 18.4355 81.7195 18.4355C81.2833 18.4355 80.7951 18.5137 80.2547 18.6699C79.7208 18.8197 79.1837 19.015 78.6434 19.2559L77.5398 16.7363C78.1779 16.4108 78.9005 16.1634 79.7078 15.9941C80.5151 15.8249 81.4201 15.7402 82.4227 15.7402ZM83.0867 22.0586L82.2078 22.0977C81.5047 22.1237 81.0099 22.2474 80.7234 22.4688C80.4435 22.6836 80.3035 22.9928 80.3035 23.3965C80.3035 23.7741 80.4044 24.054 80.6063 24.2363C80.8081 24.4121 81.075 24.5 81.407 24.5C81.8693 24.5 82.2632 24.3535 82.5887 24.0605C82.9207 23.7676 83.0867 23.3867 83.0867 22.918V22.0586ZM102.227 19.5586C102.227 21.2188 101.918 22.599 101.299 23.6992C100.681 24.7995 99.8083 25.6263 98.682 26.1797C97.5622 26.7266 96.2439 27 94.727 27H90.1078V12.7227H95.0492C96.5857 12.7227 97.8878 12.9863 98.9555 13.5137C100.023 14.041 100.834 14.8125 101.387 15.8281C101.947 16.8438 102.227 18.0872 102.227 19.5586ZM98.223 19.6953C98.223 18.8294 98.1059 18.1133 97.8715 17.5469C97.6436 16.974 97.2986 16.5475 96.8363 16.2676C96.3741 15.9811 95.7914 15.8379 95.0883 15.8379H93.9652V23.8359H94.8246C95.9965 23.8359 96.8559 23.4974 97.4027 22.8203C97.9496 22.1367 98.223 21.0951 98.223 19.6953ZM114.531 22.6641C114.531 23.4388 114.336 24.1745 113.945 24.8711C113.555 25.5612 112.946 26.1211 112.119 26.5508C111.299 26.9805 110.238 27.1953 108.936 27.1953C108.285 27.1953 107.712 27.166 107.217 27.1074C106.729 27.0488 106.273 26.9544 105.85 26.8242C105.426 26.6875 104.987 26.5117 104.531 26.2969V22.8594C105.306 23.25 106.087 23.5495 106.875 23.7578C107.663 23.9596 108.376 24.0605 109.014 24.0605C109.398 24.0605 109.71 24.015 109.951 23.9238C110.199 23.8327 110.381 23.709 110.498 23.5527C110.615 23.39 110.674 23.2044 110.674 22.9961C110.674 22.7487 110.586 22.5404 110.41 22.3711C110.241 22.1953 109.967 22.013 109.59 21.8242C109.212 21.6354 108.714 21.401 108.096 21.1211C107.568 20.8737 107.09 20.6198 106.66 20.3594C106.237 20.099 105.872 19.8027 105.566 19.4707C105.267 19.1322 105.036 18.7383 104.873 18.2891C104.71 17.8398 104.629 17.3092 104.629 16.6973C104.629 15.7793 104.854 15.0111 105.303 14.3926C105.758 13.7676 106.39 13.2988 107.197 12.9863C108.011 12.6738 108.949 12.5176 110.01 12.5176C110.941 12.5176 111.777 12.6217 112.52 12.8301C113.268 13.0384 113.939 13.276 114.531 13.543L113.35 16.5215C112.738 16.2415 112.135 16.0202 111.543 15.8574C110.951 15.6882 110.4 15.6035 109.893 15.6035C109.561 15.6035 109.287 15.6458 109.072 15.7305C108.864 15.8086 108.708 15.916 108.604 16.0527C108.506 16.1895 108.457 16.3457 108.457 16.5215C108.457 16.7428 108.542 16.9414 108.711 17.1172C108.887 17.293 109.176 17.485 109.58 17.6934C109.99 17.8952 110.547 18.1589 111.25 18.4844C111.947 18.7969 112.539 19.1354 113.027 19.5C113.516 19.8581 113.887 20.291 114.141 20.7988C114.401 21.3001 114.531 21.9219 114.531 22.6641Z" fill="black"/>
</svg>
