<svg width="194" height="166" viewBox="0 0 194 166" fill="none" xmlns="http://www.w3.org/2000/svg">
<rect width="194" height="166" fill="#101012"/>
<circle opacity="0.15" cx="25" cy="25" r="1" fill="white"/>
<circle opacity="0.15" cx="25" cy="53" r="1" fill="white"/>
<circle opacity="0.15" cx="25" cy="81" r="1" fill="white"/>
<circle opacity="0.15" cx="25" cy="109" r="1" fill="white"/>
<circle opacity="0.15" cx="25" cy="137" r="1" fill="white"/>
<circle opacity="0.15" cx="25" cy="165" r="1" fill="white"/>
<circle opacity="0.15" cx="53" cy="25" r="1" fill="white"/>
<circle opacity="0.15" cx="53" cy="53" r="1" fill="white"/>
<circle opacity="0.15" cx="53" cy="81" r="1" fill="white"/>
<circle opacity="0.15" cx="53" cy="109" r="1" fill="white"/>
<circle opacity="0.15" cx="53" cy="137" r="1" fill="white"/>
<circle opacity="0.15" cx="53" cy="165" r="1" fill="white"/>
<circle opacity="0.15" cx="81" cy="25" r="1" fill="white"/>
<circle opacity="0.15" cx="81" cy="53" r="1" fill="white"/>
<circle opacity="0.15" cx="81" cy="81" r="1" fill="white"/>
<circle opacity="0.15" cx="81" cy="109" r="1" fill="white"/>
<circle opacity="0.15" cx="81" cy="137" r="1" fill="white"/>
<circle opacity="0.15" cx="81" cy="165" r="1" fill="white"/>
<circle opacity="0.15" cx="109" cy="25" r="1" fill="white"/>
<circle opacity="0.15" cx="109" cy="53" r="1" fill="white"/>
<circle opacity="0.15" cx="109" cy="81" r="1" fill="white"/>
<circle opacity="0.15" cx="109" cy="109" r="1" fill="white"/>
<circle opacity="0.15" cx="109" cy="137" r="1" fill="white"/>
<circle opacity="0.15" cx="109" cy="165" r="1" fill="white"/>
<circle opacity="0.15" cx="137" cy="25" r="1" fill="white"/>
<circle opacity="0.15" cx="137" cy="53" r="1" fill="white"/>
<circle opacity="0.15" cx="137" cy="81" r="1" fill="white"/>
<circle opacity="0.15" cx="137" cy="109" r="1" fill="white"/>
<circle opacity="0.15" cx="137" cy="137" r="1" fill="white"/>
<circle opacity="0.15" cx="137" cy="165" r="1" fill="white"/>
<circle opacity="0.15" cx="165" cy="25" r="1" fill="white"/>
<circle opacity="0.15" cx="165" cy="53" r="1" fill="white"/>
<circle opacity="0.15" cx="165" cy="81" r="1" fill="white"/>
<circle opacity="0.15" cx="165" cy="109" r="1" fill="white"/>
<circle opacity="0.15" cx="165" cy="137" r="1" fill="white"/>
<circle opacity="0.15" cx="165" cy="165" r="1" fill="white"/>
<circle opacity="0.15" cx="193" cy="25" r="1" fill="white"/>
<circle opacity="0.15" cx="193" cy="53" r="1" fill="white"/>
<circle opacity="0.15" cx="193" cy="81" r="1" fill="white"/>
<circle opacity="0.15" cx="193" cy="109" r="1" fill="white"/>
<circle opacity="0.15" cx="193" cy="137" r="1" fill="white"/>
<circle opacity="0.15" cx="193" cy="165" r="1" fill="white"/>
</svg>
