<svg width="24" height="24" viewBox="0 0 24 24" fill="none" xmlns="http://www.w3.org/2000/svg">
<circle cx="12" cy="12" r="9" fill="white"/>
<path d="M10.6025 18.1575C10.2925 18.1575 10.0475 18.075 9.8675 17.91C9.6925 17.74 9.605 17.5025 9.605 17.1975C9.605 17.0625 9.62 16.9025 9.65 16.7175C9.685 16.5275 9.74 16.3325 9.815 16.1325L11.7875 11.13C11.8125 11.06 11.8275 11.005 11.8325 10.965C11.8425 10.92 11.8475 10.8825 11.8475 10.8525C11.8475 10.7575 11.795 10.71 11.69 10.71C11.545 10.71 11.3675 10.795 11.1575 10.965C10.9475 11.13 10.7475 11.3525 10.5575 11.6325L10.2425 11.34C10.5675 10.9 10.915 10.565 11.285 10.335C11.655 10.1 12.03 9.9825 12.41 9.9825C12.735 9.9825 12.99 10.065 13.175 10.23C13.36 10.39 13.4525 10.615 13.4525 10.905C13.4525 11.04 13.435 11.2025 13.4 11.3925C13.365 11.5825 13.31 11.775 13.235 11.97L11.2775 16.86C11.2575 16.915 11.245 16.96 11.24 16.995C11.235 17.025 11.2325 17.0525 11.2325 17.0775C11.2325 17.2275 11.3 17.3025 11.435 17.3025C11.565 17.3025 11.73 17.21 11.93 17.025C12.13 16.84 12.435 16.4975 12.845 15.9975L13.16 16.2225C12.71 16.8675 12.27 17.3525 11.84 17.6775C11.41 17.9975 10.9975 18.1575 10.6025 18.1575ZM13.385 8.4675C13.12 8.4675 12.9075 8.38 12.7475 8.205C12.5875 8.03 12.5075 7.7975 12.5075 7.5075C12.5075 7.2025 12.61 6.935 12.815 6.705C13.02 6.475 13.2575 6.36 13.5275 6.36C13.7775 6.36 13.9925 6.45 14.1725 6.63C14.3525 6.81 14.4425 7.03 14.4425 7.29C14.4425 7.485 14.3925 7.6725 14.2925 7.8525C14.1925 8.0325 14.06 8.18 13.895 8.295C13.735 8.41 13.565 8.4675 13.385 8.4675Z" fill="#3B3B3D"/>
</svg>
