<svg width="24" height="24" viewBox="0 0 24 24" fill="none" xmlns="http://www.w3.org/2000/svg">
<circle opacity="0.5" cx="12" cy="12" r="8.5" stroke="white"/>
<path d="M10.855 18.1575C10.615 18.1575 10.42 18.0875 10.27 17.9475C10.12 17.8075 10.045 17.5975 10.045 17.3175C10.045 17.1925 10.0575 17.05 10.0825 16.89C10.1125 16.725 10.1625 16.5475 10.2325 16.3575L12.2575 11.0625C12.2825 10.9975 12.2975 10.945 12.3025 10.905C12.3125 10.86 12.3175 10.82 12.3175 10.785C12.3175 10.695 12.265 10.65 12.16 10.65C12.015 10.65 11.8425 10.7325 11.6425 10.8975C11.4425 11.0625 11.2475 11.2875 11.0575 11.5725L10.7725 11.31C11.0575 10.895 11.385 10.57 11.755 10.335C12.125 10.1 12.4775 9.9825 12.8125 9.9825C13.0475 9.9825 13.24 10.045 13.39 10.17C13.545 10.295 13.6225 10.475 13.6225 10.71C13.6225 10.85 13.6075 11.005 13.5775 11.175C13.5475 11.345 13.4975 11.5175 13.4275 11.6925L11.425 16.7925C11.41 16.8275 11.4 16.8625 11.395 16.8975C11.39 16.9275 11.3875 16.9575 11.3875 16.9875C11.3875 17.1775 11.47 17.2725 11.635 17.2725C11.75 17.2725 11.8925 17.195 12.0625 17.04C12.2375 16.88 12.5275 16.56 12.9325 16.08L13.195 16.2675C12.805 16.8525 12.395 17.315 11.965 17.655C11.535 17.99 11.165 18.1575 10.855 18.1575ZM13.6 8.2725C13.36 8.2725 13.17 8.1975 13.03 8.0475C12.89 7.8925 12.82 7.6875 12.82 7.4325C12.82 7.1575 12.9125 6.92 13.0975 6.72C13.2825 6.52 13.4925 6.42 13.7275 6.42C13.9425 6.42 14.13 6.4975 14.29 6.6525C14.455 6.8075 14.5375 7.0025 14.5375 7.2375C14.5375 7.4125 14.4925 7.58 14.4025 7.74C14.3125 7.895 14.195 8.0225 14.05 8.1225C13.91 8.2225 13.76 8.2725 13.6 8.2725Z" fill="white"/>
</svg>
