<svg width="24" height="24" viewBox="0 0 24 24" fill="none" xmlns="http://www.w3.org/2000/svg">
<path d="M8.59237 18.5288L7.23319 6.6967C7.14113 5.89531 7.98702 5.32032 8.69832 5.70079L19.4608 11.4576C20.1327 11.817 20.1719 12.7658 19.5318 13.1793L17.0175 14.8038C16.519 15.1259 16.409 15.8087 16.7813 16.271L19.2043 19.28C19.5766 19.7422 19.4667 20.425 18.9682 20.7471L18.2209 21.2299C17.7909 21.5077 17.2205 21.4159 16.8994 21.0171L14.2136 17.6819C13.8925 17.2831 13.3221 17.1913 12.8921 17.4691L10.1285 19.2546C9.50572 19.657 8.67699 19.2654 8.59237 18.5288Z" fill="white"/>
<circle opacity="0.5" cx="7" cy="6" r="4" fill="white"/>
</svg>
