<svg width="24" height="24" viewBox="0 0 24 24" fill="none" xmlns="http://www.w3.org/2000/svg">
<rect x="4.5" y="6.5" width="15" height="15" rx="3.5" stroke="white"/>
<rect x="8" y="10" width="6" height="1" rx="0.5" fill="white"/>
<rect x="8" y="13" width="6" height="1" rx="0.5" fill="white"/>
<g opacity="0.5">
<mask id="path-4-inside-1_2012_1925" fill="white">
<path fill-rule="evenodd" clip-rule="evenodd" d="M5.00525 6.34829C5.33559 5.97522 5.73473 5.6649 6.18402 5.43597C7.03967 5 8.15977 5 10.4 5H13.6C15.8402 5 16.9603 5 17.8159 5.43597C18.2652 5.6649 18.6644 5.97522 18.9947 6.34829C18.978 5.18295 18.9085 4.48014 18.6185 3.91103C18.283 3.25247 17.7475 2.71703 17.089 2.38148C16.3403 2 15.3602 2 13.4 2H10.6C8.6398 2 7.65971 2 6.91102 2.38148C6.25245 2.71703 5.71702 3.25247 5.38146 3.91103C5.09149 4.48014 5.02193 5.18295 5.00525 6.34829Z"/>
</mask>
<path d="M5.00525 6.34829L4.00535 6.33398L3.96676 9.02955L5.75393 7.01123L5.00525 6.34829ZM6.18402 5.43597L6.63801 6.32698L6.63801 6.32698L6.18402 5.43597ZM17.8159 5.43597L17.362 6.32698L17.362 6.32698L17.8159 5.43597ZM18.9947 6.34829L18.246 7.01123L20.0332 9.02955L19.9946 6.33398L18.9947 6.34829ZM18.6185 3.91103L17.7275 4.36502L17.7275 4.36502L18.6185 3.91103ZM17.089 2.38148L17.5429 1.49047L17.5429 1.49047L17.089 2.38148ZM6.91102 2.38148L7.36501 3.27248L6.91102 2.38148ZM5.38146 3.91103L6.27247 4.36502L6.27247 4.36502L5.38146 3.91103ZM5.75393 7.01123C6.0017 6.7314 6.30105 6.49867 6.63801 6.32698L5.73003 4.54497C5.16841 4.83113 4.66948 5.21905 4.25657 5.68536L5.75393 7.01123ZM6.63801 6.32698C6.90137 6.19279 7.24906 6.10062 7.85422 6.05118C8.47107 6.00078 9.26338 6 10.4 6V4C9.29638 4 8.40854 3.99922 7.69136 4.05782C6.96251 4.11737 6.32232 4.24318 5.73003 4.54497L6.63801 6.32698ZM10.4 6H13.6V4H10.4V6ZM13.6 6C14.7366 6 15.5289 6.00078 16.1457 6.05118C16.7509 6.10062 17.0986 6.19279 17.362 6.32698L18.2699 4.54497C17.6776 4.24318 17.0375 4.11737 16.3086 4.05782C15.5914 3.99922 14.7036 4 13.6 4V6ZM17.362 6.32698C17.6989 6.49867 17.9983 6.7314 18.246 7.01123L19.7434 5.68536C19.3305 5.21905 18.8316 4.83113 18.2699 4.54497L17.362 6.32698ZM17.7275 4.36502C17.8987 4.70106 17.9779 5.18073 17.9948 6.36261L19.9946 6.33398C19.9782 5.18517 19.9182 4.25921 19.5095 3.45704L17.7275 4.36502ZM16.635 3.27248C17.1054 3.51217 17.4878 3.89462 17.7275 4.36502L19.5095 3.45704C19.0781 2.61031 18.3897 1.9219 17.5429 1.49047L16.635 3.27248ZM13.4 3C14.3966 3 15.0839 3.00078 15.6173 3.04436C16.1391 3.087 16.4251 3.16555 16.635 3.27248L17.5429 1.49047C17.0041 1.21593 16.4257 1.10374 15.7802 1.05101C15.1464 0.999222 14.3636 1 13.4 1V3ZM10.6 3H13.4V1H10.6V3ZM7.36501 3.27248C7.57489 3.16555 7.86083 3.087 8.38262 3.04436C8.91609 3.00078 9.60339 3 10.6 3V1C9.63639 1 8.85356 0.999222 8.21976 1.05101C7.57429 1.10374 6.99584 1.21593 6.45703 1.49047L7.36501 3.27248ZM6.27247 4.36502C6.51215 3.89462 6.8946 3.51217 7.36501 3.27248L6.45703 1.49047C5.6103 1.9219 4.92189 2.61031 4.49045 3.45704L6.27247 4.36502ZM6.00515 6.36261C6.02207 5.18073 6.10125 4.70106 6.27247 4.36502L4.49045 3.45704C4.08173 4.25921 4.0218 5.18517 4.00535 6.33398L6.00515 6.36261Z" fill="white" mask="url(#path-4-inside-1_2012_1925)"/>
</g>
</svg>
