<svg xmlns="http://www.w3.org/2000/svg" width="333" height="137" viewBox="0 0 333 137" fill="none"><path d="M161.685 66.304V83.024C161.685 85.0773 162.066 86.632 162.829 87.688C163.65 88.6853 165.088 89.184 167.141 89.184C167.845 89.184 168.578 89.1253 169.341 89.008C170.162 88.8907 170.837 88.7147 171.365 88.48L171.541 99.04C170.544 99.392 169.282 99.6853 167.757 99.92C166.232 100.213 164.706 100.36 163.181 100.36C160.248 100.36 157.784 100.008 155.789 99.304C153.794 98.5413 152.181 97.4853 150.949 96.136C149.776 94.728 148.925 93.0853 148.397 91.208C147.869 89.272 147.605 87.1307 147.605 84.784V66.304H140.565V55.48H147.517V43.952H161.685V55.48H171.981V66.304H161.685Z" fill="#898989"></path><path d="M129.177 68.416C128.004 67.3013 126.625 66.3627 125.041 65.6C123.457 64.8373 121.785 64.456 120.025 64.456C118.676 64.456 117.415 64.72 116.241 65.248C115.127 65.776 114.569 66.6853 114.569 67.976C114.569 69.208 115.185 70.088 116.417 70.616C117.708 71.144 119.761 71.7307 122.577 72.376C124.22 72.728 125.863 73.2267 127.505 73.872C129.207 74.5173 130.732 75.368 132.081 76.424C133.431 77.48 134.516 78.7707 135.337 80.296C136.159 81.8213 136.569 83.64 136.569 85.752C136.569 88.5093 136.012 90.856 134.897 92.792C133.783 94.6693 132.316 96.1947 130.497 97.368C128.737 98.5413 126.743 99.392 124.513 99.92C122.284 100.448 120.055 100.712 117.825 100.712C114.247 100.712 110.727 100.155 107.265 99.04C103.863 97.8667 101.017 96.1653 98.7293 93.936L106.825 85.4C108.116 86.808 109.7 87.9813 111.577 88.92C113.455 89.8587 115.449 90.328 117.561 90.328C118.735 90.328 119.879 90.064 120.993 89.536C122.167 88.9493 122.753 87.952 122.753 86.544C122.753 85.1947 122.049 84.1973 120.641 83.552C119.233 82.9067 117.033 82.232 114.041 81.528C112.516 81.176 110.991 80.7067 109.465 80.12C107.94 79.5333 106.561 78.7413 105.329 77.744C104.156 76.7467 103.188 75.5147 102.425 74.048C101.663 72.5813 101.281 70.8213 101.281 68.768C101.281 66.128 101.839 63.8987 102.953 62.08C104.068 60.2027 105.505 58.6773 107.265 57.504C109.025 56.3307 110.961 55.48 113.073 54.952C115.244 54.3653 117.385 54.072 119.497 54.072C122.783 54.072 125.98 54.6 129.089 55.656C132.257 56.6533 134.927 58.1787 137.097 60.232L129.177 68.416Z" fill="#898989"></path><path d="M84.0354 72.376C84.0354 70.088 83.3021 68.1227 81.8354 66.48C80.4274 64.8373 78.2861 64.016 75.4114 64.016C74.0034 64.016 72.7128 64.2507 71.5394 64.72C70.3661 65.1307 69.3394 65.7173 68.4594 66.48C67.5794 67.2427 66.8754 68.152 66.3474 69.208C65.8194 70.2053 65.5261 71.2613 65.4674 72.376H84.0354ZM97.3234 77.92C97.3234 78.5067 97.3234 79.0933 97.3234 79.68C97.3234 80.2667 97.2941 80.824 97.2354 81.352H65.4674C65.5848 82.584 65.9368 83.6987 66.5234 84.696C67.1688 85.6933 67.9608 86.5733 68.8994 87.336C69.8968 88.04 70.9821 88.5973 72.1554 89.008C73.3874 89.4187 74.6488 89.624 75.9394 89.624C78.2274 89.624 80.1634 89.2133 81.7474 88.392C83.3314 87.512 84.6221 86.3973 85.6194 85.048L95.6514 91.384C93.5981 94.376 90.8701 96.6933 87.4674 98.336C84.1234 99.92 80.2221 100.712 75.7634 100.712C72.4781 100.712 69.3688 100.213 66.4354 99.216C63.5021 98.16 60.9208 96.664 58.6914 94.728C56.5208 92.7333 54.7901 90.2987 53.4994 87.424C52.2674 84.5493 51.6514 81.264 51.6514 77.568C51.6514 73.9893 52.2674 70.7627 53.4994 67.888C54.7314 64.9547 56.4034 62.4907 58.5154 60.496C60.6274 58.4427 63.1208 56.8587 65.9954 55.744C68.8701 54.6293 71.9794 54.072 75.3234 54.072C78.5501 54.072 81.5128 54.6293 84.2114 55.744C86.9101 56.8 89.2274 58.3547 91.1634 60.408C93.0994 62.4613 94.5954 64.9547 95.6514 67.888C96.7661 70.8213 97.3234 74.1653 97.3234 77.92Z" fill="#898989"></path><path d="M48.576 81.176C48.576 84.5787 47.9013 87.4533 46.552 89.8C45.2027 92.088 43.4133 93.936 41.184 95.344C38.9547 96.752 36.4027 97.7787 33.528 98.424C30.712 99.0107 27.808 99.304 24.816 99.304H0V37H24.816C27.2213 37 29.6853 37.264 32.208 37.792C34.7307 38.2613 37.0187 39.112 39.072 40.344C41.1253 41.5173 42.7973 43.1307 44.088 45.184C45.3787 47.2373 46.024 49.848 46.024 53.016C46.024 56.4773 45.0853 59.352 43.208 61.64C41.3307 63.8693 38.8667 65.4827 35.816 66.48V66.656C37.576 66.9493 39.2187 67.5067 40.744 68.328C42.328 69.0907 43.6773 70.088 44.792 71.32C45.9653 72.552 46.8747 73.9893 47.52 75.632C48.224 77.2747 48.576 79.1227 48.576 81.176ZM31.504 55.04C31.504 52.928 30.6827 51.4027 29.04 50.464C27.456 49.4667 25.08 48.968 21.912 48.968H14.52V61.816H22.616C25.432 61.816 27.6027 61.2587 29.128 60.144C30.712 58.9707 31.504 57.2693 31.504 55.04ZM33.528 79.768C33.528 77.1867 32.56 75.3973 30.624 74.4C28.688 73.4027 26.1067 72.904 22.88 72.904H14.52V87.16H22.968C24.1413 87.16 25.344 87.072 26.576 86.896C27.8667 86.6613 29.0107 86.28 30.008 85.752C31.064 85.224 31.9147 84.4907 32.56 83.552C33.2053 82.5547 33.528 81.2933 33.528 79.768Z" fill="#898989"></path><circle cx="264.076" cy="68.5" r="68.5" fill="#898989"></circle><circle cx="275.576" cy="71.5" r="25" stroke="#F0F0F0" stroke-width="15"></circle><path d="M259.076 54.8848C259.076 56.5769 258.943 58.2444 258.688 59.874C256.648 72.9072 243.359 84.2229 230.576 87.1768V72.3691C236.23 70.0845 242.085 65.292 244.097 59.96C245.961 56.4848 248.27 53.2679 250.968 50.3916L253.389 47.8096H259.076V54.8848Z" fill="#F0F0F0"></path><rect x="230.576" y="80" width="14" height="23" fill="#F0F0F0"></rect><path d="M247.076 33.8721C247.076 35.6659 246.936 37.4326 246.666 39.1602C244.503 52.9752 234.054 63.995 220.576 67.1074V51.374C226.486 48.787 230.829 43.3383 231.846 36.8398C231.997 35.877 232.076 34.8861 232.076 33.8721V33H247.076V33.8721Z" fill="#F0F0F0"></path></svg>