<svg width="114" height="80" viewBox="0 0 114 80" fill="none" xmlns="http://www.w3.org/2000/svg">
<g filter="url(#filter0_b_733_4062)">
<mask id="path-1-inside-1_733_4062" fill="white">
<path fill-rule="evenodd" clip-rule="evenodd" d="M8 0C3.58172 0 0 3.58172 0 7.99999V61.7599C0 66.1782 3.58172 69.7599 8 69.7599H96C100.418 69.7599 104 66.1782 104 61.7599V8C104 3.58172 100.418 0 96 0H8ZM13 12.9558C14.6569 12.9558 16 11.6172 16 9.96591C16 8.31464 14.6569 6.97601 13 6.97601C11.3431 6.97601 10 8.31464 10 9.96591C10 11.6172 11.3431 12.9558 13 12.9558ZM36 9.9659C36 11.6172 34.6569 12.9558 33 12.9558C31.3431 12.9558 30 11.6172 30 9.9659C30 8.31462 31.3431 6.976 33 6.976C34.6569 6.976 36 8.31462 36 9.9659ZM23 12.9558C24.6569 12.9558 26 11.6172 26 9.9659C26 8.31462 24.6569 6.976 23 6.976C21.3431 6.976 20 8.31462 20 9.9659C20 11.6172 21.3431 12.9558 23 12.9558Z"/>
</mask>
<path fill-rule="evenodd" clip-rule="evenodd" d="M8 0C3.58172 0 0 3.58172 0 7.99999V61.7599C0 66.1782 3.58172 69.7599 8 69.7599H96C100.418 69.7599 104 66.1782 104 61.7599V8C104 3.58172 100.418 0 96 0H8ZM13 12.9558C14.6569 12.9558 16 11.6172 16 9.96591C16 8.31464 14.6569 6.97601 13 6.97601C11.3431 6.97601 10 8.31464 10 9.96591C10 11.6172 11.3431 12.9558 13 12.9558ZM36 9.9659C36 11.6172 34.6569 12.9558 33 12.9558C31.3431 12.9558 30 11.6172 30 9.9659C30 8.31462 31.3431 6.976 33 6.976C34.6569 6.976 36 8.31462 36 9.9659ZM23 12.9558C24.6569 12.9558 26 11.6172 26 9.9659C26 8.31462 24.6569 6.976 23 6.976C21.3431 6.976 20 8.31462 20 9.9659C20 11.6172 21.3431 12.9558 23 12.9558Z" fill="url(#paint0_radial_733_4062)" fill-opacity="0.2"/>
<path d="M0.5 7.99999C0.5 3.85786 3.85786 0.5 8 0.5V-0.5C3.30558 -0.5 -0.5 3.30557 -0.5 7.99999H0.5ZM0.5 61.7599V7.99999H-0.5V61.7599H0.5ZM8 69.2599C3.85786 69.2599 0.5 65.9021 0.5 61.7599H-0.5C-0.5 66.4544 3.30558 70.2599 8 70.2599V69.2599ZM96 69.2599H8V70.2599H96V69.2599ZM103.5 61.7599C103.5 65.9021 100.142 69.2599 96 69.2599V70.2599C100.694 70.2599 104.5 66.4544 104.5 61.7599H103.5ZM103.5 8V61.7599H104.5V8H103.5ZM96 0.5C100.142 0.5 103.5 3.85786 103.5 8H104.5C104.5 3.30558 100.694 -0.5 96 -0.5V0.5ZM8 0.5H96V-0.5H8V0.5ZM15.5 9.96591C15.5 11.3395 14.3823 12.4558 13 12.4558V13.4558C14.9314 13.4558 16.5 11.8949 16.5 9.96591H15.5ZM13 7.47601C14.3823 7.47601 15.5 8.59237 15.5 9.96591H16.5C16.5 8.03691 14.9314 6.47601 13 6.47601V7.47601ZM10.5 9.96591C10.5 8.59237 11.6177 7.47601 13 7.47601V6.47601C11.0686 6.47601 9.5 8.03691 9.5 9.96591H10.5ZM13 12.4558C11.6177 12.4558 10.5 11.3395 10.5 9.96591H9.5C9.5 11.8949 11.0686 13.4558 13 13.4558V12.4558ZM33 13.4558C34.9314 13.4558 36.5 11.8949 36.5 9.9659H35.5C35.5 11.3394 34.3823 12.4558 33 12.4558V13.4558ZM29.5 9.9659C29.5 11.8949 31.0686 13.4558 33 13.4558V12.4558C31.6177 12.4558 30.5 11.3394 30.5 9.9659H29.5ZM33 6.476C31.0686 6.476 29.5 8.03689 29.5 9.9659H30.5C30.5 8.59235 31.6177 7.476 33 7.476V6.476ZM36.5 9.9659C36.5 8.03689 34.9314 6.476 33 6.476V7.476C34.3823 7.476 35.5 8.59235 35.5 9.9659H36.5ZM25.5 9.9659C25.5 11.3394 24.3823 12.4558 23 12.4558V13.4558C24.9314 13.4558 26.5 11.8949 26.5 9.9659H25.5ZM23 7.476C24.3823 7.476 25.5 8.59235 25.5 9.9659H26.5C26.5 8.03689 24.9314 6.476 23 6.476V7.476ZM20.5 9.9659C20.5 8.59235 21.6177 7.476 23 7.476V6.476C21.0686 6.476 19.5 8.03689 19.5 9.9659H20.5ZM23 12.4558C21.6177 12.4558 20.5 11.3394 20.5 9.9659H19.5C19.5 11.8949 21.0686 13.4558 23 13.4558V12.4558Z" fill="url(#paint1_radial_733_4062)" mask="url(#path-1-inside-1_733_4062)"/>
<path d="M0.5 7.99999C0.5 3.85786 3.85786 0.5 8 0.5V-0.5C3.30558 -0.5 -0.5 3.30557 -0.5 7.99999H0.5ZM0.5 61.7599V7.99999H-0.5V61.7599H0.5ZM8 69.2599C3.85786 69.2599 0.5 65.9021 0.5 61.7599H-0.5C-0.5 66.4544 3.30558 70.2599 8 70.2599V69.2599ZM96 69.2599H8V70.2599H96V69.2599ZM103.5 61.7599C103.5 65.9021 100.142 69.2599 96 69.2599V70.2599C100.694 70.2599 104.5 66.4544 104.5 61.7599H103.5ZM103.5 8V61.7599H104.5V8H103.5ZM96 0.5C100.142 0.5 103.5 3.85786 103.5 8H104.5C104.5 3.30558 100.694 -0.5 96 -0.5V0.5ZM8 0.5H96V-0.5H8V0.5ZM15.5 9.96591C15.5 11.3395 14.3823 12.4558 13 12.4558V13.4558C14.9314 13.4558 16.5 11.8949 16.5 9.96591H15.5ZM13 7.47601C14.3823 7.47601 15.5 8.59237 15.5 9.96591H16.5C16.5 8.03691 14.9314 6.47601 13 6.47601V7.47601ZM10.5 9.96591C10.5 8.59237 11.6177 7.47601 13 7.47601V6.47601C11.0686 6.47601 9.5 8.03691 9.5 9.96591H10.5ZM13 12.4558C11.6177 12.4558 10.5 11.3395 10.5 9.96591H9.5C9.5 11.8949 11.0686 13.4558 13 13.4558V12.4558ZM33 13.4558C34.9314 13.4558 36.5 11.8949 36.5 9.9659H35.5C35.5 11.3394 34.3823 12.4558 33 12.4558V13.4558ZM29.5 9.9659C29.5 11.8949 31.0686 13.4558 33 13.4558V12.4558C31.6177 12.4558 30.5 11.3394 30.5 9.9659H29.5ZM33 6.476C31.0686 6.476 29.5 8.03689 29.5 9.9659H30.5C30.5 8.59235 31.6177 7.476 33 7.476V6.476ZM36.5 9.9659C36.5 8.03689 34.9314 6.476 33 6.476V7.476C34.3823 7.476 35.5 8.59235 35.5 9.9659H36.5ZM25.5 9.9659C25.5 11.3394 24.3823 12.4558 23 12.4558V13.4558C24.9314 13.4558 26.5 11.8949 26.5 9.9659H25.5ZM23 7.476C24.3823 7.476 25.5 8.59235 25.5 9.9659H26.5C26.5 8.03689 24.9314 6.476 23 6.476V7.476ZM20.5 9.9659C20.5 8.59235 21.6177 7.476 23 7.476V6.476C21.0686 6.476 19.5 8.03689 19.5 9.9659H20.5ZM23 12.4558C21.6177 12.4558 20.5 11.3394 20.5 9.9659H19.5C19.5 11.8949 21.0686 13.4558 23 13.4558V12.4558Z" fill="url(#paint2_radial_733_4062)" mask="url(#path-1-inside-1_733_4062)"/>
</g>
<path fill-rule="evenodd" clip-rule="evenodd" d="M106.262 51.0733C107.726 53.7196 108.287 56.7674 107.861 59.7578C107.436 62.7483 106.046 65.5215 103.9 67.659C103.858 67.7011 103.817 67.7444 103.777 67.7889L99.2814 72.8343L99.2814 67.2056C99.2814 66.3772 98.6099 65.7056 97.7814 65.7056C96.953 65.7056 96.2814 66.3772 96.2814 67.2056L96.2814 78.5008C96.2814 79.3292 96.953 80.0008 97.7814 80.0008H109.115C109.943 80.0008 110.615 79.3292 110.615 78.5008C110.615 77.6724 109.943 77.0008 109.115 77.0008H103.605L108.2 71.8445C111.231 68.7978 113.196 64.8558 113.802 60.6033C114.411 56.3199 113.607 51.9557 111.512 48.1686C109.417 44.3816 106.144 41.3779 102.19 39.6081C98.235 37.8384 93.8112 37.3976 89.5842 38.3518C85.357 39.3059 81.5537 41.6038 78.7484 44.9012C75.9429 48.1988 74.2877 52.3172 74.0342 56.6361C73.7807 60.955 74.9426 65.2381 77.3436 68.8399C79.7445 72.4416 83.2536 75.1661 87.3407 76.6051C88.9035 77.1553 90.6165 76.3345 91.1667 74.7717C91.717 73.2089 90.8961 71.4959 89.3333 70.9456C86.4696 69.9374 84.0144 68.0296 82.3361 65.5119C80.6579 62.9944 79.8469 60.0028 80.0239 56.9877C80.2009 53.9726 81.3564 51.0951 83.3183 48.7891C85.2802 46.483 87.9427 44.8732 90.9052 44.2045C93.8679 43.5358 96.9683 43.8449 99.7386 45.0847C102.509 46.3244 104.798 48.4269 106.262 51.0733Z" fill="url(#paint3_linear_733_4062)"/>
<defs>
<filter id="filter0_b_733_4062" x="-80" y="-80" width="264" height="229.76" filterUnits="userSpaceOnUse" color-interpolation-filters="sRGB">
<feFlood flood-opacity="0" result="BackgroundImageFix"/>
<feGaussianBlur in="BackgroundImageFix" stdDeviation="40"/>
<feComposite in2="SourceAlpha" operator="in" result="effect1_backgroundBlur_733_4062"/>
<feBlend mode="normal" in="SourceGraphic" in2="effect1_backgroundBlur_733_4062" result="shape"/>
</filter>
<radialGradient id="paint0_radial_733_4062" cx="0" cy="0" r="1" gradientUnits="userSpaceOnUse" gradientTransform="translate(15.9322 14.6783) rotate(33.653) scale(112.64 112.594)">
<stop stop-color="#357DED"/>
<stop offset="0.770833" stop-color="#357DED" stop-opacity="0.22"/>
<stop offset="1" stop-color="#357DED" stop-opacity="0"/>
</radialGradient>
<radialGradient id="paint1_radial_733_4062" cx="0" cy="0" r="1" gradientUnits="userSpaceOnUse" gradientTransform="translate(-14.3051 -8.62542) rotate(31.3096) scale(97.8417 172.002)">
<stop stop-color="#357DED"/>
<stop offset="1" stop-color="white" stop-opacity="0"/>
</radialGradient>
<radialGradient id="paint2_radial_733_4062" cx="0" cy="0" r="1" gradientUnits="userSpaceOnUse" gradientTransform="translate(112.61 78.5367) rotate(-144.335) scale(96.5492 167.26)">
<stop stop-color="#357DED" stop-opacity="0.49"/>
<stop offset="1" stop-color="#357DED" stop-opacity="0.51"/>
</radialGradient>
<linearGradient id="paint3_linear_733_4062" x1="94" y1="37.8596" x2="94" y2="80.0008" gradientUnits="userSpaceOnUse">
<stop stop-color="#357DED"/>
<stop offset="1" stop-color="#357DED"/>
</linearGradient>
</defs>
</svg>
