<?xml version="1.0" encoding="UTF-8"?>
<svg version="1.1" xmlns="http://www.w3.org/2000/svg" width="1080" height="1080">
<path d="M0 0 C356.4 0 712.8 0 1080 0 C1080 356.4 1080 712.8 1080 1080 C723.6 1080 367.2 1080 0 1080 C0 723.6 0 367.2 0 0 Z " fill="#FEFEFE" transform="translate(0,0)"/>
<path d="M0 0 C0.66 0 1.32 0 2 0 C2.495 3.465 2.495 3.465 3 7 C2.28980713 7.19634033 1.57961426 7.39268066 0.84790039 7.5949707 C-2.41457455 8.49839671 -5.67603834 9.40542309 -8.9375 10.3125 C-10.61295898 10.7755957 -10.61295898 10.7755957 -12.32226562 11.24804688 C-17.98351614 12.8252281 -23.5782002 14.45605273 -29.09985352 16.47338867 C-31 17 -31 17 -35 17 C-34.77183594 17.59167969 -34.54367187 18.18335938 -34.30859375 18.79296875 C-31.45342707 26.64147627 -31.45342707 26.64147627 -33 31 C-34.65 31.33 -36.3 31.66 -38 32 C-38 30.68 -38 29.36 -38 28 C-37.01 28 -36.02 28 -35 28 C-35.2165625 27.32453125 -35.433125 26.6490625 -35.65625 25.953125 C-35.9346875 25.06109375 -36.213125 24.1690625 -36.5 23.25 C-36.91765625 21.92742187 -36.91765625 21.92742187 -37.34375 20.578125 C-38 18 -38 18 -38 14 C-36.6328125 13.609375 -35.265625 13.21875 -33.8984375 12.828125 C-33.02171387 12.57756348 -32.14499023 12.32700195 -31.24169922 12.06884766 C-29.32420317 11.52113162 -27.40655883 10.97393447 -25.48876953 10.42724609 C-21.18688621 9.20031327 -16.88608784 7.97090745 -12.59375 6.7109375 C-11.3665625 6.35257812 -10.139375 5.99421875 -8.875 5.625 C-7.79992187 5.30789063 -6.72484375 4.99078125 -5.6171875 4.6640625 C-3 4 -3 4 0 4 C0 2.68 0 1.36 0 0 Z " fill="#A3A3A3" transform="translate(939,422)"/>
<path d="M0 0 C3.82568509 3.44311658 5.66541643 6.43226564 6.3359375 11.578125 C6.45853401 19.96372633 4.38994681 25.38093769 -0.1875 32.3125 C-5.04056245 36.94987079 -10.2102631 39.1826775 -16.9375 39.5 C-22.33918145 39.27175994 -27.31425766 37.69430184 -32 35 C-32.66 34.01 -33.32 33.02 -34 32 C-28.25 33.875 -28.25 33.875 -26 35 C-18.58842467 35.69554784 -12.08077768 35.62844909 -6 31 C-1.02858063 26.41697277 1.74333682 22.04523494 2.1796875 15.16796875 C2.30007598 9.74379902 2.24266393 5.04599384 0 0 Z " fill="#A2A2A2" transform="translate(934,634)"/>
<path d="M0 0 C3.0705126 2.87241501 4.77500767 4.72844285 5.203125 9.05078125 C5.30878583 14.14891633 4.96124966 17.65683383 2 22 C-1.93940966 26.07182679 -5.19799977 27.83312187 -10.8203125 28.16796875 C-21.78886915 28.23279473 -33.35045129 27.82264738 -44 25 C-44 24.34 -44 23.68 -44 23 C-39.25388577 22.91082458 -34.58510529 22.85315769 -29.875 23.5 C-25.52798978 24.02879552 -21.18754317 24.18233956 -16.8125 24.25 C-15.79615479 24.2819043 -15.79615479 24.2819043 -14.75927734 24.31445312 C-10.0855053 24.34656739 -6.92968515 23.52746269 -3 21 C0.7083862 16.61736177 1.42899534 11.6590214 1.23828125 6.078125 C0.99794822 3.98210581 0.56273533 2.0313373 0 0 Z " fill="#A3A3A3" transform="translate(229,490)"/>
<path d="M0 0 C-0.66 0.33 -1.32 0.66 -2 1 C-2.53367187 0.7009375 -3.06734375 0.401875 -3.6171875 0.09375 C-9.93844988 -2.80781306 -19.65404073 -2.12358138 -26.1640625 0.0625 C-32.83053013 3.76833095 -36.61135683 8.83407049 -39 16 C-39.29098034 21.04936467 -39.31036161 26.08614397 -38 31 C-41.3043178 28.14627099 -42.69585536 25.3332887 -43.26171875 20.9921875 C-43.62490774 13.80355024 -41.78429148 8.1282966 -36.9765625 2.7265625 C-26.21574266 -7.44663578 -12.34914235 -7.80532699 0 0 Z " fill="#A3A3A3" transform="translate(652,168)"/>
<path d="M0 0 C3 2 3 2 3.46875 4.03125 C3.56940876 11.98329199 1.4936024 18.1894377 -3.9375 24.11328125 C-10.46834699 30.08752196 -15.81253229 31.51079501 -24.625 31.390625 C-29.69913078 30.80334135 -33.86394708 28.97829368 -38 26 C-38.66 25.01 -39.32 24.02 -40 23 C-35 25 -35 25 -32.71875 26.046875 C-26.50864014 28.22398248 -18.63203907 28.14810006 -12.5625 25.5 C-7.33431289 22.38298358 -4.12913264 17.52710638 -1.6875 12.0625 C-0.79011015 8.06503613 -0.34442916 4.07876638 0 0 Z " fill="#9F9F9F" transform="translate(286,334)"/>
<path d="M0 0 C1.32 0.33 2.64 0.66 4 1 C1.20885318 6.46378897 -1.5845845 11.92639819 -4.38012695 17.38793945 C-5.33029814 19.2450407 -6.27984882 21.10245958 -7.22875977 22.96020508 C-8.59487473 25.63446994 -9.96323649 28.30757472 -11.33203125 30.98046875 C-11.75402298 31.80773972 -12.17601471 32.63501068 -12.61079407 33.48735046 C-17.09721079 42.23658282 -17.09721079 42.23658282 -19 45 C-19.66 45 -20.32 45 -21 45 C-22.22951354 42.11239964 -22.01953849 41.04960789 -20.84765625 38.07421875 C-20.25855469 36.95660156 -19.66945313 35.83898437 -19.0625 34.6875 C-18.58586914 33.77315186 -18.58586914 33.77315186 -18.09960938 32.84033203 C-17.07758976 30.88743783 -16.03882477 28.94399674 -15 27 C-14.33098584 25.72320348 -13.66300663 24.4458641 -12.99609375 23.16796875 C-8.87659641 15.31583809 -4.53968146 7.61815295 0 0 Z " fill="#9F9F9F" transform="translate(877,305)"/>
<path d="M0 0 C2.54106009 2.20961747 3.30621489 3.73988358 4 7 C0.07219044 8.90396029 -3.85647758 10.80613511 -7.78588867 12.70678711 C-9.11749577 13.35117522 -10.44888289 13.99601817 -11.7800293 14.64135742 C-15.58961835 16.48803957 -19.40361368 18.3249995 -23.22418213 20.14886475 C-24.9190972 20.96122394 -26.60886098 21.78430484 -28.29833984 22.60791016 C-29.7652124 23.3066626 -29.7652124 23.3066626 -31.26171875 24.01953125 C-32.11080811 24.42921143 -32.95989746 24.8388916 -33.8347168 25.26098633 C-36 26 -36 26 -39 25 C-38 22 -38 22 -36.48854065 20.95588684 C-35.51496864 20.48622749 -35.51496864 20.48622749 -34.52172852 20.00708008 C-33.78749161 19.64693314 -33.0532547 19.28678619 -32.29676819 18.91572571 C-31.49887375 18.53748154 -30.70097931 18.15923737 -29.87890625 17.76953125 C-29.06381088 17.37424728 -28.24871552 16.97896332 -27.40892029 16.57170105 C-25.68368757 15.73744221 -23.95607715 14.90808543 -22.22631836 14.08325195 C-19.57193803 12.81700233 -16.92516496 11.53587962 -14.27929688 10.25195312 C-12.60459215 9.44442951 -10.92947538 8.63775975 -9.25390625 7.83203125 C-8.45803604 7.44771439 -7.66216583 7.06339752 -6.84217834 6.66743469 C-1.23342246 4 -1.23342246 4 1 4 C0.505 2.02 0.505 2.02 0 0 Z " fill="#A1A1A1" transform="translate(917,365)"/>
<path d="M0 0 C0.66 0.33 1.32 0.66 2 1 C2.625 4.0625 2.625 4.0625 3 7 C-2.94324022 9.14065401 -8.88822766 11.27639831 -14.83447266 13.40869141 C-16.85831912 14.13509206 -18.88175855 14.86262778 -20.90478516 15.59130859 C-23.80786307 16.63675801 -26.71236654 17.67815511 -29.6171875 18.71875 C-30.52556366 19.04685669 -31.43393982 19.37496338 -32.36984253 19.7130127 C-33.63092331 20.16347961 -33.63092331 20.16347961 -34.91748047 20.62304688 C-35.65916473 20.88952026 -36.400849 21.15599365 -37.16500854 21.43054199 C-39 22 -39 22 -41 22 C-41 20.68 -41 19.36 -41 18 C-35.48387503 16.00214106 -29.96628042 14.00841671 -24.44726562 12.01855469 C-22.56892295 11.34066147 -20.69099117 10.66162862 -18.81347656 9.98144531 C-16.11890468 9.00548105 -13.42289468 8.03358871 -10.7265625 7.0625 C-9.88380768 6.75626709 -9.04105286 6.45003418 -8.17276001 6.13452148 C-7.39210175 5.85423096 -6.61144348 5.57394043 -5.80712891 5.28515625 C-5.11873932 5.03644775 -4.43034973 4.78773926 -3.72109985 4.53149414 C-2 4 -2 4 0 4 C0 2.68 0 1.36 0 0 Z " fill="#A1A1A1" transform="translate(252,655)"/>
<path d="M0 0 C-1.48812536 3.88253572 -3.22440947 7.57778145 -5.08203125 11.296875 C-5.37808762 11.88994446 -5.67414398 12.48301392 -5.97917175 13.09405518 C-6.60435344 14.34509624 -7.23053672 15.59563723 -7.85766602 16.84570312 C-8.80196867 18.72899657 -9.74202749 20.61436335 -10.68164062 22.5 C-13.97301453 29.08600885 -17.3388239 35.6107429 -21 42 C-21.99 41.67 -22.98 41.34 -24 41 C-23.37893916 36.34681244 -21.44969954 32.51932742 -19.32421875 28.3984375 C-18.95778763 27.68015778 -18.59135651 26.96187805 -18.21382141 26.22183228 C-17.43943327 24.70907931 -16.66179101 23.19798826 -15.88110352 21.68847656 C-14.69084252 19.38147857 -13.51783748 17.06624955 -12.34570312 14.75 C-11.58957615 13.27811394 -10.83244804 11.80674167 -10.07421875 10.3359375 C-9.7261467 9.64527191 -9.37807465 8.95460632 -9.01945496 8.24301147 C-4.71035915 0 -4.71035915 0 0 0 Z " fill="#A0A0A0" transform="translate(829,247)"/>
<path d="M0 0 C1.32 1.32 2.64 2.64 4 4 C3 7 3 7 1.38137817 7.97491455 C0.6820517 8.2555072 -0.01727478 8.53609985 -0.73779297 8.82519531 C-1.52886444 9.14852844 -2.31993591 9.47186157 -3.13497925 9.80499268 C-3.99535797 10.14262634 -4.85573669 10.48026001 -5.7421875 10.828125 C-7.06115524 11.35802032 -7.06115524 11.35802032 -8.4067688 11.89862061 C-10.26916939 12.64359735 -12.13381952 13.38297087 -14.00048828 14.1171875 C-16.86222645 15.24496609 -19.71450124 16.39449066 -22.56640625 17.546875 C-24.37447436 18.26694625 -26.18305207 18.98573953 -27.9921875 19.703125 C-28.84851776 20.04885559 -29.70484802 20.39458618 -30.58712769 20.75079346 C-31.38450348 21.06151794 -32.18187927 21.37224243 -33.00341797 21.69238281 C-33.70433563 21.96979309 -34.4052533 22.24720337 -35.12741089 22.53302002 C-37 23 -37 23 -40 22 C-37.42888202 17.3844927 -33.60480776 16.30078587 -28.90234375 14.546875 C-28.11227432 14.24179016 -27.3222049 13.93670532 -26.50819397 13.62237549 C-24.84189115 12.98143359 -23.17331976 12.34636253 -21.50268555 11.71679688 C-18.93897813 10.7505571 -16.38219896 9.7676058 -13.82617188 8.78125 C-12.20610362 8.16048021 -10.58567282 7.54065558 -8.96484375 6.921875 C-8.19712143 6.62819031 -7.42939911 6.33450562 -6.63841248 6.03192139 C-1.23591234 4 -1.23591234 4 1 4 C0.505 2.02 0.505 2.02 0 0 Z " fill="#A2A2A2" transform="translate(296,737)"/>
<path d="M0 0 C3.03300531 1.04259558 5.26231829 2.28223893 8 4 C7.34 4.33 6.68 4.66 6 5 C5.01 4.67 4.02 4.34 3 4 C-5.66675177 3.10857632 -5.66675177 3.10857632 -13.6875 5.75 C-17.18274575 9.15077965 -17.94617092 10.92772482 -18.1953125 15.890625 C-18.1821011 17.34387895 -18.1583712 18.79706919 -18.125 20.25 C-18.11146484 21.36761719 -18.11146484 21.36761719 -18.09765625 22.5078125 C-18.07418358 24.33868059 -18.03831525 26.16938238 -18 28 C-19.98 28.33 -21.96 28.66 -24 29 C-24.33 27.68 -24.66 26.36 -25 25 C-23.68 25 -22.36 25 -21 25 C-21.15855469 24.28714844 -21.31710937 23.57429687 -21.48046875 22.83984375 C-22.58524114 16.80097512 -23.0135828 11.10224581 -20.3125 5.5 C-14.40954677 -0.88157106 -8.29223959 -0.94683024 0 0 Z " fill="#A1A1A1" transform="translate(935,553)"/>
<path d="M0 0 C2.97269925 2.70245386 4.70234202 5.21405215 5.37109375 9.2265625 C5.56311454 16.16190172 3.86526381 21.23378677 0 27 C-2.5625 29.5 -2.5625 29.5 -5 31 C-5.598125 31.4125 -6.19625 31.825 -6.8125 32.25 C-10.35209298 33.46357473 -13.25743748 33.29702877 -17 33 C-18.74609375 31.48046875 -18.74609375 31.48046875 -20 30 C-19.28714844 29.92523438 -18.57429687 29.85046875 -17.83984375 29.7734375 C-10.94515929 28.82692631 -6.55482351 27.37235594 -2 22 C1.99516866 16.58719085 1.46764848 10.45714637 1 4 C0.70749141 2.65711966 0.39087134 1.31761469 0 0 Z " fill="#A0A0A0" transform="translate(658,169)"/>
<path d="M0 0 C0 0.66 0 1.32 0 2 C-0.89831543 2.38857178 -1.79663086 2.77714355 -2.72216797 3.17749023 C-6.05086458 4.61751444 -9.37924057 6.05827838 -12.70751953 7.49926758 C-14.14883816 8.12316795 -15.59024399 8.74686691 -17.03173828 9.37036133 C-19.1021171 10.2659106 -21.17218259 11.16218061 -23.2421875 12.05859375 C-23.88807831 12.3377916 -24.53396912 12.61698944 -25.19943237 12.90464783 C-28.62833063 14.39029633 -28.62833063 14.39029633 -32 16 C-33.99960012 16.039992 -36.00047242 16.04346799 -38 16 C-38.33 15.34 -38.66 14.68 -39 14 C-34.25707513 11.8282056 -29.50659625 9.67426407 -24.74829102 7.53637695 C-23.13118998 6.80684184 -21.51624807 6.07250076 -19.90356445 5.33325195 C-17.58317044 4.27060154 -15.25552423 3.22555771 -12.92578125 2.18359375 C-12.20787918 1.85032578 -11.48997711 1.5170578 -10.75032043 1.1736908 C-6.78472369 -0.57724862 -4.17682472 -1.4563694 0 0 Z " fill="#A1A1A1" transform="translate(254,411)"/>
<path d="M0 0 C0.66 0 1.32 0 2 0 C2.495 3.465 2.495 3.465 3 7 C-2.26440497 7.7188467 -7.52969519 8.43067827 -12.79589844 9.13623047 C-14.58456549 9.37685108 -16.37298305 9.61933438 -18.16113281 9.86376953 C-20.74219276 10.21625542 -23.32409736 10.56187131 -25.90625 10.90625 C-26.69616333 11.0156189 -27.48607666 11.12498779 -28.29992676 11.2376709 C-33.24547029 11.88891756 -38.01135209 12.09937546 -43 12 C-43 11.01 -43 10.02 -43 9 C-37.35861246 8.28556359 -31.71692727 7.57354316 -26.07495117 6.86376953 C-24.15527079 6.62192259 -22.23567373 6.37941322 -20.31616211 6.13623047 C-17.55864709 5.7869975 -14.80084211 5.44014029 -12.04296875 5.09375 C-10.75376778 4.92969666 -10.75376778 4.92969666 -9.43852234 4.7623291 C-8.63791885 4.66222534 -7.83731537 4.56212158 -7.01245117 4.45898438 C-5.95655037 4.32574768 -5.95655037 4.32574768 -4.87931824 4.18981934 C-3 4 -3 4 0 4 C0 2.68 0 1.36 0 0 Z " fill="#9E9E9E" transform="translate(233,586)"/>
<path d="M0 0 C3.51097246 1.39385128 6.75696982 3.06798202 10 5 C9.01 5.495 9.01 5.495 8 6 C6.989375 5.505 5.97875 5.01 4.9375 4.5 C0.48876832 2.49807074 -3.35171865 2.628376 -8 4 C-13.0410104 7.17396951 -15.29423895 10.31412984 -17 16 C-17.44231025 20.76712158 -17.19975887 25.35093436 -16 30 C-19.94011611 26.59717245 -20.87154555 23.30595356 -21.375 18.1875 C-21.171955 11.84532976 -18.28351329 6.93977934 -13.875 2.5 C-9.50681938 -0.89954355 -5.3172716 -1.09172932 0 0 Z " fill="#A2A2A2" transform="translate(729,188)"/>
<path d="M0 0 C0.57073242 0.36206543 1.14146484 0.72413086 1.72949219 1.09716797 C0.03056441 4.49502352 -3.84836493 5.29352121 -7.20800781 6.72216797 C-7.94986328 7.04701172 -8.69171875 7.37185547 -9.45605469 7.70654297 C-14.99567522 10.09716797 -14.99567522 10.09716797 -17.27050781 10.09716797 C-17.2125 10.78423828 -17.15449219 11.47130859 -17.09472656 12.17919922 C-16.95886765 14.89249584 -16.91035198 17.40250808 -17.27050781 20.09716797 C-19.70901633 22.27899138 -21.00262272 23.09716797 -24.27050781 23.09716797 C-23.94050781 21.44716797 -23.61050781 19.79716797 -23.27050781 18.09716797 C-22.28050781 18.09716797 -21.29050781 18.09716797 -20.27050781 18.09716797 C-20.27050781 14.46716797 -20.27050781 10.83716797 -20.27050781 7.09716797 C-17.36178855 5.70265853 -14.44559791 4.33152733 -11.52050781 2.97216797 C-10.69550781 2.57384766 -9.87050781 2.17552734 -9.02050781 1.76513672 C-8.22128906 1.39775391 -7.42207031 1.03037109 -6.59863281 0.65185547 C-5.86547852 0.30622559 -5.13232422 -0.0394043 -4.37695312 -0.39550781 C-2.27050781 -0.90283203 -2.27050781 -0.90283203 0 0 Z " fill="#A0A0A0" transform="translate(439.2705078125,209.90283203125)"/>
<path d="M0 0 C2.45784216 1.23415053 4.86862919 2.51421091 7.25390625 3.8828125 C6.26390625 4.3778125 6.26390625 4.3778125 5.25390625 4.8828125 C4.23296875 4.41875 4.23296875 4.41875 3.19140625 3.9453125 C-1.43460838 2.27207317 -6.08279608 1.93529314 -10.77734375 3.60546875 C-14.77362915 5.69674522 -16.84376678 7.86365284 -18.74609375 11.8828125 C-19.10677877 15.23573258 -19.10677877 15.23573258 -18.93359375 18.6953125 C-18.90652344 19.85675781 -18.87945313 21.01820313 -18.8515625 22.21484375 C-18.79935547 23.53548828 -18.79935547 23.53548828 -18.74609375 24.8828125 C-21.44682129 22.41693084 -22.5519591 20.55364353 -22.984375 16.83203125 C-23.16611168 11.29384492 -22.49122381 8.23526095 -18.74609375 3.8828125 C-13.11737173 -1.19676591 -7.17162134 -2.91761551 0 0 Z " fill="#A4A4A4" transform="translate(918.74609375,631.1171875)"/>
<path d="M0 0 C0.99 0.33 1.98 0.66 3 1 C2.3735762 5.1761587 0.95763834 8.48752485 -0.9375 12.25 C-1.46214844 13.30703125 -1.98679687 14.3640625 -2.52734375 15.453125 C-4 18 -4 18 -6 19 C-14.38585809 19.9288134 -20.99235363 18.84805723 -28 14 C-28.33 13.34 -28.66 12.68 -29 12 C-28.236875 12.309375 -27.47375 12.61875 -26.6875 12.9375 C-20.28942103 15.46697308 -14.87768469 15.06809589 -8 15 C-5.36 10.05 -2.72 5.1 0 0 Z " fill="#A5A5A5" transform="translate(740,213)"/>
<path d="M0 0 C4.5906904 0.38122059 9.18041473 0.77215296 13.76953125 1.171875 C15.32887658 1.30634591 16.88844825 1.43821955 18.44824219 1.56738281 C20.69792025 1.7541377 22.94660275 1.9504019 25.1953125 2.1484375 C25.8861795 2.20373627 26.57704651 2.25903503 27.28884888 2.31600952 C31.44194896 2.69287299 35.14198586 3.39401839 39 5 C39.495 5.99 39.495 5.99 40 7 C32.42353407 7.22958988 25.02169713 6.34848413 17.5 5.5 C15.5509375 5.28537109 15.5509375 5.28537109 13.5625 5.06640625 C10.37455176 4.71479431 7.18709869 4.35921736 4 4 C3.67 4.66 3.34 5.32 3 6 C2.01 4.02 1.02 2.04 0 0 Z " fill="#A5A5A5" transform="translate(865,725)"/>
<path d="M0 0 C0.66 0 1.32 0 2 0 C1.24254827 4.19003418 0.46666282 8.37645335 -0.3125 12.5625 C-0.52583984 13.74392578 -0.73917969 14.92535156 -0.95898438 16.14257812 C-3.17158877 27.93212693 -3.17158877 27.93212693 -6 33 C-7.485 33.495 -7.485 33.495 -9 34 C-8.2118373 27.27629101 -6.63447821 20.76568219 -5.0625 14.1875 C-4.79759766 13.04345703 -4.53269531 11.89941406 -4.25976562 10.72070312 C-4.00001953 9.63080078 -3.74027344 8.54089844 -3.47265625 7.41796875 C-3.23812744 6.42563232 -3.00359863 5.4332959 -2.76196289 4.41088867 C-2 2 -2 2 0 0 Z " fill="#A4A4A4" transform="translate(801,226)"/>
<path d="M0 0 C0.66 0 1.32 0 2 0 C2.33 2.31 2.66 4.62 3 7 C0.43795456 7.33719047 -2.12454318 7.66987153 -4.6875 8 C-5.40873047 8.09539063 -6.12996094 8.19078125 -6.87304688 8.2890625 C-7.93168945 8.42441406 -7.93168945 8.42441406 -9.01171875 8.5625 C-9.65584717 8.64628906 -10.29997559 8.73007812 -10.96362305 8.81640625 C-13.30040249 9.0270834 -15.65374276 9 -18 9 C-17.67 13.62 -17.34 18.24 -17 23 C-17.66 23 -18.32 23 -19 23 C-20.52056499 19.95887002 -20.3741161 16.71802203 -20.5625 13.375 C-20.706875 10.94125 -20.85125 8.5075 -21 6 C-14.07 5.34 -7.14 4.68 0 4 C0 2.68 0 1.36 0 0 Z " fill="#A0A0A0" transform="translate(230,563)"/>
<path d="M0 0 C2.2477975 2.05233685 3.0022242 3.00667261 4 6 C1.67297282 8.67080786 -0.69071804 11.30640917 -3.0625 13.9375 C-4.04766602 15.06961914 -4.04766602 15.06961914 -5.05273438 16.22460938 C-10.66015625 22.38448661 -10.66015625 22.38448661 -14.99609375 23.00390625 C-15.98738281 23.00261719 -16.97867188 23.00132812 -18 23 C-15.12681118 19.48832477 -12.19574757 16.15395872 -8.9296875 13.00390625 C-8.38731445 12.47829102 -7.84494141 11.95267578 -7.28613281 11.41113281 C-6.18713312 10.35348291 -5.07976832 9.30445049 -3.96386719 8.26464844 C-2.56710981 6.91717802 -1.27523133 5.46300812 0 4 C0 2.68 0 1.36 0 0 Z " fill="#A2A2A2" transform="translate(271,698)"/>
<path d="M0 0 C0.66 0 1.32 0 2 0 C3.65891382 3.51299398 4.28574735 5.32151344 3 9 C1.78491211 11.01464844 1.78491211 11.01464844 0.27734375 13.109375 C-0.26083984 13.86347656 -0.79902344 14.61757813 -1.35351562 15.39453125 C-2.19946289 16.56048828 -2.19946289 16.56048828 -3.0625 17.75 C-3.63033203 18.54277344 -4.19816406 19.33554687 -4.78320312 20.15234375 C-6.18339333 22.10555025 -7.58911094 24.05451502 -9 26 C-10.32 25.67 -11.64 25.34 -13 25 C-11.31101132 19.80756624 -8.0256011 16.07332051 -4.54492188 11.9921875 C-1.37420296 8.08116857 -0.32060038 5.1688632 0 0 Z " fill="#A1A1A1" transform="translate(243,631)"/>
<path d="M0 0 C4.32426707 3.72781644 6.5547063 7.75954948 7.32421875 13.359375 C7.61122067 19.73279692 6.01232541 24.43257714 3 30 C-1.75 29.125 -1.75 29.125 -4 28 C-3.67 27.34 -3.34 26.68 -3 26 C-2.01 26 -1.02 26 0 26 C2.12363562 21.68531175 2.30222359 17.71753113 2.25 13 C2.25773438 12.30132813 2.26546875 11.60265625 2.2734375 10.8828125 C2.25808241 6.81371437 1.8011034 3.65938469 0 0 Z " fill="#AAAAAA" transform="translate(950,555)"/>
<path d="M0 0 C1.65 0 3.3 0 5 0 C3.57519076 2.61215027 2.14850368 5.22295812 0.7109375 7.828125 C-0.40710131 9.90083622 -1.48727631 11.99454343 -2.5234375 14.109375 C-6.29166667 21.64583333 -6.29166667 21.64583333 -10.375 23.6875 C-11.24125 23.790625 -12.1075 23.89375 -13 24 C-11.27730925 19.06818247 -8.61088504 14.77066261 -5.9375 10.3125 C-5.02945488 8.78805399 -4.1218801 7.26332769 -3.21484375 5.73828125 C-2.81386475 5.06837158 -2.41288574 4.39846191 -1.99975586 3.70825195 C-1.29040398 2.49620432 -0.62805088 1.25610177 0 0 Z " fill="#A1A1A1" transform="translate(281,721)"/>
<path d="M0 0 C0.33 0.66 0.66 1.32 1 2 C-0.85564319 5.77334802 -3.14052836 8.28273241 -6.3125 11 C-7.10140625 11.680625 -7.8903125 12.36125 -8.703125 13.0625 C-9.46109375 13.701875 -10.2190625 14.34125 -11 15 C-11.63421875 15.53625 -12.2684375 16.0725 -12.921875 16.625 C-14.27424316 17.75841332 -15.63589777 18.88073663 -17 20 C-18.32 19.34 -19.64 18.68 -21 18 C-17.12391839 14.01317321 -13.04243788 10.35671819 -8.8125 6.75 C-7.86987305 5.93789062 -7.86987305 5.93789062 -6.90820312 5.109375 C-2.25352444 1.12676222 -2.25352444 1.12676222 0 0 Z " fill="#A0A0A0" transform="translate(789,240)"/>
<path d="M0 0 C0.99 0 1.98 0 3 0 C4.03155536 8.05473782 4.11895318 16.0131121 4.0625 24.125 C4.05798828 25.36765625 4.05347656 26.6103125 4.04882812 27.890625 C4.03714924 30.92713502 4.0207714 33.96354088 4 37 C3.34 37 2.68 37 2 37 C1.01147497 32.81723749 0.80326716 28.80286514 0.68359375 24.51171875 C0.66281265 23.80852005 0.64203156 23.10532135 0.62062073 22.3808136 C0.55559885 20.14980183 0.49646224 17.91867931 0.4375 15.6875 C0.39426964 14.16860866 0.35065395 12.64972823 0.30664062 11.13085938 C0.19996666 7.4206888 0.09856779 3.71039579 0 0 Z " fill="#A6A6A6" transform="translate(548,150)"/>
<path d="M0 0 C0.99 0.99 1.98 1.98 3 3 C1.8724682 5.76757806 0.73717318 7.25608767 -1.4375 9.375 C-5.23547029 13.26560371 -7.15896132 16.67279457 -7.25 22.125 C-7.06689689 24.96309816 -6.89091723 27.32724832 -6 30 C-8.77160662 27.60633973 -10.07263207 25.55491039 -11 22 C-11.34055409 15.63893618 -9.55573934 11.57606935 -5.66796875 6.62890625 C-3.89695641 4.89936961 -2.26150389 3.97622402 0 3 C0 2.01 0 1.02 0 0 Z " fill="#A2A2A2" transform="translate(255,319)"/>
<path d="M0 0 C-2 3 -2 3 -4.6262207 3.6159668 C-5.71507568 3.72593994 -6.80393066 3.83591309 -7.92578125 3.94921875 C-9.70952148 4.13774414 -9.70952148 4.13774414 -11.52929688 4.33007812 C-13.40198242 4.50700195 -13.40198242 4.50700195 -15.3125 4.6875 C-17.1677832 4.88182617 -17.1677832 4.88182617 -19.06054688 5.08007812 C-24.05776944 5.59032938 -28.97254868 6.08222603 -34 6 C-32 3 -32 3 -29.99609375 2.33984375 C-26.99930125 1.86859241 -24.00599632 1.41021426 -21 1 C-19.95247559 0.85449707 -19.95247559 0.85449707 -18.88378906 0.70605469 C-16.6114837 0.39552272 -14.33773209 0.1007658 -12.0625 -0.1875 C-11.32894287 -0.28361572 -10.59538574 -0.37973145 -9.83959961 -0.47875977 C-6.34334695 -0.89447151 -3.34972477 -1.23318849 0 0 Z " fill="#A1A1A1" transform="translate(272,726)"/>
<path d="M0 0 C9.42203817 2.63025688 18.49141493 6.11458567 27.62695312 9.59179688 C28.79033203 10.02943359 29.95371094 10.46707031 31.15234375 10.91796875 C32.7300354 11.51774536 32.7300354 11.51774536 34.33959961 12.12963867 C37.00868966 13.15546868 37.00868966 13.15546868 40 13 C40.33 12.34 40.66 11.68 41 11 C44 15.75 44 15.75 44 18 C34.54311792 15.45980667 25.49404256 11.84064446 16.375 8.3125 C14.78268147 7.69953356 13.19023452 7.08690065 11.59765625 6.47460938 C7.73027951 4.98691368 3.8646684 3.4947164 0 2 C0 1.34 0 0.68 0 0 Z " fill="#A7A7A7" transform="translate(842,742)"/>
<path d="M0 0 C8.00304407 0.48687721 15.20946997 3.31410455 22.6875 6 C24.64988329 6.69910961 26.61305316 7.39583444 28.57759094 8.08886719 C30.35252367 8.71584348 32.12494821 9.34990711 33.8972168 9.984375 C36.60139333 10.86952524 39.20000529 11.51867427 42 12 C42.33 10.68 42.66 9.36 43 8 C43.99 8.33 44.98 8.66 46 9 C45.67 10.98 45.34 12.96 45 15 C39.34866898 14.39179974 34.35609695 12.93806529 29.00390625 11.05859375 C28.17036118 10.77146011 27.3368161 10.48432648 26.47801208 10.18849182 C23.83742948 9.27737828 21.19996613 8.35759112 18.5625 7.4375 C16.76387145 6.81517809 14.96504518 6.19342733 13.16601562 5.57226562 C8.77502865 4.05477528 4.38681634 2.52950301 0 1 C0 0.67 0 0.34 0 0 Z " fill="#A7A7A7" transform="translate(199,429)"/>
<path d="M0 0 C0 3 0 3 -1.95703125 5.44921875 C-5.64333519 8.53927841 -9.23510178 10.10178211 -13.6875 11.8125 C-14.45900391 12.12380859 -15.23050781 12.43511719 -16.02539062 12.75585938 C-21.67273352 15 -21.67273352 15 -24 15 C-24 13.68 -24 12.36 -24 11 C-23.37955811 10.73783691 -22.75911621 10.47567383 -22.11987305 10.20556641 C-19.30772752 9.01521519 -16.49760305 7.82016451 -13.6875 6.625 C-12.22280273 6.00625 -12.22280273 6.00625 -10.72851562 5.375 C-9.79072266 4.97539062 -8.85292969 4.57578125 -7.88671875 4.1640625 C-7.02264404 3.79748535 -6.15856934 3.4309082 -5.26831055 3.05322266 C-2.80177535 1.97813656 -2.80177535 1.97813656 0 0 Z " fill="#A1A1A1" transform="translate(811,257)"/>
<path d="M0 0 C0.99 0.33 1.98 0.66 3 1 C2.4194679 4.30118794 1.45131901 5.91134076 -0.94140625 8.234375 C-1.52470703 8.80800781 -2.10800781 9.38164062 -2.70898438 9.97265625 C-3.32064453 10.55917969 -3.93230469 11.14570313 -4.5625 11.75 C-5.17802734 12.35199219 -5.79355469 12.95398438 -6.42773438 13.57421875 C-7.94514813 15.05634381 -9.47170596 16.5290967 -11 18 C-11.99 17.67 -12.98 17.34 -14 17 C-12.52778565 11.97769914 -9.5510349 9.19721778 -5.875 5.6875 C-5.31167969 5.13771484 -4.74835938 4.58792969 -4.16796875 4.02148438 C-2.78537942 2.67404562 -1.39359084 1.33605727 0 0 Z " fill="#A2A2A2" transform="translate(332,288)"/>
<path d="M0 0 C27.64523057 1.16724307 27.64523057 1.16724307 35 6 C32.42377484 7.28811258 31.54291811 6.81365422 28.75 6.1875 C19.28442804 4.31979654 9.60321016 3.79041904 0 3 C0 2.01 0 1.02 0 0 Z " fill="#A8A8A8" transform="translate(188,487)"/>
<path d="M0 0 C0.99 0.33 1.98 0.66 3 1 C1.47901178 5.32437828 -1.79931239 7.34330382 -5.4375 9.8125 C-6.31631836 10.44188477 -6.31631836 10.44188477 -7.21289062 11.08398438 C-8.93359375 12.26953125 -8.93359375 12.26953125 -12 14 C-12.99 13.67 -13.98 13.34 -15 13 C-13.47901178 8.67562172 -10.20068761 6.65669618 -6.5625 4.1875 C-5.97662109 3.76791016 -5.39074219 3.34832031 -4.78710938 2.91601562 C-3.06640625 1.73046875 -3.06640625 1.73046875 0 0 Z " fill="#9F9F9F" transform="translate(381,249)"/>
<path d="M0 0 C0.62003906 0.20496094 1.24007812 0.40992188 1.87890625 0.62109375 C9.95731129 3.07871624 17.60590627 3.67148621 26 4 C26 3.34 26 2.68 26 2 C26.66 2 27.32 2 28 2 C28.33 3.32 28.66 4.64 29 6 C21.01262334 8.66245889 12.60673555 7.45574415 5.0234375 4.16796875 C2.98439826 2.99099436 1.56864806 1.74349737 0 0 Z " fill="#A2A2A2" transform="translate(615,206)"/>
<path d="M0 0 C0.66 0 1.32 0 2 0 C2 2.31 2 4.62 2 7 C-4.6 7.33 -11.2 7.66 -18 8 C-18 7.01 -18 6.02 -18 5 C-14.24600202 3.7960663 -10.66782588 3.90122383 -6.75 3.9375 C-4.85507812 3.95103516 -4.85507812 3.95103516 -2.921875 3.96484375 C-1.95765625 3.97644531 -0.9934375 3.98804688 0 4 C0 2.68 0 1.36 0 0 Z " fill="#A6A6A6" transform="translate(564,189)"/>
<path d="M0 0 C0.99 0.33 1.98 0.66 3 1 C2.34496718 5.05819183 1.05440879 8.53971282 -0.5625 12.3125 C-1.01753906 13.38113281 -1.47257813 14.44976562 -1.94140625 15.55078125 C-2.46541016 16.76314453 -2.46541016 16.76314453 -3 18 C-3.99 18 -4.98 18 -6 18 C-5.55397709 11.30965634 -2.92654458 5.97187878 0 0 Z " fill="#A0A0A0" transform="translate(647,176)"/>
<path d="M0 0 C0 0.66 0 1.32 0 2 C-0.928125 2.2475 -1.85625 2.495 -2.8125 2.75 C-6.26576296 4.10422077 -7.29614318 4.77163972 -9 8 C-9.72045367 11.15118325 -9.72045367 11.15118325 -10 14 C-10.99 13.34 -11.98 12.68 -13 12 C-13.61538211 7.38463417 -12.77411308 4.69881744 -10 1 C-6.1496895 -1.56687367 -4.41430237 -0.83288724 0 0 Z " fill="#A3A3A3" transform="translate(637,177)"/>
<path d="M0 0 C-0.5546875 1.859375 -0.5546875 1.859375 -2 4 C-5.2578125 5.265625 -5.2578125 5.265625 -9.125 6.25 C-9.78371094 6.42273438 -10.44242188 6.59546875 -11.12109375 6.7734375 C-12.74369882 7.19672578 -14.37142454 7.60029741 -16 8 C-16.66 6.68 -17.32 5.36 -18 4 C-15.5636811 3.32873871 -13.12611117 2.66283646 -10.6875 2 C-9.65206055 1.71382813 -9.65206055 1.71382813 -8.59570312 1.421875 C-5.64212051 0.62283816 -3.07440781 0 0 0 Z " fill="#A5A5A5" transform="translate(867,310)"/>
<path d="M0 0 C0.99 0.66 1.98 1.32 3 2 C1.34908222 6.29238623 -1.73754566 8.8793915 -5 12 C-5.99 11.67 -6.98 11.34 -8 11 C-7.43040847 7.37386801 -6.07625466 5.74482259 -3.4375 3.25 C-2.79683594 2.63640625 -2.15617187 2.0228125 -1.49609375 1.390625 C-1.00238281 0.93171875 -0.50867188 0.4728125 0 0 Z " fill="#A3A3A3" transform="translate(302,261)"/>
<path d="M0 0 C5.80825005 1.12089036 11.38249202 2.66850918 17 4.5 C17.6710376 4.71358154 18.3420752 4.92716309 19.03344727 5.1472168 C20.70990826 5.70546391 22.35826244 6.34665546 24 7 C24.33 7.66 24.66 8.32 25 9 C19.2073537 8.38574623 14.05390934 6.84466956 8.5625 4.9375 C7.73556641 4.65583984 6.90863281 4.37417969 6.05664062 4.08398438 C4.03587662 3.39482208 2.01766718 2.6981769 0 2 C0 1.34 0 0.68 0 0 Z " fill="#ACACAC" transform="translate(208,402)"/>
<path d="M0 0 C1.485 0.99 1.485 0.99 3 2 C3.22137393 4.62697064 3.28162025 7.00893964 3.1875 9.625 C3.16719727 10.68460938 3.16719727 10.68460938 3.14648438 11.765625 C3.1111104 13.51074128 3.05730221 15.25546608 3 17 C2.01 17.33 1.02 17.66 0 18 C0 12.06 0 6.12 0 0 Z " fill="#9A9A9A" transform="translate(419,192)"/>
<path d="M0 0 C2.02045442 0.60183749 4.02111039 1.27306096 6 2 C6.33 2.66 6.66 3.32 7 4 C5.68 4 4.36 4 3 4 C0.71760829 6.92321965 0.71760829 6.92321965 -1 10 C-2.98 9.34 -4.96 8.68 -7 8 C-6.67 7.34 -6.34 6.68 -6 6 C-5.01 6.33 -4.02 6.66 -3 7 C-2.690625 6.21625 -2.38125 5.4325 -2.0625 4.625 C-1 2 -1 2 0 0 Z " fill="#A6A6A6" transform="translate(271,333)"/>
<path d="M0 0 C0.5775 0.2475 1.155 0.495 1.75 0.75 C0.31036361 4.10915158 -1.37416589 6.46624938 -4.25 8.75 C-6.5 8.5 -6.5 8.5 -8.25 7.75 C-6.64613593 4.0076505 -4.56199942 -0.50688882 0 0 Z " fill="#A5A5A5" transform="translate(315.25,277.25)"/>
<path d="M0 0 C0 0.66 0 1.32 0 2 C-5.38027025 3.19088986 -10.45291384 4.2919519 -16 4 C-16 3.01 -16 2.02 -16 1 C-10.59255982 0.22750855 -5.46137814 -0.09752461 0 0 Z " fill="#9C9C9C" transform="translate(203,571)"/>
<path d="M0 0 C0.33 0 0.66 0 1 0 C1.33 4.29 1.66 8.58 2 13 C0.02 13.33 -1.96 13.66 -4 14 C-4.33 12.68 -4.66 11.36 -5 10 C-3.68 10 -2.36 10 -1 10 C-0.67 6.7 -0.34 3.4 0 0 Z " fill="#AAAAAA" transform="translate(915,568)"/>
<path d="M0 0 C0.66 1.32 1.32 2.64 2 4 C0.43058802 5.56941198 -1.14134994 5.2449847 -3.3125 5.3125 C-6.82699145 5.29571103 -7.69309167 5.23953821 -10.5625 3 C-11.2740625 2.01 -11.2740625 2.01 -12 1 C-10.95199219 1.01740234 -10.95199219 1.01740234 -9.8828125 1.03515625 C-8.97273437 1.04417969 -8.06265625 1.05320313 -7.125 1.0625 C-5.76761719 1.07990234 -5.76761719 1.07990234 -4.3828125 1.09765625 C-1.9831415 1.16249257 -1.9831415 1.16249257 0 0 Z " fill="#A9A9A9" transform="translate(634,194)"/>
<path d="M0 0 C0.99 0.66 1.98 1.32 3 2 C2.25 6.75 2.25 6.75 0 9 C-2.5625 8.75 -2.5625 8.75 -5 8 C-5.33 7.34 -5.66 6.68 -6 6 C-5.195625 5.7525 -4.39125 5.505 -3.5625 5.25 C-0.828919 4.27761141 -0.828919 4.27761141 -0.1875 1.875 C-0.125625 1.25625 -0.06375 0.6375 0 0 Z " fill="#A4A4A4" transform="translate(498,196)"/>
<path d="M0 0 C0.33 0.66 0.66 1.32 1 2 C-1.97 2.66 -4.94 3.32 -8 4 C-8.66 3.01 -9.32 2.02 -10 1 C-6.26317891 -0.81502739 -3.99179743 -1.33059914 0 0 Z " fill="#A5A5A5" transform="translate(843,317)"/>
<path d="M0 0 C4.29 0.33 8.58 0.66 13 1 C11.68 1.33 10.36 1.66 9 2 C9 2.66 9 3.32 9 4 C7.35 4 5.7 4 4 4 C3.67 4.66 3.34 5.32 3 6 C2.01 4.02 1.02 2.04 0 0 Z " fill="#ADADAD" transform="translate(865,725)"/>
<path d="M0 0 C5 2 5 2 7.3125 3.03125 C10.21951239 4.07912656 12.73666904 4.40265077 15.8125 4.625 C16.78832031 4.69976562 17.76414062 4.77453125 18.76953125 4.8515625 C19.50558594 4.90054687 20.24164063 4.94953125 21 5 C21 5.33 21 5.66 21 6 C14.450252 7.21907323 9.48449415 7.96628795 3.75 4.125 C1.546875 2.4453125 1.546875 2.4453125 0 1 C0 0.67 0 0.34 0 0 Z " fill="#C4C4C4" transform="translate(246,357)"/>
<path d="M0 0 C0.66 0.33 1.32 0.66 2 1 C2.04254356 2.99954746 2.04080783 5.00041636 2 7 C1 8 1 8 -2.0625 8.0625 C-3.031875 8.041875 -4.00125 8.02125 -5 8 C-5 7.34 -5 6.68 -5 6 C-4.360625 5.525625 -3.72125 5.05125 -3.0625 4.5625 C-0.71627037 3.0908635 -0.71627037 3.0908635 0 0 Z " fill="#9F9F9F" transform="translate(915,495)"/>
<path d="M0 0 C0 0.66 0 1.32 0 2 C-2.57213134 3.61949011 -3.67669159 4.04408751 -6.75 3.625 C-7.4925 3.41875 -8.235 3.2125 -9 3 C-9 2.34 -9 1.68 -9 1 C-5.57367167 -0.61798838 -3.61944899 -1.34053666 0 0 Z " fill="#A2A2A2" transform="translate(455,214)"/>
<path d="M0 0 C3.07692057 2.76922851 4.77800007 5.02850024 6 9 C6 9.99 6 10.98 6 12 C5.34 12 4.68 12 4 12 C3.67 12.99 3.34 13.98 3 15 C2.92652344 14.12988281 2.92652344 14.12988281 2.8515625 13.2421875 C2.40350595 8.56076908 1.701979 4.42514541 0 0 Z " fill="#B2B2B2" transform="translate(934,634)"/>
<path d="M0 0 C0.99 0.99 1.98 1.98 3 3 C2.01 4.32 1.02 5.64 0 7 C-1.32 6.67 -2.64 6.34 -4 6 C-2.84826645 3.53199953 -1.95216435 1.95216435 0 0 Z " fill="#A7A7A7" transform="translate(746,192)"/>
<path d="M0 0 C0.99 0.33 1.98 0.66 3 1 C2.67 2.98 2.34 4.96 2 7 C0.35 6.67 -1.3 6.34 -3 6 C-2.34 5.67 -1.68 5.34 -1 5 C-0.34444881 2.47266765 -0.34444881 2.47266765 0 0 Z " fill="#A0A0A0" transform="translate(242,437)"/>
<path d="M0 0 C2.50037734 2.17424117 3.43628586 3.73045798 4 7 C1.64828869 6.40138258 -0.6859378 5.73075648 -3 5 C-3.33 4.34 -3.66 3.68 -4 3 C-2.68 2.67 -1.36 2.34 0 2 C0 1.34 0 0.68 0 0 Z " fill="#B0B0B0" transform="translate(882,753)"/>
<path d="M0 0 C3.3 0 6.6 0 10 0 C9.01 0.495 9.01 0.495 8 1 C8 1.66 8 2.32 8 3 C5.36 2.67 2.72 2.34 0 2 C0 1.34 0 0.68 0 0 Z " fill="#AAAAAA" transform="translate(185,513)"/>
<path d="M0 0 C1.8161982 0.42188459 3.62794073 0.86299165 5.4375 1.3125 C6.44683594 1.55613281 7.45617187 1.79976562 8.49609375 2.05078125 C9.32238281 2.36402344 10.14867187 2.67726562 11 3 C11.33 3.99 11.66 4.98 12 6 C7.24518354 5.42365861 4.02951788 3.44931479 0 1 C0 0.67 0 0.34 0 0 Z " fill="#ADADAD" transform="translate(615,206)"/>
<path d="M0 0 C2.52328232 2.52328232 3.71399027 3.8344376 5 7 C5 7.99 5 8.98 5 10 C4.34 10 3.68 10 3 10 C2.67 10.66 2.34 11.32 2 12 C1.34 8.04 0.68 4.08 0 0 Z " fill="#ABABAB" transform="translate(658,169)"/>
</svg>
