<?xml version="1.0" encoding="UTF-8"?> <svg xmlns="http://www.w3.org/2000/svg" width="274" height="64" viewBox="0 0 274 64" fill="none"><path d="M155.145 39.1438L159.659 42.0532C156.795 45.676 152.414 48 147.509 48C138.903 48 131.9 40.8501 131.9 32.0627C131.9 23.2754 138.903 16.1254 147.509 16.1254C152.373 16.1254 156.723 18.4089 159.589 21.9805L155.108 24.9411C153.22 22.8438 150.513 21.526 147.509 21.526C141.82 21.526 137.191 26.2521 137.191 32.0614C137.191 37.8706 141.82 42.5967 147.509 42.5967C150.533 42.5981 153.256 41.2654 155.145 39.1438ZM69.521 16.2833L78.278 27.6819V42.1314H54.3691V27.6805L63.126 16.2819H69.521V16.2833ZM72.9887 29.5472L66.3228 20.8718L59.657 29.5472V36.7295H72.9873V29.5472H72.9887ZM102.451 31.3587C100.529 29.7064 97.7642 28.6193 94.2321 28.127C88.5951 27.3419 88.5951 25.4173 88.5951 24.7846C88.5951 24.3302 88.9372 23.5235 89.9041 22.7507C90.9742 21.8929 92.4223 21.4019 93.8754 21.4019C97.8804 21.4019 100.085 23.5101 100.176 23.5991L100.154 23.5761L103.905 19.7672C103.755 19.6134 100.163 16 93.8754 16C88.245 16 83.3057 20.1044 83.3057 24.7846C83.3057 28.1014 85.0772 32.3028 93.517 33.479C98.0055 34.1048 100.282 35.695 100.282 38.2051C100.282 40.7637 96.9043 42.5468 93.8721 42.5468C88.8038 42.5468 85.5382 39.8762 85.5052 39.8493L83.8183 41.9291L82.1169 43.9968C82.3044 44.1586 86.8038 47.946 93.8713 47.946C100.322 47.946 105.57 43.576 105.57 38.2024C105.57 35.4792 104.492 33.1121 102.451 31.3587ZM249.51 25.4766C249.51 30.548 245.469 34.6726 240.504 34.6726H229.856V47.6681H224.566V16.2806H240.504C245.47 16.2806 249.51 20.4065 249.51 25.4766ZM244.221 25.4766C244.221 23.3833 242.553 21.6811 240.504 21.6811H229.856V28.3009V29.2721H240.504C242.553 29.2721 244.221 27.5699 244.221 25.4766ZM114.605 34.6753H127.784V29.2748H114.605V21.6811H130.511V16.2806H109.315V47.6668H130.513V42.2662H114.605V34.6753ZM205.75 29.0914L197.06 16.29L197.059 16.2914V16.2819H191.77V47.6681H197.059V25.7692L203.102 34.6726H206.531H206.577H208.396L214.441 25.7665V47.6708H219.73V16.2846H214.441L205.75 29.0914ZM50.1233 38.4627C50.1233 43.5342 46.0824 47.6587 41.1167 47.6587H24.0889V34.6672V29.2667V16.2752H40.3227C45.2897 16.2752 49.3294 20.4011 49.3294 25.4712C49.3294 27.8059 48.4707 29.9397 47.0612 31.5636C48.937 33.2496 50.1233 35.7166 50.1233 38.4627ZM29.3795 29.2667H40.324C42.3742 29.2667 44.0413 27.5645 44.0413 25.4712C44.0413 23.3779 42.3742 21.6757 40.324 21.6757H29.3795V29.2667ZM44.834 38.4627C44.834 36.3694 43.1669 34.6672 41.1167 34.6672H40.3227H29.3782V42.2582H41.1153C43.1669 42.2582 44.834 40.556 44.834 38.4627ZM177.702 16.2819L189.135 47.6681H183.491L180.735 40.1001H168.562L165.807 47.6681H160.163L171.595 16.2819H177.702ZM178.768 34.6996L174.65 23.3927L170.531 34.6996H178.768Z" fill="#898989"></path></svg> 