<svg xmlns="http://www.w3.org/2000/svg" width="25" height="24" viewBox="0 0 25 24" fill="none"><g clip-path="url(#clip0_136_224)"><path d="M10.4554 6.67871C12.1361 6.67872 13.9014 6.95409 15.1917 7.43848H15.1927C15.8015 7.66758 16.4793 8.17593 17.0091 8.56641H17.0101C17.4638 8.90119 17.8105 9.15358 18.0609 9.27832V9.2793C18.5013 9.49914 19.0173 9.67496 19.6292 9.88184C20.4624 10.1635 21.4543 10.4938 22.2591 11.0488H22.2601C22.6484 11.3165 23.0494 11.8081 23.3568 12.2871C23.6684 12.7728 23.9666 13.3745 24.0677 13.9248L24.0921 14.0898C24.1366 14.4777 24.0855 14.8895 23.8431 15.248L23.8441 15.249C23.6143 15.5893 23.2688 15.7748 22.9242 15.876C22.6234 15.9642 22.2763 16.001 21.8988 16.0088C21.4783 17.1034 20.4346 17.8925 19.1937 17.8926C17.9412 17.8926 16.8891 17.0894 16.4759 15.9795H8.89974C8.48667 17.0893 7.43432 17.8926 6.18197 17.8926C4.91388 17.8924 3.85081 17.0684 3.44954 15.9365C3.23934 15.9169 3.01221 15.8886 2.79037 15.8467C2.56709 15.8045 2.32837 15.7447 2.10775 15.6582C1.89749 15.5757 1.64091 15.4454 1.44173 15.2266L1.44271 15.2256C0.892416 14.6218 0.837722 13.7219 0.928061 13.0059C1.02391 12.2462 1.31142 11.4378 1.72884 10.8154V10.8145C2.29968 9.96379 2.83959 9.65015 3.48665 9.27051C3.94809 8.99981 4.50358 8.67361 5.33431 8.01953C6.1202 7.40072 7.123 7.07439 8.02962 6.89746C8.94729 6.71839 9.83777 6.67871 10.4554 6.67871ZM10.4554 8.75977C8.71629 8.75979 7.44505 9.08695 6.74251 9.56152L6.6097 9.6582C5.66975 10.3984 5.002 10.7895 4.52865 11.0674C3.94536 11.4098 3.74231 11.5331 3.44369 11.9785V11.9795C3.22076 12.312 3.05202 12.784 2.98763 13.2207C2.95589 13.436 2.95417 13.6144 2.97005 13.7402C2.97083 13.7464 2.97217 13.7522 2.97298 13.7578C3.04596 13.7759 3.13909 13.7956 3.2513 13.8135C3.5673 13.8639 3.96281 13.8964 4.31966 13.8994H4.32064C4.90111 13.9052 5.34494 14.3821 5.34505 14.9395C5.34505 15.4356 5.73713 15.8125 6.18294 15.8125C6.62963 15.8123 7.02083 15.435 7.02083 14.9395C7.02044 14.3788 7.46993 13.8994 8.05501 13.8994H17.3206C17.9071 13.8994 18.3547 14.3805 18.3548 14.9395C18.3548 15.4348 18.7465 15.8124 19.1937 15.8125C19.64 15.8125 20.0316 15.4353 20.0316 14.9395C20.0316 14.6505 20.152 14.3713 20.3665 14.1729L20.3675 14.1719C20.581 13.9754 20.8694 13.8756 21.1644 13.9043H21.1654C21.1787 13.9056 21.44 13.9326 21.7474 13.9326C21.8034 13.9326 21.8551 13.9303 21.9027 13.9287C21.8294 13.7687 21.7302 13.5875 21.6097 13.4023C21.5006 13.2347 21.3873 13.083 21.2855 12.9639C21.2347 12.9045 21.1896 12.8561 21.1527 12.8203C21.1345 12.8027 21.1191 12.7899 21.1077 12.7803C21.098 12.7721 21.0927 12.7677 21.0911 12.7666L21.0902 12.7656C20.5559 12.3967 19.8174 12.1411 18.9701 11.8545C18.3896 11.6579 17.725 11.4351 17.141 11.1436C16.7037 10.9253 16.2191 10.5636 15.7865 10.2441C15.5169 10.0453 15.2616 9.85721 15.0238 9.69922C14.7789 9.5366 14.5945 9.43481 14.4691 9.3877C13.4636 9.00998 11.9178 8.75977 10.4554 8.75977Z" fill="#858585"></path></g><defs><clipPath id="clip0_136_224"><rect width="24" height="24" fill="white" transform="translate(0.5)"></rect></clipPath></defs></svg>