<?xml version="1.0" encoding="UTF-8"?> <svg xmlns="http://www.w3.org/2000/svg" width="161" height="48" viewBox="0 0 161 48" fill="none"><g id="g27027"><path id="path6411" d="M160.209 24.0035C160.209 10.7432 149.459 0 136.205 0H23.9966C10.7432 0 0 10.7432 0 24.0035C0 37.2569 10.7432 48.0001 23.9966 48.0001H136.205C149.459 48.0001 160.209 37.2569 160.209 24.0035Z" fill="#898989"></path><path id="path6413" d="M144.265 13.5395C142.603 12.8094 140.844 12.5382 139.043 12.5382C131.965 12.5382 126.777 17.2944 126.777 24.4426C126.777 31.8203 131.666 36.5418 139.008 36.5418C140.371 36.5418 142.534 36.4444 144.293 35.7143L144.098 32.4879C142.937 33.1832 140.712 33.6213 139.043 33.6213C134.224 33.6213 130.303 29.9915 130.303 24.54C130.303 19.3249 133.856 15.4657 139.21 15.4657C140.907 15.4657 142.534 15.8968 144.001 16.759L144.265 13.5395ZM112.46 13.5395C110.798 12.8094 109.039 12.5382 107.245 12.5382C100.159 12.5382 94.9719 17.2944 94.9719 24.4426C94.9719 31.8203 99.8602 36.5418 107.21 36.5418C108.573 36.5418 110.736 36.4444 112.495 35.7073L112.3 32.4879C111.132 33.1832 108.907 33.6213 107.245 33.6213C102.419 33.6213 98.4973 29.9915 98.4973 24.54C98.4973 19.3179 102.058 15.4657 107.412 15.4657C109.101 15.4657 110.736 15.8968 112.196 16.759L112.46 13.5395ZM75.8845 36.201H79.2083V12.9972H75.8845V36.201ZM51.1648 36.2149H54.4885V15.9315H61.6993V13.0041H43.947V15.9315H51.1648V36.2149ZM33.6697 13.5326C32.0078 12.8024 30.2416 12.5312 28.4476 12.5312C21.369 12.5312 16.1816 17.2875 16.1816 24.4357C16.1816 31.8133 21.07 36.5348 28.4129 36.5348C29.7758 36.5348 31.9383 36.4374 33.6975 35.7073L33.5028 32.4809C32.3416 33.1762 30.1095 33.6073 28.4476 33.6073C23.6289 33.6073 19.7071 29.9846 19.7071 24.533C19.7071 19.3179 23.2603 15.4587 28.6145 15.4587C30.3112 15.4587 31.9383 15.8898 33.4055 16.752L33.6697 13.5326Z" fill="white"></path></g></svg> 