<?xml version="1.0" encoding="UTF-8"?> <svg xmlns="http://www.w3.org/2000/svg" width="3043" height="1406" viewBox="0 0 3043 1406" fill="none"><path d="M0 0C327.739 0 327.739 0 402.956 72.3659C458.326 131.729 470.363 208.021 468.773 286.325C466.064 358.544 450.16 433.287 398.987 487.88C284.522 589 153.214 564.675 0 564.675C0 378.332 0 191.989 0 0ZM151.95 130.31C151.95 229.215 151.95 328.12 151.95 430.022C215.234 432.86 215.234 432.86 264.793 404.978C299.689 368.181 304.711 325.952 304.985 277.179C305.075 273.291 305.164 269.402 305.257 265.396C305.479 226.937 298.261 191.139 273.51 160.715C235.355 124.201 207.488 130.31 151.95 130.31Z" fill="#898989"></path><path d="M1475.81 168.318C1519.27 202.643 1543.9 250.186 1553.01 304.872C1560.65 381.315 1548.54 448.946 1505.66 513.91C1458.15 559.331 1401.46 574.962 1336.96 573.992C1284.97 571.446 1235.22 556.92 1196.44 520.392C1151.58 469.32 1140.37 417.221 100.9 351.295C100.85 346.532 100.81 341.77 100.76 336.863C1140.43 275.1 1157.61 224.8 1199.85 179.551C1271.4 115.94 1398.99 116.118 1475.81 168.318ZM1319.79 256.277C1291.21 286.506 1288.25 321.082 1288.74 361.068C1290.46 393.482 1296.57 420.724 1315.45 447.398C1326.27 455.981 1333.6 456.187 1347.47 457.986C1363.06 456.104 1372.19 453.381 1383.66 442.427C1408.92 406.051 1405.86 351.74 1400.91 309.809C1396.99 288.787 1390.34 272.811 1376.23 256.277C1355.57 245.182 1340.55 245.639 1319.79 256.277Z" fill="#898989"></path><path d="M2748.12 147.683C2753.21 149.825 2753.21 149.825 2758.4 152.01C2799.19 171.864 2824.34 205.563 2839.29 247.587C2847.98 291.024 2847.98 291.024 2847.98 395.271C2725.48 397.421 2725.48 397.421 2600.52 399.615C2616.39 433.799 2616.39 433.799 2643.93 451.739C2686.46 465.922 2732.52 455.107 2773.97 442.509C2787.2 438.708 2787.2 438.708 2800.22 438.708C2803.87 452.816 2807.48 466.936 2811.08 481.058C2812.63 487.055 2812.63 487.055 2814.21 493.173C2815.68 498.968 2815.68 498.968 2817.18 504.881C2818.54 510.203 2818.54 510.203 2819.94 515.634C2821.93 525.581 2821.93 525.581 2821.93 542.956C2743.77 581.036 2653.39 582.146 2570.13 560.33C2517.85 541.845 2487.08 507.784 2463.37 458.95C2450.06 424.39 2447 391.969 2447.21 355.093C2447.23 350.687 2447.26 346.282 2447.28 341.743C2448.24 282.26 2460.1 227.695 2502.29 182.975C2564.09 126.669 2671.38 114.643 2748.12 147.683ZM2622.22 251.931C2607.33 267.238 2604.87 273.593 2600.52 295.367C2636.33 295.367 2672.15 295.367 2709.05 295.367C2704.46 267.436 2704.46 267.436 2687.34 247.587C2662.8 234.693 2645.49 237.869 2622.22 251.931Z" fill="#898989"></path><path d="M702.496 132.755C709.363 132.804 709.363 132.804 716.368 132.854C772.502 134.04 813.756 146.74 854.819 185.964C911.125 244.914 898.674 315.776 898.674 395.274C817.012 395.274 735.35 395.274 651.213 395.274C665.893 433.102 665.893 433.102 694.627 451.742C745.425 467.913 100.247 451.332 850.919 438.711C857.169 456.738 862.315 474.698 866.656 493.278C867.787 498.032 868.917 502.785 870.082 507.683C872.368 519.869 873.131 530.612 872.626 542.958C797.311 578.891 704.448 586.582 624.588 560.18C577.61 541.862 545.636 518.119 520.97 473.46C490.503 400.947 489.53 313.318 516.917 239.446C537.803 194.205 570.315 162.043 617.076 144.132C645.735 134.502 672.4 132.452 702.496 132.755ZM662.609 264.693C654.198 278.044 654.198 278.044 655.554 295.37C692.422 298.567 727.322 300.996 764.09 295.37C758.703 270.242 758.703 270.242 744.197 249.813C712.692 230.927 685.729 236.082 662.609 264.693Z" fill="#898989"></path><path d="M1992.72 8.6875C1996.05 26.389 1997.57 43.046 1997.48 61.0489C1997.47 65.8642 1997.45 70.6796 1997.44 75.6408C1997.38 83.0822 1997.38 83.0822 1997.33 90.674C1997.31 95.7357 1997.29 100.797 1997.27 106.012C1997.22 118.455 1997.14 130.898 1997.06 143.341C2025.71 143.341 2054.36 143.341 2083.89 143.341C2083.89 180.609 2083.89 217.878 2083.89 256.276C2055.23 256.276 2026.58 256.276 1997.06 256.276C1997.18 281.408 1997.37 306.521 1997.72 331.648C1997.82 340.197 1997.88 348.745 1997.91 357.294C1997.95 369.578 1998.12 381.854 1998.33 394.136C1998.31 397.964 1998.3 401.792 1998.28 405.737C1998.52 415.748 1998.93 424.662 2001.4 434.366C2013.75 445.275 2019.28 447.541 2035.71 446.921C2040.05 446.003 2044.4 445.085 2048.88 444.139C2055.39 442.829 2055.39 442.829 2062.03 441.492C2066.37 440.574 2070.72 439.655 2075.2 438.709C2083.8 437.276 2092.4 435.842 2101.25 434.366C2101.25 473.068 2101.25 511.769 2101.25 551.644C2038.14 572.033 1968.96 587.083 1904.77 560.637C1879.25 546.561 1859.87 524.081 1851.4 495.917C1844.86 468.831 1843.97 443.125 1844.26 415.345C1844.27 410.773 1844.28 406.2 1844.3 401.489C1844.34 387.019 1844.45 372.55 1844.56 358.08C1844.61 348.214 1844.65 338.347 1844.68 328.481C1844.78 304.412 1844.93 280.344 1845.11 256.276C1829.35 256.276 1813.59 256.276 1797.35 256.276C1797.35 219.007 1797.35 181.739 1797.35 143.341C1813.11 143.341 1828.87 143.341 1845.11 143.341C1845.11 107.506 1845.11 71.6705 1845.11 34.7494C1865.23 29.717 1884.36 24.9413 1904.62 21.413C1911.12 20.2792 1911.12 20.2792 1917.75 19.1224C1922.16 18.3666 1926.58 17.6107 1931.12 16.8319C1935.62 16.0424 1940.12 15.2529 1944.75 14.4394C1978.01 8.6875 1978.01 8.6875 1992.72 8.6875Z" fill="#898989"></path><path d="M2318.32 8.6875C2318.32 53.1231 2318.32 97.5586 2318.32 143.341C2348.41 143.341 2378.5 143.341 2409.49 143.341C2409.49 180.609 2409.49 217.878 2409.49 256.276C2379.41 256.276 2349.32 256.276 2318.32 256.276C2318.84 280.084 2319.38 303.891 2319.94 327.698C2320.13 335.795 2320.31 343.893 2320.48 351.991C2320.73 363.636 2321.01 375.28 2321.29 386.925C2321.4 392.348 2321.4 392.348 2321.51 397.882C2321.6 401.272 2321.68 404.662 2321.77 408.155C2321.87 412.611 2321.87 412.611 2321.98 417.158C2322.7 426.175 2324.58 434.351 2327.01 443.053C2360.98 450.53 2388.94 442.441 2422.52 434.366C2422.52 473.067 2422.52 511.769 2422.52 551.644C2355.78 572.984 2293.92 583.289 2226.07 559.789C2195.31 538.806 2179.23 513.702 2170.71 477.802C2169.07 460.344 2169.19 443.049 2169.44 425.526C2169.46 420.664 2169.48 415.802 2169.5 410.793C2169.57 395.393 2169.73 379.995 2169.9 364.596C2169.97 354.101 2170.03 343.607 2170.08 333.113C2170.22 307.499 2170.45 281.888 2170.71 256.276C2153.52 256.276 2136.33 256.276 2118.62 256.276C2118.62 219.007 2118.62 181.739 2118.62 143.341C2135.81 143.341 2153 143.341 2170.71 143.341C2170.71 106.072 2170.71 68.8037 2170.71 30.4058C2189.64 27.3032 2208.57 24.2069 2227.5 21.1267C2233.94 20.077 2240.38 19.0237 2246.82 17.9665C2256.07 16.4475 2265.33 14.9416 2274.59 13.4384C2280.16 12.5285 2285.73 11.6186 2291.47 10.6812C2305.3 8.6875 2305.3 8.6875 2318.32 8.6875Z" fill="#898989"></path><path d="M946.43 0C995.141 0 1043.85 0 1094.04 0C1094.04 186.343 1094.04 372.685 1094.04 564.675C1045.33 564.675 996.617 564.675 946.43 564.675C946.43 378.332 946.43 191.989 946.43 0Z" fill="#898989"></path><path d="M716.066 820.409C721.209 820.398 726.352 820.387 731.651 820.375C746.728 820.952 746.728 820.952 758.754 823.074C773.886 825.471 788.499 826.212 803.811 826.67C806.665 826.76 809.519 826.85 812.459 826.943C821.481 827.225 830.503 827.482 839.526 827.739C845.682 827.927 851.838 828.116 857.994 828.307C873.002 828.77 888.01 829.21 903.019 829.639C903.019 841.106 903.019 852.574 903.019 864.388C868.635 866.539 868.635 866.539 833.556 868.732C836.332 874.824 839.108 880.916 841.968 887.193C858.445 923.355 861.566 963.594 850.922 1002.3C838.068 1035.09 812.709 1060.15 780.848 1074.38C766.271 1079.52 752.998 1082.09 737.536 1082.33C734.184 1082.44 730.831 1082.54 727.378 1082.65C720.414 1082.83 713.45 1082.97 706.485 1083.06C683.259 1083.89 669.737 1088.01 651.216 1103.29C641.089 1117.11 640.386 1129.9 642.533 1146.73C655.002 1160.64 668.012 1161.7 685.948 1164.1C695.41 1164.52 704.882 1164.77 714.353 1164.86C719.734 1164.97 725.115 1165.07 730.659 1165.18C741.829 1165.36 752.999 1165.5 764.17 1165.59C806.751 1166.53 846.449 1170.39 877.242 1202.38C898.579 1230.11 902.599 1260.29 898.678 1294.41C891.095 1327.44 878.543 1352.43 850.922 1372.6C806.522 1399.77 764.815 1404.71 713.662 1404.85C704.475 1404.9 695.301 1405.12 686.117 1405.33C642.333 1405.86 604.154 1399.54 569.221 1371.07C566.641 1367.81 564.061 1364.55 561.403 1361.19C558.7 1357.91 555.997 1354.63 553.212 1351.25C541.088 1333.51 541.745 1315.93 541.595 1295.22C541.506 1292.19 541.416 1289.15 541.324 1286.02C541.097 1255.7 552.133 1233.38 573.07 1211.88C585.737 1203.9 598.771 1196.88 612.143 1190.16C609.278 1186.04 606.413 1181.92 603.46 1177.67C592.12 1157.7 591.06 1138.78 594.778 1116.32C602.375 1101.93 602.375 1101.93 612.143 1090.26C615.367 1086.14 618.59 1082.02 621.912 1077.77C624.419 1074.72 626.926 1071.68 629.509 1068.54C626.05 1065.85 626.05 1065.85 622.522 1063.11C596.504 1041.83 583.605 1021.97 573.07 990.354C569.71 941.793 573.156 905.514 599.119 863.303C628.706 830.832 674.165 820.318 716.066 820.409ZM639.006 889.636C620.172 917.094 612.511 940.095 616.485 972.98C622.253 1003.48 639.223 1020.76 664.24 1038.13C689.418 100.01 720.755 1050.56 748.084 1044.65C773.001 1036.34 787.726 1022.45 802.081 1000.4C813.988 968.83 814.305 940.542 803.183 908.656C793.019 886.458 774.598 873.259 752.968 863.218C709.905 850.306 670.361 858.265 639.006 889.636ZM608.345 1234.68C593.001 1254.55 584.624 1271.56 586.366 1296.85C589.379 1315.51 595.114 1327.83 607.802 1342.19C650.959 1373.28 704.871 1372.1 755.682 1365.27C786.301 1359.61 813.48 1349.25 835.727 1326.99C850.086 1303.04 854.204 1283.11 850.922 1255.32C843.893 1239.14 835.742 1229.45 820.532 1220.57C791.393 1210.9 764.794 1210.41 734.35 1210.51C725.613 1210.52 716.883 1210.42 708.147 1210.31C671.012 1210.29 638.382 1211.16 608.345 1234.68Z" fill="#898989"></path><path d="M0 694.984C276.301 694.984 276.301 694.984 342.973 760.139C391.879 815.124 406.3 885.145 405.652 956.961C405.622 962.067 405.593 967.173 405.562 972.434C404.222 1045.41 387.21 1109.06 335.918 1163C245.779 1248.58 115.017 1229.25 0 1229.25C0 1052.94 0 876.636 0 694.984ZM43.4143 734.077C43.4143 884.585 43.4143 1035.09 43.4143 1190.16C181.83 1193.29 181.83 1193.29 299.287 1130.16C348.519 1077.51 359.322 1009.79 357.235 939.994C354.11 879.811 336.359 823.179 290.876 781.857C218.379 726.593 131.005 734.077 43.4143 734.077Z" fill="#898989"></path><path d="M1601.99 143.34C1650.7 143.34 1699.41 143.34 1749.6 143.34C1749.6 282.38 1749.6 421.421 1749.6 564.674C1700.89 564.674 1652.18 564.674 1601.99 564.674C1601.99 425.634 1601.99 286.594 1601.99 143.34Z" fill="#898989"></path><path d="M1567.26 851.356C1591.47 875.585 1601.25 909.855 1602.51 943.532C1602.5 948.808 1602.49 954.084 1602.48 959.52C1602.48 962.447 1602.48 965.373 1602.48 968.388C1602.48 978.001 1602.44 987.613 1602.41 997.225C1602.4 1003.91 1602.4 1010.6 1602.39 1017.29C1602.38 1034.85 1602.33 1052.41 1602.28 1069.97C1602.24 1087.9 1602.22 1105.84 1602.2 1123.78C1602.15 1158.94 1602.08 1194.09 1601.99 1229.25C1590.53 1229.25 1579.06 1229.25 1567.26 1229.25C1562.96 1207.75 1562.96 1207.75 1558.57 1185.82C1546.28 1185.82 1543.39 1191.44 1534.69 1199.93C1500.17 1230.96 1458.82 1239.32 1413.47 1238.57C1377.88 1236.57 1351.63 1226.28 1324.14 1203.19C1302 1177.08 1296.08 1146.86 1297 1113.25C1300.18 1084.11 1311.07 1054.04 1332.82 1033.79C1400.63 988.736 1480.4 991.95 1558.57 990.353C1557.46 979.304 1556.27 968.27 1555.04 957.233C1554.74 954.136 1554.43 951.04 1554.12 947.85C1551.12 921.662 1544.08 902.729 1526.01 882.848C1502.37 865.033 1475.21 862.951 1446.56 866.338C1424.08 870.283 1402.46 875.124 1381.54 884.426C1367.55 890.449 1367.55 890.449 1355.34 890.449C1345.84 886.105 1345.84 886.105 1340.14 875.789C1337.16 864.387 1337.16 864.387 1337.16 851.356C1408.6 821.153 1500.56 798.094 1567.26 851.356ZM1368.14 1067.32C1366.07 1069.87 1363.99 1072.42 1361.85 1075.05C1358.65 1078.88 1358.65 1078.88 1355.39 1082.79C1342.87 1100.75 1342.92 1121.41 1345.84 1142.38C1353.28 1162.21 1364.55 1177 1382.74 1187.99C1413.93 1201.18 1450.34 1198.91 1481.78 1187.72C1515.14 1172.2 1538.1 1151.45 1551.3 1116.79C1560.5 1088.06 1559.01 1059.34 1558.57 1029.45C1456.97 1027.17 1456.97 1027.17 1368.14 1067.32Z" fill="#898989"></path><path d="M1150.48 734.078C1150.48 765.613 1150.48 797.148 1150.48 829.638C1187.73 829.638 1224.98 829.638 1263.36 829.638C1263.36 842.539 1263.36 855.44 1263.36 868.731C1226.11 868.731 1188.86 868.731 1150.48 868.731C1150.65 904.379 1150.9 940.023 1151.28 975.669C1151.45 992.223 1151.59 1008.78 1151.66 1025.33C1151.72 1041.33 1151.87 1057.33 1152.08 1073.32C1152.14 1079.4 1152.18 1085.49 1152.18 1091.57C1152.22 1125.77 1152.38 1152.79 1172.19 1181.47C1185.18 1189.18 1194.22 1191.21 1209.29 1191.01C1212.96 1190.98 1216.62 1190.95 1220.4 1190.93C1224.19 1190.85 1227.98 1190.78 1231.88 1190.7C1235.74 1190.67 1239.59 1190.63 1243.57 1190.59C1253.06 1190.48 1262.55 1190.33 1272.04 1190.16C1272.04 1203.06 1272.04 1215.96 1272.04 1229.25C1224.63 1241.7 1182.04 1243.97 1137.46 1220.57C1112.27 1198.52 1104.09 1168.95 1101.59 1136.28C1101.22 1119.2 1101.25 1102.15 1101.45 1085.07C1101.48 1078.8 1101.49 1072.53 1101.51 1066.26C1101.56 1049.91 1101.68 1033.56 1101.83 1017.21C1101.96 1000.46 1102.02 983.717 1102.09 966.973C1102.23 934.225 1102.46 901.478 1102.72 868.731C1084.1 868.731 1065.47 868.731 1046.29 868.731C1046.29 855.831 1046.29 842.93 1046.29 829.638C1064.91 829.638 1083.53 829.638 1102.72 829.638C1102.72 800.97 1102.72 772.302 1102.72 742.765C1133.11 734.078 1133.11 734.078 1150.48 734.078Z" fill="#898989"></path><path d="M1693.16 660.234C1707.48 660.234 1721.81 660.234 1736.57 660.234C1736.57 848.01 1736.57 1035.79 1736.57 1229.25C1722.24 1229.25 1707.92 1229.25 1693.16 1229.25C1693.16 1041.48 1693.16 853.701 1693.16 660.234Z" fill="#898989"></path><path d="M3001.55 410.745C3019.38 421.536 3032.18 431.556 3039 451.739C3043.39 480.822 3046.79 518.588 3030.32 544.313C3010.1 565.442 2987.66 574.288 2958.68 575.533C2929.96 574.377 2909.8 565.976 2889.76 545.399C2873.09 519.1 2870.55 495.38 2874.03 464.77C2881.15 441.561 2892.4 425.78 2913.1 412.646C2941.24 399.609 2972.86 398.054 3001.55 410.745Z" fill="#898989"></path><path d="M955.113 829.637C970.873 829.637 986.632 829.637 1002.87 829.637C1002.87 961.51 1002.87 1093.38 1002.87 1229.25C987.11 1229.25 971.35 1229.25 955.113 1229.25C955.113 1097.38 955.113 965.506 955.113 829.637Z" fill="#898989"></path><path d="M464.531 829.637C480.291 829.637 496.05 829.637 512.287 829.637C512.287 961.51 512.287 1093.38 512.287 1229.25C496.528 1229.25 480.768 1229.25 464.531 1229.25C464.531 1097.38 464.531 965.506 464.531 829.637Z" fill="#898989"></path><path d="M1601.99 0C1650.7 0 1699.41 0 1749.6 0C1749.6 32.9683 1749.6 65.9367 1749.6 99.904C1700.89 99.904 1652.18 99.904 1601.99 99.904C1601.99 66.9357 1601.99 33.9674 1601.99 0Z" fill="#898989"></path><path d="M955.113 734.078C970.873 734.078 986.632 734.078 1002.87 734.078C1002.87 752.712 1002.87 771.347 1002.87 790.546C987.11 790.546 971.35 790.546 955.113 790.546C955.113 771.911 955.113 753.277 955.113 734.078Z" fill="#898989"></path><path d="M464.531 734.078C480.291 734.078 496.05 734.078 512.287 734.078C512.287 752.712 512.287 771.347 512.287 790.546C496.528 790.546 480.768 790.546 464.531 790.546C464.531 771.911 464.531 753.277 464.531 734.078Z" fill="#898989"></path></svg> 