<?xml version="1.0" encoding="UTF-8"?> <svg xmlns="http://www.w3.org/2000/svg" width="3813" height="921" viewBox="0 0 3813 921" fill="none"><path d="M1822.8 213.521L1661.42 533.18L1503.75 213.521H1443.91L1393.42 659.357H1446.81L1479.68 325.019L1636.28 633.35H1664.17L1824.68 323.799L1860.7 659.357H1933.69L1881.88 213.521H1822.8Z" fill="#898989"></path><path d="M2173.04 220.584L1972.65 659.359H2030.5L2104.11 492.495H2262.08L2332.48 659.359H2411.07L2219.26 212.609L2173.09 220.584H2173.04ZM2243.9 445.051H2123.76L2184.67 305.16L2243.9 445.051Z" fill="#898989"></path><path d="M2837.7 600.637C2812.36 605.615 2782.74 608.663 2749.72 609.729C2717.52 610.745 2646.91 611.253 2539.73 611.304L2816.52 235.211V213.572H2476.95L2458.82 261.676H2712.8L2438.75 632.689L2437.33 634.619V659.459H2823.18L2855.13 600.586H2839.18L2837.81 600.739L2837.7 600.637Z" fill="#898989"></path><path d="M3275 269.6C3233.45 232.367 3173.41 213.521 3096.66 213.521H2927.66V659.408H3081.42C3158.07 659.408 3220.6 639.851 3267.18 601.297C3314.17 562.388 3337.99 507.173 3337.99 437.125C3337.99 363.42 3316.81 307.088 3275 269.651V269.6ZM2999.23 261.574H3077C3140.34 261.574 3187.58 275.645 3217.35 303.379C3246.96 331.012 3262 375.967 3262 437.023C3262 554.26 3199.82 611.203 3071.92 611.203H2999.23V261.524V261.574Z" fill="#898989"></path><path d="M3620.62 212.658L3574.45 220.633L3374.06 659.408H3431.92L3505.52 492.544H3663.49L3733.9 659.408H3812.48L3620.67 212.658H3620.62ZM3645.26 445.05H3525.13L3586.03 305.158L3645.26 445.05Z" fill="#898989"></path><path d="M1132.03 455.62C1131.98 452.267 1131.83 448.864 1131.67 445.512C1131.52 442.159 1131.32 438.756 1131.11 435.403C1129.03 409.345 1126.54 383.795 1120.9 358.193C1120.3 355.45 1119.64 352.758 1118.92 350.066C1118.26 347.374 1117.55 344.682 1116.84 341.99C1116.13 339.297 1115.37 336.605 1114.56 333.964C1113.74 331.271 1112.93 328.63 1112.12 325.938C1111.3 323.297 1110.39 320.655 1109.53 318.014C1108.66 315.372 1107.7 312.731 1106.78 310.141C1105.82 307.499 1104.85 304.909 1103.89 302.318C1102.87 299.727 1101.86 297.137 1100.79 294.546C1099.72 291.956 1098.66 289.365 1097.54 286.825C1096.42 284.285 1095.3 281.745 1094.14 279.206C1092.97 276.666 1091.8 274.126 1090.58 271.637C1089.36 269.097 1088.14 266.608 1086.92 264.119C1085.65 261.63 1084.38 259.141 1083.06 256.703C1081.74 254.214 1080.42 251.776 1079.05 249.338C1077.68 246.9 1076.31 244.512 1074.93 242.074C1073.51 239.687 1072.09 237.248 1070.62 234.912C1069.14 232.524 1067.67 230.188 1066.2 227.851C1064.72 225.514 1063.15 223.178 1061.63 220.841C1060.1 218.505 1058.53 216.219 1056.9 213.933C1055.33 211.647 1053.65 209.361 1052.03 207.126C1050.4 204.891 1048.72 202.656 1047.05 200.421C1045.32 198.186 1043.64 196.002 1041.92 193.818C1040.19 191.634 1038.41 189.449 1036.63 187.316C1034.86 185.183 1033.08 183.049 1031.25 180.916C1029.42 178.782 1027.59 176.7 1025.76 174.617C1023.88 172.534 1022.01 170.503 1020.13 168.471C1018.25 166.439 1016.32 164.407 1014.39 162.426C1012.46 160.445 1010.47 158.464 1008.49 156.483C1006.51 154.502 1004.53 152.572 1002.5 150.641C1000.47 148.711 998.436 146.832 996.353 144.952C994.271 143.073 992.239 141.244 990.105 139.365C988.023 137.536 985.889 135.707 983.756 133.929C882.621 47.932 750.603 7.54926 619.448 0.945792C603.549 0.133057 587.345 0.793382 571.446 0.844178C550.06 0.894974 526.237 -0.984437 505.157 1.19979C504.598 1.25058 504.497 1.30134 504.039 1.40294C492.56 3.02841 481.08 3.53638 469.6 4.75549C447.402 7.14289 425.56 10.2922 403.667 14.6607C309.745 33.4552 216.433 73.7871 144.1 137.536C136.633 144.139 129.674 151.606 122.613 158.616C108.339 172.89 95.0308 187.011 82.8906 203.164C12.9446 296.172 -10.9294 414.831 5.73162 528.969C6.08719 531.712 6.54436 534.455 6.95073 537.249C7.40789 539.992 7.86505 542.735 8.37301 545.478C8.88097 548.221 9.38893 550.964 9.94769 553.707C10.5064 556.45 11.0652 559.142 11.6747 561.885C12.2843 564.628 12.9447 567.32 13.605 570.012C14.2653 572.704 14.9765 575.397 15.6876 578.089C16.3988 580.781 17.1607 583.473 17.9226 586.115C18.6846 588.756 19.4973 591.448 20.3101 594.09C21.1228 596.731 22.0371 599.423 22.9006 602.064C23.7642 604.706 24.6785 607.347 25.6436 609.989C26.6087 612.63 27.5231 615.221 28.539 617.811C29.5549 620.402 30.5708 622.992 31.5867 625.583C32.6534 628.174 33.7202 630.714 34.8377 633.304C35.9044 635.895 37.0727 638.434 38.1902 640.974C39.3585 643.514 40.5268 646.054 41.7459 648.543C42.965 651.083 44.1841 653.572 45.454 656.061C46.7239 658.55 47.9938 661.039 49.3145 663.477C50.6352 665.966 51.9559 668.404 53.3274 670.792C54.6481 673.23 56.0704 675.668 57.4418 678.055C58.8641 680.443 60.2864 682.83 61.7595 685.217C63.2326 687.605 64.7057 689.941 66.1787 692.278C67.7026 694.615 69.2265 696.951 70.7504 699.288C72.3251 701.625 73.8997 703.91 75.4744 706.196C77.0491 708.482 78.6745 710.768 80.3508 713.003C81.9763 715.238 83.6525 717.473 85.3796 719.708C87.0559 721.943 88.7829 724.127 90.51 726.311C92.2371 728.496 94.0149 730.629 95.7927 732.813C97.5706 734.947 99.3993 737.08 101.228 739.213C103.057 741.296 104.885 743.379 106.765 745.461C108.644 747.544 110.524 749.576 112.454 751.608C114.384 753.639 116.314 755.671 118.245 757.652C120.226 759.633 122.156 761.614 124.188 763.545C141.966 780.866 161.167 796.105 181.079 810.887C270.835 877.531 384.72 908.262 494.744 917.304C507.29 918.32 519.685 917.71 532.18 918.371C537.87 918.675 543.254 920.656 548.994 920.809C575.611 921.622 601.771 918.117 628.337 918.117C781.893 906.078 930.573 856.298 1033.33 736.216C1035.52 733.626 1037.65 731.035 1039.73 728.394C1041.87 725.753 1043.9 723.06 1045.98 720.419C1048.06 717.778 1050.04 715.035 1052.03 712.292C1054.01 709.549 1055.94 706.806 1057.87 704.012C1059.8 701.218 1061.68 698.424 1063.51 695.58C1065.33 692.735 1067.16 689.891 1068.94 687.046C1070.72 684.151 1072.45 681.255 1074.17 678.36C1075.9 675.465 1077.58 672.518 1079.2 669.572C1080.83 666.626 1082.45 663.629 1084.03 660.632C1085.6 657.635 1087.13 654.638 1088.6 651.59C1090.12 648.543 1091.54 645.495 1092.97 642.447C1094.39 639.4 1095.76 636.301 1097.13 633.202C1098.45 630.104 1099.77 627.005 1101.04 623.856C1102.31 620.757 1103.58 617.608 1104.75 614.408C1105.97 611.259 1107.09 608.059 1108.21 604.909C1109.32 601.709 1110.44 598.509 1111.46 595.309C1112.47 592.109 1113.49 588.858 1114.45 585.607C1115.42 582.356 1116.33 579.156 1117.25 575.854C1118.16 572.552 1118.97 569.301 1119.79 566.05C1120.6 562.748 1121.36 559.447 1122.12 556.196C1122.84 552.894 1123.55 549.592 1124.21 546.291C1124.87 542.989 1125.48 539.636 1126.04 536.335C1126.59 532.982 1127.15 529.68 1127.61 526.328C1128.12 522.975 1128.58 519.623 1128.98 516.27C1129.39 512.918 1129.74 509.565 1130.1 506.213C1130.4 502.86 1130.71 499.508 1130.96 496.104C1131.22 492.752 1131.42 489.348 1131.57 485.996C1131.78 482.643 1131.88 479.24 1131.98 475.887C1132.03 472.535 1132.08 469.132 1132.08 465.779C1132.08 462.427 1132.08 459.023 1131.98 455.671L1132.03 455.62ZM165.993 222.721C232.942 133.32 335.6 79.9842 443.897 59.4119C459.237 56.5165 475.137 54.2307 490.731 52.7576C502.922 51.6401 514.91 51.183 527.101 49.4559C550.162 48.1352 574.443 48.5923 597.555 49.3543C606.038 49.6083 614.47 50.7765 622.902 51.3861C747.352 60.377 859.712 105.077 945.71 197.272C950.434 202.301 970.397 224.854 970.193 230.493C965.215 235.471 909.95 261.072 899.384 266.354L805.716 313.188C772.242 329.849 695.743 365.711 671.361 390.55C661.608 400.506 653.176 412.596 644.846 423.822C622.953 453.385 603.091 484.269 582.367 514.543C577.744 522.671 571.801 529.985 567.23 538.214C559.255 528.258 552.702 517.185 545.489 506.721C526.085 478.427 507.138 449.829 486.515 422.399C479.099 412.494 471.682 402.03 463.352 392.836C439.122 366.016 368.872 334.675 334.686 317.201L160.761 230.289C162.488 227.749 164.266 225.26 166.094 222.771L165.993 222.721ZM1039.73 501.997C1038.82 516.372 1036.28 530.899 1033.84 545.122C1032.57 552.539 1031.2 564.628 1026.63 570.622C1029.32 579.41 1007.02 629.545 1001.94 639.806C962.523 718.997 896.184 778.682 817.653 817.642C799.875 826.43 781.842 834.811 762.997 841.059C644.49 880.578 483.619 880.883 365.722 839.789C348.248 833.694 331.486 825.922 314.977 817.693C219.328 769.945 144.049 692.735 110.016 590.128C100.822 562.393 95.3864 531.458 92.7958 502.352C91.7799 490.517 92.237 478.427 92.1862 466.541C92.1355 429.003 93.0498 376.277 110.219 342.04C121.191 347.882 132.721 352.199 144.049 357.228L199.162 382.017L346.267 450.134C371.919 461.969 429.166 486.047 448.418 503.52C460.203 514.238 469.701 526.785 479.505 539.281C500.128 565.542 519.024 593.074 539.19 619.742C544.625 626.904 549.045 637.063 555.75 643.006C561.134 647.781 565.198 647.375 571.954 647.07C582.672 639.298 590.748 623.907 598.418 613.087C613.149 592.312 628.286 571.79 643.728 551.573C655.411 536.03 667.196 518.81 681.419 505.502C686.803 500.473 693.559 496.46 699.807 492.599C723.986 477.716 750.908 466.643 776.559 454.553C828.168 429.917 880.132 405.942 932.3 382.626C943.78 377.496 1015.96 346.46 1020.23 342.142C1031.71 351.285 1035.97 391.058 1038.01 406.297C1040.19 422.603 1040.09 438.603 1040.09 455.061C1040.09 470.605 1040.75 486.453 1039.73 501.946V501.997Z" fill="#898989"></path></svg> 