<?xml version="1.0" encoding="UTF-8"?> <svg xmlns="http://www.w3.org/2000/svg" width="80" height="64" viewBox="0 0 80 64" fill="none"><path d="M79.908 31.6646V0H1.23831V31.6646H79.908ZM32.8694 3.04352L27.438 28.5428H18.9146L13.5577 10.8963H13.4832L9.91813 28.5428H3.45483L8.93094 3.04352H17.4804L22.733 20.7235H22.8075L26.4061 3.04352H32.8694ZM57.2437 3.04352L51.9203 28.5428H45.0546L47.3457 17.6204H39.2135L36.9373 28.5428H30.0754L35.3988 3.04352H42.2644L40.2454 12.7962H48.3589L50.3817 3.04352H57.2437ZM76.9614 3.73642L75.3074 8.81393C73.5337 8.00596 71.601 7.60744 69.6524 7.64793C66.9367 7.64793 64.7351 8.04653 64.7351 10.0954C64.7351 13.7089 74.6853 12.3604 74.6853 20.1051C74.6853 27.1533 68.1102 28.9824 62.1647 28.9824C59.4722 28.9171 56.8024 28.4731 54.2337 27.6637L55.8504 22.4744C57.2064 23.3536 59.9258 23.9384 62.1647 23.9384C64.2955 23.9384 67.6334 23.5361 67.6334 20.9061C67.6334 16.8083 57.6832 18.3506 57.6832 11.1571C57.6832 4.57832 63.4834 2.58904 69.1048 2.58904C72.2638 2.58904 75.2329 2.92059 76.9614 3.70662V3.73642ZM0.113281 43.4401H9.32209V45.8987H3.24249V49.7432H8.808V52.2019H3.24249V56.5828H9.36679V59.0377H0.113281V43.4401ZM11.8255 47.5304H14.6641V49.0987H14.7088C15.6476 47.78 16.9216 47.2659 18.4862 47.2659C21.2131 47.2659 22.3977 49.1881 22.3977 51.7809V59.0414H19.4175V52.8948C19.4175 51.4866 19.3952 49.5867 17.4729 49.5867C15.3048 49.5867 14.8355 51.9337 14.8355 53.4088V59.0377H11.8553L11.8255 47.5304ZM35.6074 47.5304V57.9201C35.6074 61.0493 34.3557 63.9997 29.5278 63.9997C28.1625 64.01 26.8091 63.7439 25.5493 63.2174L25.7951 60.6693C26.7115 61.1611 28.2091 61.6752 29.1478 61.6752C32.4559 61.6752 32.6123 59.1942 32.6123 57.2049H32.5676C32.0088 58.1883 30.6678 59.0377 28.9914 59.0377C25.594 59.0377 24.2976 56.3145 24.2976 53.23C24.2976 50.4584 25.7281 47.2696 29.1702 47.2696C30.6901 47.2696 31.8747 47.7837 32.7017 49.1025H32.7464V47.5379L35.6074 47.5304ZM32.6272 53.163C32.6272 51.196 31.8822 49.5867 30.1239 49.5867C28.0899 49.5867 27.4417 51.4494 27.4417 53.23C27.4417 54.7946 28.2687 56.7169 29.9898 56.7169C31.8524 56.7169 32.6123 55.0852 32.6123 53.163H32.6272ZM38.312 42.2778H41.2921V59.0414H38.312V42.2778ZM44.5257 48.1339C45.7875 47.5786 47.1481 47.2822 48.5266 47.2622C52.032 47.2622 53.4886 48.715 53.4886 52.105V53.5951C53.4886 54.7574 53.5072 55.6291 53.5333 56.4784C53.5594 57.3278 53.6004 58.1548 53.6637 59.0451H51.0299C50.9462 58.4752 50.9013 57.9001 50.8958 57.3241H50.8511C50.4836 57.9367 49.9622 58.4426 49.3388 58.7915C48.7154 59.1404 48.0116 59.3204 47.2972 59.3134C45.2633 59.3134 43.274 58.084 43.274 55.8936C43.274 54.1762 44.101 53.1704 45.2409 52.6116C46.3808 52.0528 47.8486 51.9411 49.1077 51.9411H50.7617C50.7617 50.0785 49.9347 49.4601 48.1541 49.4601C46.8661 49.4865 45.6205 49.9252 44.6002 50.7118L44.5257 48.1339ZM48.0348 57.1155C48.4419 57.1256 48.8454 57.0374 49.2111 56.8584C49.5769 56.6794 49.8941 56.4149 50.1359 56.0873C50.5994 55.3892 50.8194 54.5577 50.7617 53.7218H49.4653C48.1243 53.7218 46.135 53.9453 46.135 55.711C46.135 56.6908 46.9732 57.1155 48.0348 57.1155ZM55.992 47.5304H58.8306V49.0987H58.8939C59.8327 47.78 61.1067 47.2659 62.6713 47.2659C65.3982 47.2659 66.5828 49.1881 66.5828 51.7809V59.0414H63.6026V52.8948C63.6026 51.4866 63.5803 49.5867 61.6581 49.5867C59.49 49.5867 59.0206 51.9337 59.0206 53.4088V59.0377H56.0404L55.992 47.5304ZM76.8682 57.745H76.8235C75.9295 58.8626 74.7002 59.3059 73.292 59.3059C69.7605 59.3059 68.4492 56.4002 68.4492 53.2524C68.4492 50.1045 69.7456 47.2622 73.292 47.2622C73.9531 47.2326 74.6114 47.3635 75.2109 47.6438C75.8103 47.924 76.333 48.3453 76.7341 48.8715H76.7751V42.2778H79.7553V59.0414H76.8533L76.8682 57.745ZM74.119 57C76.1083 57 76.7565 54.8989 76.7565 53.2747C76.7565 51.6505 76.0114 49.6091 74.0743 49.6091C72.1372 49.6091 71.5933 51.7325 71.5933 53.2747C71.5933 54.817 72.1521 56.9851 74.119 56.9851V57Z" fill="#898989"></path></svg> 