<?xml version="1.0" encoding="UTF-8"?> <svg xmlns="http://www.w3.org/2000/svg" width="140" height="64" viewBox="0 0 140 64" fill="none"><path d="M64.1393 12.5161C64.1393 9.9508 66.0044 8 69.3991 8C72.7327 8 74.6588 9.9508 74.6588 12.5161C74.6588 15.0255 72.6237 16.9763 69.3991 16.9763C66.1744 16.9763 64.1393 15.0255 64.1393 12.5161Z" fill="#646464"></path><path d="M80.7852 51.5662V11.5619C80.7852 9.58529 81.8833 8.49816 83.8922 8.49816H87.6441C89.6487 8.49816 90.8165 9.58099 90.8165 11.5619V51.5662C90.8165 53.5428 89.653 54.63 87.6441 54.63H83.8922C81.8833 54.63 80.7852 53.5428 80.7852 51.5662Z" fill="#646464"></path><path d="M94.181 37.4906C94.181 27.7666 101.593 19.3833 113.364 19.3833C123.295 19.3833 131.457 25.2873 131.932 36.2831C132.001 38.2296 130.637 39.1019 128.598 39.1019H104.247C104.112 43.1926 108.261 47.1501 114.993 47.1501C117.512 47.1501 120.096 46.5485 122.746 45.0703C124.58 44.0649 126.079 44.1981 127.369 45.7407L128.119 46.6817C129.478 48.293 129.343 50.102 127.509 51.4427C123.495 54.3259 118.802 55.3314 114.313 55.3314C101.798 55.3314 94.181 47.352 94.181 37.4906ZM122.066 33.3311C121.111 28.7033 117.102 27.2295 113.494 27.2295C109.821 27.2295 105.672 28.8408 104.517 33.3311H122.066Z" fill="#646464"></path><path d="M64.3841 51.5668V24.3973C64.3841 22.4207 65.4822 21.3336 67.4911 21.3336H71.2431C73.2476 21.3336 74.4155 22.4164 74.4155 24.3973V51.5668C74.4155 53.5434 73.252 54.6305 71.2431 54.6305H67.4911C65.4822 54.6305 64.3841 53.5434 64.3841 51.5668Z" fill="#646464"></path><path d="M58.0197 39.2813V11.5619C58.0197 9.86888 56.6296 8.49816 54.9126 8.49816H51.0953C49.3784 8.49816 47.9883 9.86888 47.9883 11.5619V34.5676C47.9883 35.5774 48.4981 36.527 49.3566 37.0813C52.2414 38.9376 55.1 39.711 57.1176 40.029H57.1263C57.597 40.1021 58.0197 39.7454 58.0197 39.2813Z" fill="#646464"></path><path d="M8.06641 23.6976V51.5675C8.06641 53.2604 9.45651 54.6312 11.1734 54.6312H14.9254C16.6772 54.6312 18.0978 53.2304 18.0978 51.503V28.8969C18.0978 27.9945 17.6882 27.1351 16.9779 26.5636C14.0059 24.166 11.0514 23.2937 9.05996 22.9843C9.0251 22.98 8.99024 22.9714 8.95537 22.9671C8.4891 22.8855 8.06641 23.2335 8.06641 23.6976Z" fill="#646464"></path><path d="M59.5239 53.597C59.5239 55.0558 58.2193 56.183 56.7533 55.9753C54.5207 55.6614 51.3511 54.9762 47.8184 53.5041C41.8245 51.002 33.6069 45.6575 28.4916 34.3893C23.0222 22.3431 14.2576 19.4475 9.85518 18.7623C8.82854 18.6076 8.06641 17.7412 8.06641 16.7156V11.0704C8.06641 9.61606 9.36652 8.49321 10.8235 8.69214C12.9172 8.97506 15.6205 9.56743 18.5928 10.7787C24.4209 13.1481 32.495 18.4529 37.8569 30.2604C43.3173 42.2845 53.2654 45.1977 57.7531 45.905C58.7707 46.0642 59.5194 46.9351 59.5194 47.9518L59.5239 53.597Z" fill="#898989"></path></svg> 