<?xml version="1.0" encoding="UTF-8"?> <svg xmlns="http://www.w3.org/2000/svg" width="2370" height="1187" viewBox="0 0 2370 1187" fill="none"><g clip-path="url(#clip0_1805_3009)"><path d="M474.317 0C545.894 0 617.471 0 691.216 0C691.216 391.705 691.216 783.41 691.216 1186.98C619.64 1186.98 548.063 1186.98 474.317 1186.98C474.317 795.28 474.317 403.575 474.317 0Z" fill="#646464"></path><path d="M238.351 0C309.927 0 381.504 0 455.249 0C455.249 391.705 455.249 783.41 455.249 1186.98C383.673 1186.98 312.096 1186.98 238.351 1186.98C238.351 795.28 238.351 403.575 238.351 0Z" fill="#646464"></path><path d="M0 0C72.3632 0 144.726 0 219.282 0C219.282 195.852 219.282 391.705 219.282 593.492C146.919 593.492 74.556 593.492 0 593.492C0 397.64 0 201.787 0 0Z" fill="#898989"></path><path d="M474.317 0C545.894 0 617.471 0 691.216 0C691.216 195.852 691.216 391.705 691.216 593.492C619.64 593.492 548.063 593.492 474.317 593.492C474.317 397.64 474.317 201.787 474.317 0Z" fill="#898989"></path><path d="M238.351 0C309.927 0 381.504 0 455.249 0C455.249 195.852 455.249 391.705 455.249 593.492C383.673 593.492 312.096 593.492 238.351 593.492C238.351 397.64 238.351 201.787 238.351 0Z" fill="#898989"></path><path d="M796.09 0C817.327 0 838.564 0 860.444 0C880.709 27.0754 880.709 27.0754 886.114 40.1471C893.289 56.4855 901.828 71.4745 911.036 86.7127C915.403 93.9731 919.667 101.293 923.942 108.608C925.675 111.563 927.409 114.518 929.142 117.473C934.291 126.252 939.433 135.036 944.575 143.82C962.763 174.89 981.013 205.921 999.396 236.876C1011.93 257.989 1024.37 279.156 1036.82 300.321C1037.61 201.215 1038.4 102.109 1039.21 0C1058.08 0 1076.96 0 1096.41 0C1096.41 132.141 1096.41 264.283 1096.41 400.429C1075.17 400.429 1053.94 400.429 1032.06 400.429C1026.94 391.531 1021.83 382.633 1016.56 373.465C1001.98 348.149 987.186 322.973 972.259 297.859C961.975 280.549 951.764 263.199 941.633 245.799C940.296 243.504 938.96 241.209 937.583 238.845C935.546 235.346 935.546 235.346 933.467 231.777C924.599 216.549 915.712 201.333 906.807 186.126C904.371 181.963 901.937 177.799 899.503 173.634C885.079 149.009 870.363 124.584 855.677 100.107C854.891 199.213 854.104 298.319 853.294 400.429C834.417 400.429 815.539 400.429 796.09 400.429C796.09 268.287 796.09 136.146 796.09 0Z" fill="#898989"></path><path d="M972.916 473.724C975.933 473.691 975.933 473.691 979.012 473.656C1001.51 473.773 1016.14 478.252 1034.14 491.75C1035.88 493.016 1037.62 494.282 1039.41 495.587C1043.08 498.259 1046.74 500.943 1050.39 503.638C1055.72 507.564 1061.09 511.439 1066.47 515.296C1075.38 521.682 1084.26 528.109 1093.12 534.556C1097.07 537.423 1101.02 540.283 1104.98 543.138C1111.22 547.645 1117.45 552.17 1123.67 556.7C1126.57 558.787 1126.57 558.787 1129.53 560.917C1132.23 562.89 1132.23 562.89 1134.99 564.903C1136.57 566.053 1138.16 567.204 1139.79 568.39C1147.35 574.826 1151.75 581.62 1154.89 590.972C1155.79 593.652 1155.79 593.652 1156.71 596.386C1157.31 598.234 1157.91 600.083 1158.53 601.987C1159.14 603.77 1159.75 605.554 1160.38 607.391C1168.01 630.488 1171.19 653.076 1171.04 677.365C1171.03 680.936 1171.03 680.936 1171.01 684.579C1170.11 741.708 1149.53 791.526 1109.98 832.823C1084.88 856.853 1055.64 870.388 1022.52 879.516C1019.35 880.396 1019.35 880.396 1016.12 881.294C963.527 893.209 906.031 881.424 860.547 853.605C813.928 820.99 785.921 772.795 775.616 716.972C769.022 655.803 778.737 595.542 816.797 545.676C845.796 511.086 879.464 490.928 922.416 479.087C924.529 478.5 926.643 477.914 928.821 477.309C943.398 474.006 958.035 473.85 972.916 473.724ZM869.979 569.66C868.599 570.982 867.219 572.303 865.798 573.664C837.69 603.166 830.713 649.199 831.33 688.202C832.907 731.316 849.447 770.755 880.63 800.534C910.819 826.018 947.678 835.198 986.456 832.378C1024.92 828.352 1057.5 812.084 1082.11 781.792C1099.73 756.332 1111.74 727.277 1113.1 695.986C1113.28 692.41 1113.28 692.41 1113.47 688.761C1114.77 640.746 1101.56 597.742 1068.55 562.063C1040.49 535.454 1004.93 525.212 967.017 525.625C927.513 527.162 897.922 542.242 869.979 569.66Z" fill="#898989"></path><path d="M1755.39 114.867C1764.06 120.639 1772.04 127.174 1779.98 133.9C1789.52 141.78 1799.65 148.872 1809.68 156.122C1815.13 160.127 1820.56 164.149 1825.98 168.207C1829.78 171.05 1833.62 173.839 1837.47 176.615C1853.09 190.832 1854.57 218.704 1856.75 238.353C1856.75 250.152 1856.75 261.95 1856.75 274.106C1783.6 274.106 1710.45 274.106 1635.08 274.106C1646.54 317.836 1646.54 317.836 1677.99 345.611C1701.47 357.983 1728.16 358.321 1753.51 351.719C1774.88 344.356 1789.64 330.985 1799.84 310.901C1801.39 307.4 1802.9 303.882 1804.31 300.324C1820.32 303.422 1834.63 308.188 1849.6 314.625C1845.39 341.283 1826.59 364.259 1806.16 380.926C1771.94 405.046 1731.42 409.295 1690.79 404.091C1655.98 397.013 1628.28 379.319 1606.93 350.974C1581.5 312.293 1577.08 263.655 1585.03 218.838C1594.97 179.003 1616.74 147.827 1651.77 126.329C1680.29 109.528 1724.74 97.4704 1755.39 114.867ZM1651.02 190.385C1642.58 202.389 1637.47 213.917 1637.47 228.819C1693.31 228.819 1749.16 228.819 1806.7 228.819C1802.03 205.485 1797.52 188.37 1778.84 173.105C1737.43 145.704 1682.62 150.788 1651.02 190.385Z" fill="#898989"></path><path d="M1718.51 607.797C1720.01 608.932 1721.51 610.066 1723.06 611.234C1729.92 616.423 1736.77 621.626 1743.54 626.933C1751.73 633.34 1759.89 639.476 1768.71 644.993C1783.36 654.251 1793.59 661.329 1799.1 678.707C1800.2 683.64 1801.15 688.61 1801.93 693.604C1803.11 700.683 1803.11 700.683 1804.31 707.905C1804.31 723.636 1804.31 739.367 1804.31 755.575C1731.95 755.575 1659.59 755.575 1585.03 755.575C1592.23 789.159 1596.88 804.442 1622.27 824.994C1647.03 838.747 1674.04 840.191 1701.08 832.89C1722.85 825.361 1735.58 815.748 1746.07 795.051C1748.06 790.656 1750.01 786.244 1751.88 781.793C1768.46 785.056 1783.78 790.024 1799.55 796.094C1793.59 812.875 1786.17 826.988 1775.71 841.381C1774.33 843.446 1772.96 845.51 1771.54 847.637C1746.15 874.438 1711.96 886.304 1675.65 887.516C1639.49 887.853 1599.32 878.949 1572.27 853.056C1540.26 816.112 1528.5 773.734 1530.51 725.334C1534.48 682.28 1551.34 648.747 1583.1 619.706C1622.1 587.402 1676.86 576.274 1718.51 607.797ZM1604.1 665.002C1592.91 680.266 1589.3 691.075 1585.03 710.288C1640.88 710.288 1696.72 710.288 1754.26 710.288C1751.3 683.651 1745.08 669.534 1724.5 652.432C1686.56 626.388 1636.02 633.076 1604.1 665.002Z" fill="#898989"></path><path d="M1409.99 605.116C1413.74 607.947 1417.49 610.778 1421.25 613.607C1423.12 615.033 1424.98 616.458 1426.91 617.927C1432.21 621.89 1437.59 625.67 1443.05 629.398C1444.69 630.532 1446.33 631.666 1448.01 632.835C1451.08 634.954 1454.17 637.044 1457.28 639.098C1467.97 646.634 1470.31 652.436 1473 665.001C1473.61 672.281 1473.61 679.505 1473.55 686.806C1473.55 688.924 1473.55 691.042 1473.55 693.224C1473.54 700.176 1473.51 707.126 1473.47 714.077C1473.46 718.916 1473.45 723.756 1473.45 728.595C1473.43 741.294 1473.38 753.994 1473.33 766.693C1473.28 779.667 1473.26 792.64 1473.24 805.614C1473.19 831.043 1473.1 856.472 1473 881.9C1455.7 881.9 1438.4 881.9 1420.57 881.9C1420.55 875.803 1420.52 869.706 1420.5 863.424C1420.42 843.227 1420.29 823.03 1420.13 802.833C1420.04 790.593 1419.96 778.354 1419.92 766.115C1419.89 754.292 1419.8 742.469 1419.69 730.647C1419.65 726.148 1419.64 721.648 1419.63 717.149C1419.63 710.822 1419.56 704.497 1419.49 698.171C1419.5 696.331 1419.51 694.492 1419.52 692.596C1419.24 677.603 1415.26 663.342 1405.45 651.659C1391.93 639.344 1375.9 637.639 1358.35 638.047C1327.97 641.282 1307.61 659.69 1288.36 681.881C1281.33 690.686 1281.92 698.424 1281.84 709.265C1281.8 712.056 1281.8 712.056 1281.76 714.903C1281.69 721.067 1281.63 727.232 1281.57 733.397C1281.52 737.665 1281.47 741.933 1281.42 746.202C1281.29 757.447 1281.17 768.693 1281.06 779.939C1280.94 791.41 1280.8 802.881 1280.67 814.352C1280.42 836.868 1280.17 859.384 1279.94 881.9C1262.64 881.9 1245.33 881.9 1227.5 881.9C1227.5 787.513 1227.5 693.127 1227.5 595.88C1244.81 595.88 1262.11 595.88 1279.94 595.88C1280.73 606.105 1281.51 616.33 1282.32 626.865C1288 622.515 1288 622.515 1293.8 618.076C1329.17 592.355 1372.88 576.294 1409.99 605.116Z" fill="#898989"></path><path d="M1452.43 112.553C1464.55 120.37 1475.61 129.473 1486.68 138.69C1491.71 142.718 1496.81 146.334 1502.19 149.862C1504.51 151.391 1504.51 151.391 1506.88 152.95C1511 155.63 1515.13 158.287 1519.27 160.942C1529.27 170.501 1530.38 183 1530.78 196.35C1530.8 200.156 1530.78 203.963 1530.75 207.77C1530.75 209.865 1530.75 211.96 1530.75 214.118C1530.75 220.979 1530.71 227.839 1530.68 234.7C1530.67 239.483 1530.66 244.265 1530.65 249.047C1530.64 261.586 1530.59 274.125 1530.54 286.663C1530.49 299.478 1530.47 312.292 1530.44 325.106C1530.39 350.213 1530.31 375.321 1530.21 400.428C1512.91 400.428 1495.6 400.428 1477.77 400.428C1477.75 394.416 1477.73 388.403 1477.71 382.209C1477.62 362.278 1477.49 342.347 1477.33 322.417C1477.24 310.34 1477.16 298.264 1477.13 286.188C1477.09 274.519 1477.01 262.852 1476.89 251.183C1476.86 246.746 1476.84 242.308 1476.84 237.871C1477.63 200.343 1477.63 200.343 1460.49 168.186C1440.25 156.686 1421.9 154.094 1399.12 159.843C1378.25 166.821 1361.05 181.481 1346.68 197.83C1345.45 199.098 1344.22 200.366 1342.95 201.672C1338.16 209.649 1338.48 217.129 1338.5 226.17C1338.47 228.054 1338.45 229.938 1338.43 231.88C1338.35 238.096 1338.33 244.312 1338.31 250.528C1338.27 254.843 1338.23 259.158 1338.18 263.473C1338.07 274.821 1338 286.168 1337.93 297.516C1337.86 309.1 1337.75 320.683 1337.64 332.266C1337.44 354.986 1337.28 377.707 1337.15 400.428C1319.84 400.428 1302.54 400.428 1284.71 400.428C1284.71 306.042 1284.71 211.655 1284.71 114.408C1302.01 114.408 1319.32 114.408 1337.15 114.408C1337.93 124.633 1338.72 134.858 1339.53 145.393C1345.21 141.043 1345.21 141.043 1351 136.604C1377.28 117.496 1420.25 95.9403 1452.43 112.553Z" fill="#898989"></path><path d="M2097.48 114.408C2115.57 114.408 2133.66 114.408 2152.3 114.408C2163.46 138.141 2173.73 162.126 2183.74 186.36C2186.88 193.965 2190.03 201.569 2193.19 209.171C2193.96 211.048 2194.74 212.925 2195.54 214.859C2200.37 226.49 2205.28 238.087 2210.26 249.653C2211.45 252.424 2212.64 255.195 2213.87 258.05C2216.04 263.102 2218.23 268.148 2220.44 273.188C2221.42 275.459 2222.39 277.731 2223.4 280.071C2224.23 281.984 2225.07 283.897 2225.92 285.867C2229.91 296.841 2232.77 308.103 2235.73 319.39C2236.22 318.087 2236.71 316.785 2237.22 315.443C2262.65 248.315 2288.22 181.251 2314.38 114.408C2332.47 114.408 2350.56 114.408 2369.2 114.408C2359.13 141.498 2348.73 168.433 2338.07 195.298C2336.37 199.595 2334.66 203.892 2332.96 208.189C2327.38 222.278 2321.79 236.364 2316.2 250.45C2314.28 255.283 2312.37 260.116 2310.45 264.949C2300.84 289.155 2291.23 313.359 2281.62 337.562C2279.42 343.114 2277.21 348.665 2275.01 354.216C2259.65 392.887 2244.28 431.549 2228.84 470.188C2227.35 473.91 2225.86 477.632 2224.38 481.355C2222.33 486.489 2220.28 491.623 2218.22 496.756C2217.31 499.047 2217.31 499.047 2216.38 501.385C2214.23 506.75 2212.09 512.048 2209.51 517.22C2192.62 515.921 2177.74 511.001 2161.84 505.303C2166.56 490.381 2172.1 476.028 2178.28 461.655C2180.03 457.479 2181.78 453.302 2183.52 449.123C2186.24 442.628 2188.97 436.144 2191.76 429.685C2194.48 423.384 2197.11 417.052 2199.73 410.707C2200.58 408.8 2201.43 406.893 2202.3 404.927C2207.35 392.41 2207.51 384.961 2202.39 372.452C2201.59 370.673 2200.8 368.893 2199.97 367.06C2198.53 363.412 2197.09 359.762 2195.65 356.11C2194.04 352.209 2192.42 348.311 2190.79 344.416C2189.47 341.208 2189.47 341.208 2188.11 337.934C2185.22 330.955 2182.32 323.981 2179.42 317.006C2177.39 312.127 2175.37 307.248 2173.35 302.368C2169.19 292.338 2165.03 282.31 2160.86 272.284C2154.99 258.155 2149.13 244.022 2143.27 229.887C2137.31 215.505 2131.35 201.124 2125.38 186.745C2123.12 181.303 2120.87 175.859 2118.61 170.415C2115.53 162.967 2112.43 155.527 2109.31 148.09C2107.77 144.377 2106.22 140.663 2104.67 136.949C2103.95 135.228 2103.22 133.506 2102.47 131.733C2097.48 119.714 2097.48 119.714 2097.48 114.408Z" fill="#898989"></path><path d="M1937.79 28.6016C1964.01 35.7521 1964.01 35.7521 1990.23 45.2861C1990.23 68.0962 1990.23 90.9063 1990.23 114.408C2013.04 114.408 2035.85 114.408 2059.35 114.408C2054.98 130.413 2050.29 146.339 2045.05 162.078C2026.96 162.078 2008.86 162.078 1990.23 162.078C1990.38 184.518 1990.56 206.956 1990.79 229.395C1990.89 239.816 1990.99 250.235 1991.05 260.656C1991.11 270.717 1991.21 280.777 1991.33 290.838C1991.37 294.671 1991.4 298.505 1991.41 302.338C1991.43 307.719 1991.5 313.098 1991.58 318.478C1991.62 323.067 1991.62 323.067 1991.66 327.748C1992.69 336.8 1995.06 342.617 1999.76 350.375C2010.11 357.944 2023.29 356.016 2035.51 355.142C2042.09 353.947 2048.16 352.311 2054.58 350.375C2056.59 355.731 2058.57 361.094 2060.54 366.463C2061.39 368.731 2061.39 368.731 2062.26 371.044C2065.18 379.055 2066.5 384.622 2066.5 393.278C2062.38 394.828 2058.26 396.365 2054.13 397.896C2051.84 398.753 2049.54 399.61 2047.18 400.493C2022.98 408.625 1995.43 408.525 1971.88 398.501C1956.56 390.579 1948.8 380.573 1942.56 364.676C1936.34 343.879 1937.18 322.988 1937.32 301.503C1937.33 297.473 1937.34 293.442 1937.34 289.411C1937.36 278.867 1937.41 268.323 1937.46 257.779C1937.51 246.993 1937.53 236.208 1937.56 225.422C1937.61 204.307 1937.69 183.193 1937.79 162.078C1919.7 162.078 1901.61 162.078 1882.97 162.078C1886.78 144.914 1891.11 130.622 1897.27 114.408C1910.64 114.408 1924.01 114.408 1937.79 114.408C1937.79 86.0917 1937.79 57.7756 1937.79 28.6016Z" fill="#898989"></path><path d="M1165.53 114.408C1182.84 114.408 1200.14 114.408 1217.97 114.408C1217.97 208.795 1217.97 303.182 1217.97 400.429C1200.67 400.429 1183.36 400.429 1165.53 400.429C1165.53 306.042 1165.53 211.655 1165.53 114.408Z" fill="#898989"></path><path d="M1203.67 4.76754C1214.23 9.8582 1220.82 15.2314 1225.12 26.2191C1226.42 37.1433 1226.52 46.6656 1222.29 56.9067C1215.4 64.9819 1209.02 70.5154 1198.9 73.8892C1186.39 74.8334 1178.51 73.5687 1167.92 66.7386C1158.16 56.1931 1155.12 47.9975 1155.33 33.5092C1156.77 22.9601 1163.73 16.3752 1170.45 8.64074C1181.28 2.64898 1191.58 3.00963 1203.67 4.76754Z" fill="#898989"></path></g><defs><clipPath id="clip0_1805_3009"><rect width="2369.2" height="1186.98" fill="white"></rect></clipPath></defs></svg> 