<?xml version="1.0" encoding="UTF-8"?> <svg xmlns="http://www.w3.org/2000/svg" width="113" height="64" viewBox="0 0 113 64" fill="none"><path d="M73.6069 64H58.4205V0H73.6069V64ZM52.9573 32.0099C52.9573 46.5849 41.1434 58.379 26.5881 58.379C12.0328 58.379 0.199219 46.5652 0.199219 32.0099C0.199219 17.4546 12.0131 5.64073 26.5684 5.64073C41.1237 5.64068 52.9573 17.4348 52.9573 32.0099ZM34.5758 32.0099C34.5758 27.592 31.006 24.0222 26.5881 24.0222C22.1702 24.0222 18.6005 27.592 18.6005 32.0099C18.6005 36.4278 22.1703 39.9976 26.5881 39.9976C31.006 39.9975 34.5758 36.4277 34.5758 32.0099ZM112.007 15.9754H101.929L96.0118 21.8922L90.095 15.9754H80.0168V26.2311L85.8546 32.069L80.0168 37.9069V48.0246H90.2529L96.0315 42.2459L101.81 48.0246H112.046V37.9069L106.208 32.069L112.046 26.2311V15.9754H112.007Z" fill="#898989"></path></svg> 