<svg xmlns="http://www.w3.org/2000/svg" width="25" height="24" viewBox="0 0 25 24" fill="none"><path d="M21.42 2.38C20.2974 2.12857 19.1505 2.00114 18 2C16.9135 1.93101 15.8241 2.0775 14.7944 2.43103C13.7647 2.78456 12.815 3.33816 12 4.06C10.9267 5.13333 9.86335 6.20333 8.81002 7.27C7.60002 7.14 4.73002 7.07 2.81002 9.01C2.62377 9.19736 2.51923 9.45081 2.51923 9.715C2.51923 9.97918 2.62377 10.2326 2.81002 10.42L14.11 21.74C14.2974 21.9262 14.5508 22.0308 14.815 22.0308C15.0792 22.0308 15.3327 21.9262 15.52 21.74C17.47 19.74 17.41 16.92 17.29 15.74L20.5 12.54C23.69 9.35 22.24 3.36 22.18 3.11C22.1339 2.92963 22.0383 2.76574 21.904 2.63677C21.7697 2.50779 21.6021 2.41887 21.42 2.38ZM19.06 11.13L15.5 14.67C15.3847 14.7864 15.2998 14.9294 15.2527 15.0863C15.2056 15.2432 15.1978 15.4093 15.23 15.57C15.446 16.9078 15.258 18.2796 14.69 19.51L5.02002 9.82C6.26987 9.24477 7.66703 9.07012 9.02002 9.32C9.18009 9.34084 9.34284 9.32262 9.49434 9.2669C9.64584 9.21117 9.7816 9.1196 9.89002 9C9.89002 9 11.29 7.55 13.4 5.44C14.6974 4.39811 16.3401 3.88389 18 4C18.7808 4.00387 19.56 4.07075 20.33 4.2C20.57 5.63 20.95 9.24 19.06 11.13Z" fill="#858585"></path><path d="M16.23 10.3C17.3345 10.3 18.23 9.40462 18.23 8.30005C18.23 7.19548 17.3345 6.30005 16.23 6.30005C15.1254 6.30005 14.23 7.19548 14.23 8.30005C14.23 9.40462 15.1254 10.3 16.23 10.3Z" fill="#858585"></path><path d="M5.5 16C3.5 17 3.5 21 3.5 21C5.35107 20.9472 7.12315 20.2384 8.5 19L5.5 16Z" fill="#858585"></path></svg>