<?xml version="1.0" encoding="UTF-8"?> <svg xmlns="http://www.w3.org/2000/svg" width="320" height="64" viewBox="0 0 320 64" fill="none"><path d="M56.5327 8.64844H10.7773V54.4038H56.5327V8.64844Z" fill="#898989"></path><path d="M41.4438 40.2958H36.8389L33.6057 30.2531L30.5194 40.2958H25.9144L19.8398 22.7578H24.8857L28.4129 33.3884L31.7441 22.7578H35.6632L38.9944 33.3884L42.4236 22.7578H47.3715L41.4438 40.2958Z" fill="white"></path><path d="M94.0589 42.2078H88.0823L83.9183 29.1278L79.8522 42.2078H73.8266L65.9395 19.33H72.5039L77.1579 33.2428L81.5178 19.33H86.5637L90.9237 33.2428L95.3816 19.33H101.848L94.0589 42.2078ZM154.07 19.2811V42.1588H167.738V36.77H160.586V19.2811H154.07ZM201.099 19.2811H194.633L190.175 33.1938L185.815 19.2811H180.769L176.409 33.1938L171.755 19.2811H165.19L173.078 42.1588H179.152L183.169 29.0788L187.333 42.1588H193.31L201.099 19.2811ZM233.187 24.5718H234.656C235.342 24.5718 237.4 24.5228 237.4 26.9233C237.4 29.5687 234.999 29.4707 234.313 29.4707H233.187V24.5718ZM227.063 19.2811V42.1588H233.187V34.3206L238.673 42.1588H246.365L239.604 32.9979C240.241 32.7529 240.535 32.557 240.78 32.41C241.417 31.9691 241.858 31.4302 242.054 31.2343C243.67 29.3237 243.719 27.1682 243.719 26.2374C243.719 23.4941 242.642 21.8775 241.809 21.0936C241.27 20.5548 240.633 20.2608 240.388 20.1139C239.114 19.477 238.135 19.2811 235.44 19.2811H227.063ZM246.022 19.2811V24.6208H250.823V42.2078H257.289V24.6208H262.041V19.2811H246.022ZM264.784 19.2811V42.1588H271.3V33.1448H278.648V42.1588H285.115V19.2811H278.648V27.8541H271.3V19.2811H264.784ZM303.877 21.0447C303.289 20.7017 302.751 20.3098 302.114 20.0159C301.134 19.526 299.174 18.7422 296.431 18.7422C291.826 18.7422 289.818 20.9957 288.985 22.8082C288.74 23.3471 288.348 24.4739 288.348 26.0905C288.348 29.5687 290.454 30.9404 291.679 31.5282C292.561 31.9201 294.129 32.361 295.059 32.557C295.99 32.8019 297.215 32.9979 297.852 33.8307C298.195 34.2226 298.342 34.6635 298.342 35.2024C298.342 36.77 297.019 37.6518 295.5 37.6518C294.423 37.6518 292.904 37.1129 290.944 35.7902C290.699 35.5943 290.405 35.3493 290.112 35.1534L287.858 39.9053C289.23 40.934 291.777 42.7466 296.137 42.7466C298.734 42.7466 300.987 42.1098 302.751 40.1012C304.122 38.5826 304.71 36.819 304.71 34.7615C304.71 31.9201 303.583 30.4015 302.604 29.6177C301.134 28.3929 298.636 27.8541 298.244 27.8051C296.97 27.4622 295.99 27.1682 295.5 26.8743C295.059 26.5804 294.716 26.0415 294.716 25.4536C294.716 24.6698 295.353 23.5921 297.117 23.5921C298.636 23.5921 300.252 24.6208 300.497 24.7188C300.889 24.9637 301.281 25.2577 301.673 25.5516L303.877 21.0447ZM139.569 36.4761C142.656 36.4761 145.203 33.9777 145.203 30.8424C145.203 27.7561 142.705 25.2087 139.569 25.2087C136.483 25.2087 133.936 27.7071 133.936 30.8424C133.936 33.9777 136.483 36.4761 139.569 36.4761ZM139.569 18.7422C146.232 18.7422 151.621 24.1309 151.621 30.7934C151.621 37.4559 146.232 42.8446 139.569 42.8446C132.907 42.8446 127.518 37.4559 127.518 30.7934C127.469 24.1799 132.907 18.7422 139.569 18.7422ZM212.856 36.4761C215.943 36.4761 218.49 33.9777 218.49 30.8424C218.49 27.7561 215.992 25.2087 212.856 25.2087C209.77 25.2087 207.223 27.7071 207.223 30.8424C207.223 33.9777 209.77 36.4761 212.856 36.4761ZM212.856 18.7422C219.519 18.7422 224.908 24.1309 224.908 30.7934C224.908 37.4559 219.519 42.8446 212.856 42.8446C206.194 42.8446 200.805 37.4559 200.805 30.7934C200.756 24.1799 206.194 18.7422 212.856 18.7422ZM113.409 36.4761C116.496 36.4761 119.043 33.9777 119.043 30.8424C119.043 27.7561 116.545 25.2087 113.409 25.2087C110.323 25.2087 107.776 27.7071 107.776 30.8424C107.776 33.9777 110.274 36.4761 113.409 36.4761ZM113.36 18.7422C120.023 18.7422 125.412 24.1309 125.412 30.7934C125.412 37.4559 120.023 42.8446 113.36 42.8446C106.698 42.8446 101.309 37.4559 101.309 30.7934C101.309 24.1799 106.698 18.7422 113.36 18.7422Z" fill="#898989"></path></svg> 