<svg width="24" height="24" viewBox="0 0 24 24" fill="none" xmlns="http://www.w3.org/2000/svg">
<path d="M6.50168 13.5H4.46177C3.70635 13.5 3.22371 12.6946 3.57995 12.0284L5.71909 8.02842C5.89306 7.70311 6.232 7.5 6.60091 7.5H11.21M6.50168 13.5L10.5017 17.5M6.50168 13.5L11.21 7.5M10.5017 17.5V19.5399C10.5017 20.2953 11.3071 20.778 11.9733 20.4217L15.9733 18.2826C16.2986 18.1086 16.5017 17.7697 16.5017 17.4008V12.8863M10.5017 17.5L16.5017 12.8863M16.5017 12.8863C19.4138 10.2168 21.1984 7.24415 21.4664 3.49976C21.5058 2.94889 21.0527 2.49575 20.5019 2.5354C16.7712 2.80389 13.8791 4.58832 11.21 7.5M4.50168 21.5H2.5V19.5008C2.5 18.3958 3.39623 17.5 4.50126 17.5C5.60583 17.5 6.50168 18.3954 6.50168 19.5C6.50168 20.6046 5.60625 21.5 4.50168 21.5Z" stroke="#2A2D34" stroke-linejoin="round"/>
</svg>
